<?xml version="1.0" encoding="utf-8"?>
<!-- Generator: Adobe Illustrator 19.0.0, SVG Export Plug-In . SVG Version: 6.00 Build 0)  -->
<svg version="1.1" id="Layer_1" xmlns="http://www.w3.org/2000/svg" xmlns:xlink="http://www.w3.org/1999/xlink" x="0px" y="0px"
	 viewBox="60 109.6 320.1 84.4" style="enable-background:new 60 109.6 320.1 84.4;" xml:space="preserve">
<style type="text/css">
	.st0{fill:#FF0000;}
	.st1{fill:#FFFFFF;}
</style>
<rect x="146.5" y="110.6" class="st0" width="232.5" height="82.4"/>
<polygon points="380.1,110.6 379,109.6 146.5,109.6 146.5,111.6 379,111.6 380.1,110.6 380.1,109.6 379,109.6 "/>
<polygon points="379,194 380.1,193 380.1,110.6 378,110.6 378,193 379,194 380.1,194 380.1,193 "/>
<polygon points="145.5,193 146.5,194 379,194 379,192 146.5,192 145.5,193 145.5,194 146.5,194 "/>
<polygon points="146.5,109.6 145.5,110.6 145.5,193 147.6,193 147.6,110.6 146.5,109.6 145.5,109.6 145.5,110.6 "/>
<rect x="61" y="110.6" class="st1" width="86" height="82.4"/>
<polygon points="148,110.6 147,109.6 61,109.6 61,111.6 147,111.6 148,110.6 148,109.6 147,109.6 "/>
<polygon points="147,194 148,193 148,110.6 146,110.6 146,193 147,194 148,194 148,193 "/>
<polygon points="60,193 61,194 147,194 147,192 61,192 60,193 60,194 61,194 "/>
<polygon points="61,109.6 60,110.6 60,193 62,193 62,110.6 61,109.6 60,109.6 60,110.6 "/>
<polygon class="st0" points="67.9,152.3 104.1,116.1 140.3,152.3 104.1,188.4 "/>
<polygon points="104.8,115.3 103.4,115.3 67.2,151.5 68.6,153 104.8,116.8 104.8,115.3 104.1,114.6 103.4,115.3 "/>
<polygon points="141,153 141,151.5 104.8,115.3 103.4,116.8 139.6,153 141,153 141.8,152.3 141,151.5 "/>
<polygon points="103.4,189.2 104.8,189.2 141,153 139.6,151.5 103.4,187.7 103.4,189.2 104.1,189.9 104.8,189.2 "/>
<polygon points="67.2,151.5 67.2,153 103.4,189.2 104.8,187.7 68.6,151.5 67.2,151.5 66.4,152.3 67.2,153 "/>
<polygon class="st1" points="92.1,140.3 116,116.4 139.9,140.3 116,164.1 "/>
<polygon points="116.7,115.6 115.3,115.6 91.4,139.5 92.8,141 116.7,117.1 116.7,115.6 116,114.9 115.3,115.6 "/>
<polygon points="140.6,141 140.6,139.5 116.7,115.6 115.3,117.1 139.2,141 140.6,141 141.3,140.3 140.6,139.5 "/>
<polygon points="115.3,164.9 116.7,164.9 140.6,141 139.2,139.5 115.3,163.4 115.3,164.9 116,165.6 116.7,164.9 "/>
<polygon points="91.4,139.5 91.4,141 115.3,164.9 116.7,163.4 92.8,139.5 91.4,139.5 90.6,140.3 91.4,141 "/>
<polygon class="st1" points="81.2,146.6 97,130.8 112.8,146.6 97,162.4 "/>
<polygon points="97.7,130.1 96.3,130.1 80.5,145.9 82,147.3 97.7,131.6 97.7,130.1 97,129.4 96.3,130.1 "/>
<polygon points="113.5,147.3 113.5,145.9 97.7,130.1 96.3,131.6 112.1,147.3 113.5,147.3 114.2,146.6 113.5,145.9 "/>
<polygon points="96.3,163.1 97.7,163.1 113.5,147.3 112.1,145.9 96.3,161.7 96.3,163.1 97,163.8 97.7,163.1 "/>
<polygon points="80.5,145.9 80.5,147.3 96.3,163.1 97.7,161.7 82,145.9 80.5,145.9 79.8,146.6 80.5,147.3 "/>
<polygon class="st0" points="105.7,145.5 113.4,137.8 121,145.5 113.4,153.1 "/>
<polygon points="114.1,137.1 112.6,137.1 105,144.8 106.4,146.2 114.1,138.6 114.1,137.1 113.4,136.4 112.6,137.1 "/>
<polygon points="121.7,146.2 121.7,144.8 114.1,137.1 112.6,138.6 120.3,146.2 121.7,146.2 122.5,145.5 121.7,144.8 "/>
<polygon points="112.6,153.9 114.1,153.9 121.7,146.2 120.3,144.8 112.6,152.4 112.6,153.9 113.4,154.6 114.1,153.9 "/>
<polygon points="105,144.8 105,146.2 112.6,153.9 114.1,152.4 106.4,144.8 105,144.8 104.3,145.5 105,146.2 "/>
<path class="st1" d="M315,146.3l-2.2,5.6h4.4L315,146.3z M233.2,159.5l1.1-0.1l1-0.2l0.9-0.3l0.8-0.4l0.8-0.5l0.7-0.6l0.6-0.7
	l0.5-0.7l0.4-0.7l0.4-0.8l0.3-0.8l0.2-0.9l0.1-0.9l0.1-0.9v-0.9l-0.1-0.9l-0.2-0.9l-0.2-0.9l-0.3-0.8l-0.4-0.8l-0.4-0.8l-0.5-0.7
	l-0.6-0.6l-0.6-0.6l-0.7-0.5l-0.7-0.4l-0.8-0.3l-0.8-0.2l-0.9-0.1h-1l-1,0.1l-1.1,0.3l-0.6,0.3l-0.6,0.4l-0.5,0.4l-0.5,0.5l-0.5,0.5
	l-0.4,0.6l-0.4,0.6L227,146l-0.3,0.7l-0.2,0.7l-0.2,0.7l-0.1,0.7l-0.1,0.7v0.7v0.7l0.1,0.7l0.1,0.7l0.1,0.7l0.2,0.7l0.2,0.7l0.3,0.7
	l0.3,0.6l0.4,0.6l0.4,0.6l0.5,0.5l0.5,0.5l0.6,0.4l0.6,0.4l0.6,0.3l0.7,0.2l0.7,0.2L233.2,159.5z M201.2,146.8h1.1h1.3h0.7l1.4-0.1
	l0.7-0.1l0.3-0.1l0.3-0.1l0.3-0.1l0.3-0.1l0.3-0.1l0.3-0.1l0.2-0.1l0.2-0.1l0.2-0.1l0.2-0.1l0.2-0.2l0.1-0.2l0.1-0.2l0.1-0.2v-0.2
	v-0.2v-0.3l-0.1-0.2l-0.1-0.2l-0.1-0.2l-0.1-0.2l-0.2-0.2l-0.2-0.2l-0.2-0.1l-0.2-0.1l-0.2-0.1l-0.2-0.1l-0.3-0.1l-0.3-0.1l-0.3-0.1
	l-0.3-0.1l-0.3-0.1l-0.6-0.1l-0.7-0.1h-0.7h-0.7h-1.3h-3.5v4.8L201.2,146.8z M298.7,159.5l7.2-17.4h-21.4H284l-0.5,0.1l-0.5,0.1
	l-0.4,0.1l-0.5,0.1l-0.4,0.2l-0.4,0.2l-0.4,0.2l-0.4,0.3l-0.4,0.3l-0.3,0.3l-0.3,0.3l-0.3,0.4l-0.3,0.4l-0.1,0.2l-0.1,0.2l-0.1,0.2
	l-0.1,0.2h18.2l-3.5,9.4h-14.9l0.1,0.3l0.1,0.3l0.1,0.3l0.2,0.5l0.1,0.2l0.1,0.2l0.2,0.2l0.2,0.2l0.2,0.2l0.2,0.2l0.4,0.3l0.2,0.1
	l0.2,0.1l0.2,0.1l0.5,0.2l0.5,0.2l0.5,0.2l0.5,0.1l0.5,0.1l0.5,0.1l0.5,0.1l0.5,0.1L298.7,159.5L298.7,159.5z M198.7,171.1l-2.6-2.5
	h-21.7l-1.3-0.1l-1.2-0.2l-1.1-0.3l-1.1-0.3l-1-0.4l-1-0.5l-0.9-0.5l-0.8-0.6l-0.8-0.6l-0.7-0.7l-0.7-0.7l-0.6-0.8l-0.6-0.8
	l-0.5-0.8l-0.5-0.9l-0.4-0.9l-0.4-0.9l-0.3-1l-0.3-1l-0.2-1l-0.2-1l-0.1-1l-0.1-1v-1.1v-1.1v-1.1l0.1-1.1l0.1-1.1l0.2-1.1l0.2-1
	l0.2-1.1l0.3-1l0.3-0.8l0.4-0.8l0.4-0.7l0.4-0.7l0.4-0.6l0.4-0.6l0.5-0.6l0.5-0.5l1-1l0.6-0.4l0.6-0.4l0.6-0.4l0.6-0.3l0.6-0.3
	l0.7-0.3l0.7-0.2l0.7-0.2l0.7-0.2l0.7-0.2l0.7-0.2l0.7-0.1l0.7-0.1l0.7-0.1l0.7-0.1l0.8-0.1l0.8-0.1h0.8l1.5-0.1h1.6h1.2h1.2h1.2
	h1.2h3.5h1.1l0,0h19.5l0.4,0.1l0.4,0.1l0.4,0.1l0.4,0.1l0.4,0.1l0.4,0.1l0.4,0.1l0.8,0.3l0.4,0.2l0.4,0.2l0.4,0.2l0.3,0.2l0.3,0.2
	l0.3,0.2l0.3,0.2l0.3,0.3l0.3,0.3l0.6,0.6l0.3,0.3l0.3,0.3l0.2,0.3l0.2,0.3l0.2,0.4l0.2,0.4l0.2,0.4l0.2,0.4l0.2,0.4l0.2,0.4
	l0.2,0.4l0.2,0.4l0.3-0.6l0.3-0.5l0.4-0.5l0.3-0.5l0.4-0.5l0.4-0.4l0.4-0.4l0.4-0.4l0.4-0.4l0.4-0.4l0.4-0.3l0.4-0.3l0.4-0.3
	l0.4-0.3l0.4-0.2l0.4-0.2l0.5-0.2l0.5-0.2l0.5-0.2l0.5-0.2l0.5-0.2l0.5-0.1l0.6-0.1l0.6-0.1l0.6-0.1l0.6-0.1l0.6-0.1l0.7-0.1h0.7
	h0.7h0.7h75.6l4.9-12.1l11,25.4v-18.6l20.3,20.4l19.9-19.9v49.6l-10.4-10.5v-14.8l-9.2,9.2l-9.8-9.7v24l-3-7.1H324l-3.1-7.4h-11.8
	l-5.7,13.5h-11.1l2.5-6l-3.9,0.1h-4h-1h-1l-1-0.1l-1-0.1l-0.9-0.2l-0.9-0.1l-0.9-0.2l-0.9-0.2l-0.9-0.2l-0.9-0.3l-0.9-0.3l-0.8-0.3
	l-0.8-0.4l-0.8-0.5l-0.7-0.5l-0.7-0.6l-0.7-0.6l-0.6-0.7l-0.6-0.7l-0.6-0.8l-0.5-0.9l-0.5-0.9l-0.5-1l-0.4-1.1l-0.2-0.9l-0.2-1
	l-0.2-1l-0.1-1l-0.1-1l-0.1-1.1l-0.1-1.1v-1.6v-0.5v-0.5v-0.5v-0.5l0.1-0.5l0.1-0.5l0.1-0.5l0.1-0.5l0.1-0.5l0.1-0.5l0.1-0.5
	l0.1-0.5l0.2-0.5l0.2-0.5l0.2-0.5H264v25.7l-10.7,10.8v-36.5h-4.7l0.3,0.8l0.3,0.8l0.3,0.8l0.2,0.8l0.2,0.8l0.2,0.8l0.1,0.9l0.1,0.8
	v0.8v0.9v0.8l-0.1,0.8l-0.1,0.8l-0.2,0.8l-0.2,0.8l-0.2,0.8l-0.2,0.8l-0.3,0.8l-0.3,0.8l-0.3,0.8l-0.4,0.8l-0.4,0.7l-0.4,0.7
	l-0.5,0.7l-0.5,0.7l-0.5,0.7l-0.6,0.6l-0.6,0.6l-0.6,0.6l-0.7,0.6l-0.7,0.5l-0.7,0.5l-1.1,0.6l-1.1,0.5l-1.1,0.4l-1.1,0.3l-1.1,0.3
	l-1.1,0.2l-1.1,0.1h-1h-1l-1-0.1l-1-0.2l-0.9-0.2l-0.9-0.3l-0.9-0.4l-0.9-0.4l-0.8-0.5l-0.8-0.5l-0.8-0.6l-0.7-0.6l-0.7-0.7
	l-0.7-0.8l-0.6-0.8l-0.6-0.8l-0.6-0.9l-0.5-0.9l-0.5-1l-0.4-1l-0.4-1l-0.3-1.1l-0.3-1.1l-0.2-1.1l-0.2-1.2l-0.6-0.1l-0.3,0.3
	l-0.3,0.3l-0.4,0.3l-0.4,0.3l-0.4,0.3l-0.4,0.3l-0.4,0.2l-0.4,0.2l13.3,20.2h-11.9l-11.9-18.6h-4.4v15.2H198.7z M188.1,159.5v-17.6
	h-3.4h-3.2h-0.8H180h-0.7l-0.7,0.1l-0.7,0.1l-0.7,0.1l-0.6,0.1l-0.6,0.2l-0.6,0.2l-0.6,0.2l-0.5,0.3l-0.5,0.3l-0.5,0.3l-0.5,0.4
	l-0.4,0.4l-0.4,0.5l-0.4,0.5l-0.3,0.6l-0.3,0.4l-0.2,0.7l-0.2,0.7l-0.1,0.8l-0.1,0.9v1l0.1,1l0.1,0.9l0.2,0.9l0.2,0.8l0.2,0.7
	l0.3,0.7l0.3,0.6l0.4,0.5l0.4,0.5l0.4,0.4l0.5,0.4l0.5,0.3l0.5,0.3l0.6,0.2l0.6,0.2l0.6,0.2l0.6,0.1l0.7,0.1l0.7,0.1h0.7h0.7h0.7
	h0.8h0.8h1.6h1.6h1.7h0.9L188.1,159.5z"/>
<polygon points="188.1,141.1 187.4,141.9 187.4,159.5 188.9,159.5 188.9,141.9 188.1,141.1 188.9,141.9 188.9,141.1 "/>
<polygon points="171.1,150.6 171.1,150.7 171.1,150.2 171.1,149.8 171.2,149.4 171.2,148.9 171.3,148.6 171.4,148.2 171.4,147.8 
	171.5,147.5 171.6,147.2 171.7,146.9 171.9,146.6 172,146.3 172.1,146 172.3,145.8 172.4,145.5 172.6,145.3 172.7,145.1 
	172.9,144.9 173.1,144.7 173.3,144.5 173.5,144.4 173.7,144.2 173.9,144.1 174.1,143.9 174.3,143.8 174.6,143.7 174.8,143.6 
	175,143.5 175.6,143.3 176.1,143.1 176.7,143 177.4,142.8 178,142.8 178.7,142.7 179.4,142.6 180.1,142.6 180.8,142.6 181.6,142.6 
	184.8,142.6 188.2,142.6 188.1,141.1 184.8,141.1 181.6,141 180.8,141 180,141.1 179.3,141.1 178.5,141.1 177.8,141.2 177.1,141.3 
	176.4,141.5 175.8,141.6 175.1,141.8 174.5,142 174.2,142.2 173.9,142.3 173.6,142.5 173.3,142.6 173,142.8 172.8,143 172.5,143.2 
	172.2,143.4 172,143.6 171.8,143.9 171.6,144.1 171.3,144.4 171.1,144.7 171,145 170.6,145.6 170.3,146.3 170.2,146.7 170.1,147.1 
	170,147.5 169.9,147.9 169.8,148.3 169.7,148.7 169.6,149.2 169.6,149.7 169.6,150.1 169.5,150.7 169.5,150.7 169.5,150.7 
	169.5,150.7 "/>
<polygon points="187.4,159.5 188.2,158.7 187.3,158.7 186.5,158.7 185.6,158.7 184.8,158.7 183.1,158.7 181.6,158.8 180.1,158.8 
	179.3,158.7 178.6,158.7 178,158.7 177.3,158.6 176.7,158.5 176.1,158.4 175.9,158.3 175.6,158.2 175.3,158.2 175.1,158 174.8,158 
	174.6,157.9 174.3,157.7 174.1,157.6 173.9,157.5 173.5,157.2 173.3,157 172.9,156.7 172.8,156.5 172.6,156.3 172.5,156 
	172.3,155.8 172.2,155.6 172,155.3 171.9,155 171.8,154.7 171.7,154.4 171.6,154 171.5,153.7 171.4,153.3 171.3,152.9 171.2,152.5 
	171.2,152.1 171.1,151.6 171.1,151.1 171.1,150.6 169.5,150.7 169.6,151.2 169.6,151.7 169.7,152.2 169.7,152.7 169.8,153.2 
	169.9,153.6 170,154.1 170.1,154.5 170.2,154.9 170.3,155.2 170.5,155.6 170.6,155.9 170.8,156.3 171,156.6 171.2,156.9 
	171.4,157.2 171.6,157.5 171.8,157.7 172,158 172.3,158.2 172.5,158.4 172.8,158.6 173.1,158.8 173.3,158.9 173.6,159.1 
	173.9,159.2 174.2,159.4 174.5,159.5 174.8,159.6 175.1,159.7 175.5,159.8 175.8,159.9 176.5,160 177.1,160.1 177.8,160.2 
	178.6,160.2 179.3,160.3 180,160.3 180.8,160.3 181.6,160.3 183.2,160.3 184.8,160.2 185.6,160.2 186.4,160.2 187.3,160.2 
	188.1,160.3 188.9,159.5 188.1,160.3 188.9,160.3 188.9,159.5 "/>
<polygon points="196.1,167.8 195.6,169.2 198.2,171.6 199.3,170.5 196.7,168 196.1,167.8 196.7,168 196.4,167.8 "/>
<polygon points="174.3,169.3 174.4,169.3 196.1,169.4 196.1,167.8 174.4,167.8 174.3,169.3 174.4,169.3 "/>
<polygon points="160.1,142.8 160.1,142.8 159.8,143.9 159.6,145 159.4,146 159.2,147.1 159.1,148.2 159,149.3 159,149.9 
	158.9,150.4 158.9,151.5 159,152.1 159,152.6 159,153.1 159.1,153.7 159.1,154.2 159.2,154.7 159.3,155.3 159.4,155.8 159.5,156.3 
	159.6,156.8 159.7,157.4 159.9,157.9 160,158.4 160.2,158.9 160.4,159.3 160.6,159.8 160.8,160.3 161,160.8 161.2,161.2 
	161.5,161.7 161.7,162.1 162,162.5 162.3,163 162.6,163.4 162.9,163.8 163.3,164.2 163.6,164.6 164,165 164.3,165.3 164.7,165.7 
	165.1,166 165.6,166.3 166,166.6 166.4,166.9 166.9,167.2 167.4,167.4 167.9,167.7 168.4,167.9 168.9,168.2 169.5,168.4 170,168.5 
	170.6,168.7 171.2,168.9 171.8,169 172.4,169.1 173,169.2 173.7,169.3 174.3,169.3 174.5,167.8 173.8,167.7 173.2,167.7 
	172.7,167.6 172.1,167.5 171.5,167.4 171,167.2 170.5,167.1 169.5,166.7 169,166.5 168.5,166.3 168.1,166.1 167.7,165.9 
	167.3,165.6 166.9,165.4 166.5,165.1 166.1,164.8 165.7,164.5 165.4,164.2 165,163.9 164.7,163.5 164.4,163.2 164.1,162.8 
	163.8,162.5 163.6,162.1 163.3,161.7 163,161.3 162.8,160.9 162.6,160.5 162.4,160.1 162.2,159.7 162,159.2 161.8,158.8 
	161.5,157.9 161.3,157.4 161.2,157 161.1,156.5 161,156 160.9,155.5 160.8,155 160.7,154.5 160.7,154 160.6,153.5 160.6,153 
	160.5,152.5 160.5,151.5 160.5,150.5 160.5,149.4 160.6,148.4 160.7,147.3 160.9,146.3 161.1,145.3 161.3,144.2 161.6,143.2 
	161.6,143.3 160.1,142.8 "/>
<polygon points="180.6,132 179,132 177.4,132.1 176.6,132.2 175.9,132.2 175.1,132.3 174.3,132.4 173.6,132.5 172.8,132.7 
	172.1,132.8 171.3,133 170.6,133.2 169.9,133.4 169.2,133.6 168.5,133.9 167.8,134.2 167.2,134.5 166.5,134.9 165.9,135.3 
	165.3,135.7 164.7,136.1 164.1,136.6 163.6,137.1 163.3,137.4 163,137.7 162.8,138 162.5,138.3 162.3,138.6 162.1,139 161.8,139.3 
	161.6,139.6 161.4,140 161.2,140.4 161,140.7 160.8,141.1 160.4,141.9 160.3,142.3 160.1,142.8 161.6,143.3 161.7,142.9 162,142.1 
	162.2,141.8 162.7,140.8 162.9,140.4 163.1,140.1 163.3,139.8 163.5,139.5 163.7,139.3 164,139 164.2,138.7 164.4,138.5 
	164.7,138.2 165.1,137.8 165.7,137.3 166.2,136.9 166.7,136.5 167.3,136.2 167.9,135.9 168.5,135.6 169.1,135.3 169.7,135.1 
	170.4,134.8 171,134.6 171.7,134.5 172.4,134.3 173.1,134.2 173.8,134 174.5,133.9 175.3,133.8 176,133.8 176.8,133.7 177.5,133.6 
	179,133.6 180.6,133.5 "/>
<polygon points="190.9,132.7 190.1,131.9 183,131.9 181.8,132 180.6,132 180.6,133.5 181.8,133.5 183,133.5 190.1,133.5 
	189.3,132.7 190.9,132.7 190.9,131.9 190.1,131.9 "/>
<polygon points="190.1,133.5 190.9,132.7 190.9,132.7 189.3,132.7 189.3,132.7 190.1,133.5 189.3,132.7 189.3,133.5 "/>
<polygon points="209.7,131.9 209.6,131.9 190.1,132 190.1,133.5 209.6,133.5 209.7,131.9 209.6,131.9 "/>
<polygon points="218.7,140.4 220.1,140.6 219.9,140.1 219.8,139.7 219.6,139.2 219.4,138.8 219.2,138.4 219,138 218.8,137.6 
	218.5,137.2 218.3,136.9 218,136.5 217.8,136.2 217.5,135.8 217.2,135.5 216.9,135.2 216.6,134.9 216.2,134.6 215.9,134.4 
	215.5,134.1 215.2,133.9 214.8,133.7 214.4,133.4 214.1,133.2 213.6,133.1 213.3,132.9 212.8,132.7 212.4,132.6 212,132.4 
	211.6,132.3 211.1,132.2 210.6,132.1 210.2,132 209.7,131.9 209.5,133.5 209.9,133.5 210.3,133.6 210.8,133.7 211.2,133.8 
	211.6,133.9 211.9,134 212.3,134.2 212.7,134.3 213,134.5 213.4,134.6 213.7,134.8 214,135 214.4,135.2 214.6,135.4 214.9,135.6 
	215.3,135.8 215.5,136.1 215.8,136.3 216.1,136.6 216.3,136.9 216.6,137.1 216.8,137.4 217,137.7 217.3,138.1 217.5,138.4 
	217.7,138.7 217.9,139.1 218,139.5 218.2,139.8 218.4,140.2 218.5,140.6 218.7,141 220,141.2 218.7,141 219.2,142.6 220,141.2 "/>
<polygon points="234.8,132.1 234.1,132.1 233.3,132.1 232.6,132.2 232,132.2 231.3,132.3 230.7,132.3 230,132.4 229.4,132.5 
	228.8,132.6 228.3,132.8 227.7,132.9 227.2,133.1 226.6,133.2 226.1,133.4 225.6,133.7 225.2,133.9 224.7,134.1 224.2,134.4 
	223.8,134.7 223.3,135 222.9,135.4 222.5,135.7 222.1,136.1 221.7,136.5 221.3,136.9 220.9,137.3 220.5,137.8 220.2,138.3 
	219.8,138.8 219.4,139.3 219.1,139.8 218.7,140.4 220,141.2 220.4,140.7 220.7,140.1 221.1,139.6 221.4,139.2 221.7,138.7 
	222.1,138.3 222.4,137.9 222.8,137.5 223.1,137.2 223.5,136.9 223.9,136.5 224.3,136.2 224.6,136 225,135.7 225.4,135.5 
	225.9,135.3 226.3,135 226.7,134.9 227.2,134.7 227.6,134.5 228.1,134.4 228.6,134.2 229.2,134.1 229.7,134 230.3,133.9 
	230.8,133.8 231.4,133.8 232.1,133.7 232.7,133.7 233.4,133.7 234.1,133.6 234.8,133.6 "/>
<polygon points="310.4,133.1 309.7,132.1 234.8,132.1 234.8,133.6 309.7,133.6 310.4,133.1 309.7,133.6 310.2,133.6 "/>
<polygon points="315.3,120.4 313.9,120.4 309,132.6 310.4,133.1 315.3,121 315.3,120.4 314.6,118.7 313.9,120.4 "/>
<polygon points="326.4,146.2 326.3,145.9 315.3,120.4 313.9,121 324.9,146.5 326.4,146.2 324.9,146.5 326.4,149.9 "/>
<polygon points="326.2,127 324.9,127.6 324.9,146.2 326.4,146.2 326.4,127.6 326.2,127 324.9,125.7 324.9,127.6 "/>
<polygon points="346.5,148.5 346.5,147.5 326.2,127 325.1,128.1 345.4,148.5 346.5,148.5 345.4,148.5 345.9,149.1 "/>
<polygon points="366.6,128.1 365.3,127.5 345.4,147.5 346.5,148.5 366.4,128.6 366.6,128.1 366.6,126.2 365.3,127.5 "/>
<polygon points="365.3,178.2 366.6,177.7 366.6,128.1 365.1,128.1 365.1,177.7 365.3,178.2 366.6,179.5 366.6,177.7 "/>
<polygon points="354.7,167.2 354.9,167.7 365.3,178.2 366.4,177.1 356,166.7 354.7,167.2 354.7,167.5 354.9,167.7 "/>
<polygon points="354.9,151.9 354.6,152.4 354.7,167.2 356.2,167.2 356.2,152.4 354.9,151.9 356.2,152.4 356.2,150.6 "/>
<polygon points="345.7,162.2 346.8,162.2 356,152.9 354.9,151.9 345.7,161.1 345.7,162.2 346.2,162.7 346.8,162.2 "/>
<polygon points="335.6,151.9 335.9,152.5 345.7,162.2 346.8,161.1 336.9,151.4 335.6,151.9 336.9,151.4 335.6,150.1 "/>
<polygon points="335.7,176.2 337.2,175.9 337.2,151.9 335.6,151.9 335.6,175.9 335.7,176.2 337.2,179.5 337.2,175.9 "/>
<polygon points="333.4,168 332.7,169 335.7,176.2 337.1,175.6 334.1,168.4 333.4,168 334.1,168.4 333.9,168 "/>
<polygon points="323.3,169 324,169.5 333.4,169.5 333.4,168 324,168 323.3,169 323.5,169.5 324,169.5 "/>
<polygon points="320.9,160.6 320.2,161.6 323.3,169 324.7,168.5 321.6,161 320.9,160.6 321.6,161 321.4,160.6 "/>
<polygon points="308.4,161 309.1,162.1 320.9,162.1 320.9,160.6 309.1,160.6 308.4,161 309.1,160.6 308.6,160.6 "/>
<polygon points="303.4,175.6 304.1,175.1 309.8,161.6 308.4,161 302.7,174.5 303.4,175.6 303.9,175.6 304.1,175.1 "/>
<polygon points="291.6,174.5 292.3,175.6 303.4,175.6 303.4,174.1 292.3,174.1 291.6,174.5 291.2,175.6 292.3,175.6 "/>
<polygon points="294.8,168.1 294.1,168.5 291.6,174.5 293,175.1 295.5,169.1 294.8,168.1 295.5,169.1 295.9,168.1 "/>
<polygon points="267.8,158.5 267.8,158.5 268,159.1 268.2,159.7 268.4,160.2 268.7,160.8 268.9,161.2 269.2,161.7 269.4,162.2 
	269.7,162.7 270,163.1 270.3,163.5 270.6,163.9 271,164.3 271.3,164.7 271.7,165 272,165.3 272.4,165.7 272.7,165.9 273.5,166.5 
	273.9,166.8 274.3,167 274.7,167.2 275.1,167.4 275.5,167.7 276,167.9 276.4,168 276.8,168.2 277.3,168.4 277.7,168.5 278.2,168.6 
	278.6,168.7 279.1,168.9 280,169.1 281,169.2 281.9,169.4 282.9,169.5 283.9,169.5 284.9,169.6 285.9,169.7 286.9,169.7 
	290.9,169.7 294.8,169.6 294.8,168.1 290.8,168.1 286.9,168.2 285.9,168.1 285,168.1 284,168 283.1,167.9 282.1,167.9 281.2,167.7 
	280.3,167.5 279.5,167.4 279,167.3 278.6,167.2 278.2,167 277.8,166.9 277.4,166.7 277,166.6 276.6,166.4 276.2,166.3 275.8,166.1 
	275.4,165.9 275.1,165.7 274.7,165.5 274.4,165.2 274,165 273.7,164.7 273.4,164.5 273,164.2 272.7,163.9 272.4,163.6 272.1,163.3 
	271.8,162.9 271.5,162.6 271.3,162.2 271,161.8 270.8,161.4 270.5,161 270.3,160.5 270,160.1 269.8,159.6 269.4,158.6 269.2,158.1 
	269.2,158.1 267.8,158.5 267.8,158.5 "/>
<polygon points="268.9,142.9 268.2,141.8 268,142.3 267.8,142.8 267.7,143.3 267.4,144.3 267.3,144.8 267.2,145.3 267.1,145.8 
	267,146.4 266.9,146.9 266.9,147.4 266.8,148 266.8,148.5 266.7,149.1 266.7,149.6 266.7,150.2 266.7,151.3 266.8,152.4 
	266.9,153.4 267,154.5 267.2,155.5 267.3,156.5 267.5,157.5 267.8,158.5 269.2,158.1 269,157.2 268.8,156.3 268.7,155.3 
	268.5,154.3 268.4,153.3 268.3,152.3 268.3,151.2 268.3,150.2 268.3,149.7 268.3,149.1 268.3,148.6 268.4,147.6 268.4,147.1 
	268.5,146.6 268.6,146.1 268.7,145.6 268.8,145.1 268.9,144.6 269,144.2 269.1,143.7 269.3,143.2 269.4,142.8 269.6,142.4 
	268.9,141.3 269.6,142.4 270,141.3 268.9,141.3 "/>
<polygon points="263.3,142.1 264.1,142.9 268.9,142.9 268.9,141.3 264.1,141.3 263.3,142.1 264.1,141.3 263.3,141.3 "/>
<polygon points="264.6,168.3 264.9,167.8 264.9,142.1 263.3,142.1 263.3,167.8 264.6,168.3 264.9,168.1 264.9,167.8 "/>
<polygon points="252.6,178.6 253.9,179.2 264.6,168.3 263.6,167.2 252.8,178.1 252.6,178.6 252.6,180.5 253.9,179.2 "/>
<polygon points="253.3,141.3 252.6,142.1 252.6,178.6 254.1,178.6 254.1,142.1 253.3,141.3 254.1,142.1 254.1,141.3 "/>
<polygon points="247.9,142.4 248.6,142.9 253.3,142.9 253.3,141.3 248.6,141.3 247.9,142.4 248.6,141.3 247.4,141.3 "/>
<polygon points="242.1,167 242.2,167 243,166.5 243.7,165.9 244.3,165.3 245,164.7 245.6,164 246.2,163.4 246.7,162.7 247.3,162 
	247.8,161.2 248.2,160.5 248.7,159.7 249,158.9 249.4,158.2 249.7,157.3 250,156.5 250.3,155.7 250.5,154.8 250.7,154 250.9,153.1 
	251,152.2 251.1,151.4 251.1,150.5 251.1,149.6 251.1,148.7 251,147.8 250.9,146.9 250.7,146.1 250.5,145.2 250.3,144.3 250,143.5 
	249.9,143 249.7,142.6 249.5,142.2 249.3,141.8 247.9,142.4 248.1,142.8 248.3,143.2 248.4,143.6 248.6,144 248.8,144.8 
	249.1,145.6 249.2,146.4 249.4,147.2 249.5,148 249.6,148.8 249.6,149.6 249.6,150.4 249.5,151.3 249.5,152.1 249.4,152.9 
	249.2,153.7 249,154.5 248.8,155.2 248.6,156 248.3,156.8 248,157.5 247.7,158.3 247.3,159 246.9,159.7 246.5,160.4 246,161.1 
	245.5,161.7 245,162.4 244.5,163 243.9,163.6 243.3,164.2 242.7,164.7 242,165.2 241.3,165.7 241.4,165.7 242.1,167 242.2,167 "/>
<polygon points="217.3,153.2 216.7,152.6 216.8,153.2 216.9,153.8 217,154.4 217.3,155.5 217.4,156.1 217.6,156.7 217.8,157.2 
	217.9,157.8 218.2,158.3 218.6,159.3 218.8,159.8 219.1,160.3 219.4,160.8 219.6,161.3 219.9,161.8 220.2,162.2 220.5,162.7 
	220.8,163.1 221.1,163.5 221.5,163.9 221.8,164.3 222.2,164.7 222.5,165.1 222.9,165.5 223.3,165.8 223.6,166.1 224,166.4 
	224.4,166.7 224.9,167 225.3,167.3 225.7,167.6 226.2,167.8 226.6,168 227.1,168.3 227.5,168.5 228,168.7 228.5,168.8 229,169 
	229.4,169.1 229.9,169.2 230.4,169.3 231,169.4 231.5,169.5 232,169.5 232.5,169.5 233.1,169.6 234.1,169.5 234.7,169.5 
	235.2,169.4 235.8,169.3 236.4,169.2 236.9,169.1 237.5,168.9 238.1,168.8 238.6,168.6 239.2,168.4 239.8,168.2 240.4,167.9 
	241,167.7 241.6,167.4 242.1,167 241.4,165.7 240.9,166 240.3,166.2 239.8,166.5 239.2,166.7 238.7,166.9 238.1,167.2 237.6,167.3 
	237.1,167.5 236.6,167.6 236,167.7 235.5,167.8 235,167.9 234.5,167.9 234,168 233.5,168 232.6,168 232.1,168 231.6,167.9 
	231.2,167.9 230.7,167.8 230.3,167.7 229.8,167.6 229.4,167.5 228.9,167.4 228.5,167.2 228.1,167 227.7,166.9 227.3,166.7 
	226.9,166.5 226.5,166.2 226.1,166 225.7,165.8 225.4,165.5 225,165.2 224.6,165 224.3,164.6 223.9,164.3 223.6,164 223.3,163.7 
	222.9,163.3 222.6,163 222.3,162.6 222,162.2 221.8,161.8 221.5,161.4 221.2,161 221,160.5 220.7,160.1 220.5,159.6 220.2,159.2 
	220,158.7 219.8,158.2 219.6,157.7 219.4,157.2 219.2,156.7 219.1,156.2 218.9,155.7 218.7,155.2 218.6,154.6 218.5,154.1 
	218.4,153.5 218.3,152.9 218.2,152.4 217.5,151.7 218.2,152.4 218.1,151.8 217.5,151.7 "/>
<polygon points="216.2,151.9 216.7,153.2 217.3,153.2 217.5,151.7 216.9,151.7 216.2,151.9 216.9,151.7 216.5,151.6 "/>
<polygon points="214.5,154.3 214.1,155.4 214.6,155.2 215,154.9 215.5,154.6 215.9,154.3 216.3,154 216.7,153.7 217.1,153.3 
	217.4,152.9 216.2,151.9 215.9,152.2 215.6,152.5 215.3,152.8 215,153.1 214.6,153.4 214.3,153.6 213.9,153.8 213.5,154 
	213.2,155.1 213.5,154 212.7,154.4 213.2,155.1 "/>
<polygon points="227.1,175.7 227.7,174.5 214.5,154.3 213.2,155.1 226.4,175.3 227.1,175.7 228.5,175.7 227.7,174.5 "/>
<polygon points="214.5,175.3 215.1,175.7 227.1,175.7 227.1,174.1 215.1,174.1 214.5,175.3 214.7,175.7 215.1,175.7 "/>
<polygon points="203.2,155.6 202.5,156.7 214.5,175.3 215.8,174.5 203.8,155.9 203.2,155.6 203.8,155.9 203.6,155.6 "/>
<polygon points="198,156.3 198.7,157.1 203.2,157.1 203.2,155.6 198.7,155.6 198,156.3 198.7,155.6 198,155.6 "/>
<polygon points="198.2,171.6 199.5,171.1 199.5,156.3 198,156.3 198,171.1 199.3,170.5 198.2,171.6 199.5,172.9 199.5,171.1 "/>
<polygon points="305.8,141.3 305.1,141.8 298,159.2 299.4,159.8 306.6,142.3 305.8,141.3 306.6,142.3 307,141.3 "/>
<polygon points="284.4,141.3 284.4,142.8 305.8,142.8 305.8,141.3 284.4,141.3 "/>
<polygon points="278.5,145.1 279.2,146.1 279.3,145.9 279.4,145.7 279.5,145.5 279.6,145.4 279.8,145 280.1,144.7 280.3,144.4 
	280.6,144.2 280.9,143.9 281.2,143.7 281.6,143.5 282,143.4 282.3,143.2 282.7,143.1 283.1,143 283.6,142.9 284,142.9 284.5,142.8 
	284.4,141.3 283.9,141.3 283.3,141.4 282.8,141.5 282.3,141.6 281.8,141.8 281.4,141.9 280.9,142.1 280.5,142.4 280,142.7 
	279.6,143 279.2,143.3 278.9,143.7 278.6,144.1 278.3,144.5 278.1,144.8 278,145 277.9,145.3 277.8,145.6 278.5,146.6 277.8,145.6 
	277.3,146.6 278.5,146.6 "/>
<polygon points="297.4,146.1 296.6,145.1 278.5,145.1 278.5,146.6 296.6,146.6 297.4,146.1 297.7,145.1 296.6,145.1 "/>
<polygon points="293.1,156 293.8,155.5 297.4,146.1 295.9,145.6 292.4,155 293.1,156 293.6,156 293.8,155.5 "/>
<polygon points="277.5,155.4 278.2,156 293.1,156 293.1,154.5 278.2,154.5 277.5,155.4 278.2,154.5 277.3,154.5 "/>
<polygon points="284.9,158.7 284.9,158.7 284.4,158.6 283.9,158.6 283.4,158.5 282.9,158.4 282.4,158.3 282,158.1 281.5,157.9 
	281.1,157.7 280.9,157.6 280.5,157.4 280.4,157.3 280,157 279.9,156.8 279.8,156.7 279.6,156.5 279.5,156.3 279.4,156.2 279.3,156 
	279.2,155.8 279.1,155.5 279,155.3 279,155 277.5,155.4 277.6,155.7 277.7,156 277.8,156.3 277.9,156.6 278.1,156.9 278.2,157.2 
	278.4,157.4 278.6,157.7 278.8,157.9 279,158.1 279.2,158.3 279.4,158.5 279.7,158.7 279.9,158.8 280.1,159 280.4,159.1 
	280.9,159.3 281.5,159.5 282,159.7 282.6,159.9 283.1,160 283.7,160.1 284.2,160.2 284.8,160.2 284.9,160.2 284.8,160.2 
	284.9,160.2 "/>
<polygon points="299.4,159.8 298.7,158.7 284.9,158.7 284.9,160.2 298.7,160.2 299.4,159.8 298.7,160.2 299.2,160.2 "/>
<polygon points="208.6,144.5 208.6,144.7 208.6,144.8 208.5,144.9 208.5,145 208.4,145 208.3,145.1 208.2,145.2 208.1,145.3 
	207.9,145.4 207.7,145.5 207.5,145.6 207.3,145.7 207,145.7 206.8,145.8 206.5,145.8 206.2,145.9 205.6,146 204.9,146 204.3,146.1 
	203.6,146.1 202.3,146.1 201.2,146.1 201.2,147.6 202.3,147.6 203.6,147.6 205,147.6 205.7,147.5 206.4,147.4 206.8,147.4 
	207.1,147.3 207.4,147.2 207.7,147.1 208,147 208.3,146.9 208.6,146.8 208.9,146.6 209.1,146.5 209.4,146.3 209.6,146 209.8,145.8 
	209.9,145.5 210.1,145.2 210.1,144.9 210.1,144.5 "/>
<polygon points="201.1,142.7 201.1,142.7 202.3,142.8 203.6,142.8 204.3,142.8 204.9,142.8 205.6,142.9 206.2,143 206.8,143.1 
	207,143.2 207.3,143.2 207.5,143.3 207.7,143.4 207.9,143.5 208,143.6 208.2,143.7 208.3,143.8 208.4,143.9 208.4,144 208.5,144.1 
	208.6,144.2 208.6,144.4 208.6,144.5 210.1,144.5 210.1,144.2 210,143.8 209.9,143.5 209.8,143.2 209.6,143 209.4,142.7 
	209.1,142.5 208.9,142.3 208.6,142.2 208.3,142 208,141.9 207.8,141.8 207.4,141.7 207.1,141.6 206.8,141.5 206.4,141.5 
	205.8,141.4 205,141.3 204.3,141.3 203.6,141.2 202.3,141.2 201.1,141.2 201.1,141.2 201.1,141.2 201.1,141.2 "/>
<polygon points="198,142 198.7,142.7 201.1,142.7 201.1,141.2 198.7,141.2 198,142 198.7,141.2 198,141.2 "/>
<polygon points="198.7,147.6 199.5,146.8 199.5,142 198,142 198,146.8 198.7,147.6 198,146.8 198,147.5 "/>
<polygon points="201.2,147.6 201.2,146.1 198.8,146 198.7,147.6 201.2,147.6 201.2,147.6 "/>
<polygon points="231.2,142.7 231.1,142.7 231.6,142.6 232.1,142.5 232.6,142.4 233,142.4 233.9,142.4 234.3,142.4 234.7,142.5 
	235.1,142.5 235.5,142.7 235.8,142.8 236.2,142.9 236.5,143.1 236.8,143.3 237.1,143.5 237.4,143.7 237.7,144 238,144.3 
	238.2,144.5 238.5,144.8 238.7,145.1 238.9,145.5 239.1,145.8 239.3,146.2 239.5,146.5 239.6,146.9 239.8,147.3 239.9,147.7 
	240,148.1 240.1,148.5 240.2,148.9 240.3,149.3 240.3,149.7 240.4,150.1 240.4,150.5 240.4,151 240.4,151.4 240.3,151.8 
	240.3,152.2 240.2,152.6 240.1,153 240,153.4 239.9,153.8 239.8,154.2 239.6,154.5 239.4,154.9 239.2,155.3 239,155.6 238.8,155.9 
	238.6,156.2 238.3,156.5 238,156.8 237.7,157 237.4,157.3 237.1,157.5 236.7,157.8 236.4,158 236,158.1 235.6,158.3 235.1,158.4 
	234.7,158.5 234.2,158.6 233.7,158.7 233.2,158.7 233.3,160.3 233.9,160.2 234.4,160.1 235,160 235.5,159.9 236.1,159.7 
	236.6,159.5 237,159.3 237.5,159.1 237.9,158.8 238.3,158.5 238.7,158.2 239.4,157.5 239.8,157.2 240,156.8 240.3,156.4 240.6,156 
	240.8,155.6 241,155.2 241.2,154.7 241.5,153.8 241.6,153.4 241.7,152.9 241.8,152.4 241.8,152 241.9,151.5 241.9,151 241.9,150 
	241.9,149.6 241.8,149.1 241.7,148.6 241.6,148.1 241.5,147.7 241.4,147.2 241.2,146.8 241.1,146.3 240.9,145.9 240.7,145.5 
	240.5,145.1 240.2,144.7 240,144.3 239.7,143.9 239.4,143.5 239.1,143.2 238.7,142.9 238.4,142.6 238,142.3 237.6,142 237.2,141.8 
	236.8,141.6 236.4,141.4 235.9,141.2 235.5,141.1 235,141 234.5,140.9 234,140.8 233.5,140.8 232.9,140.8 232.4,140.9 231.8,141 
	231.3,141.1 230.7,141.3 230.6,141.3 230.7,141.3 230.6,141.3 230.6,141.3 "/>
<polygon points="233.2,158.7 233.3,158.7 232.9,158.7 232.6,158.7 232.2,158.6 231.9,158.5 231.6,158.4 231.3,158.3 231,158.2 
	230.7,158 230.5,157.9 230.2,157.7 230,157.5 229.7,157.4 229.5,157.2 229.3,157 229.1,156.7 228.8,156.5 228.7,156.3 228.5,156 
	228.3,155.7 228.1,155.5 228,155.2 227.8,154.9 227.7,154.6 227.6,154.3 227.5,154 227.4,153.7 227.3,153.3 227.2,153 227.1,152.7 
	227,152.4 227,152 226.9,151.7 226.9,151.3 226.9,151 226.9,150.6 226.9,150.3 226.9,149.9 226.9,149.6 227,148.9 227.1,148.6 
	227.1,148.2 227.2,147.9 227.3,147.6 227.4,147.2 227.5,146.9 227.6,146.6 227.7,146.3 227.9,146 228,145.7 228.2,145.4 
	228.4,145.2 228.5,144.9 228.7,144.6 229.1,144.2 229.4,143.9 229.6,143.7 229.8,143.5 230.1,143.3 230.4,143.1 230.6,143 
	230.9,142.8 231.2,142.7 230.6,141.3 230.2,141.5 229.9,141.7 229.5,141.9 229.2,142.1 228.9,142.3 228.6,142.6 228.3,142.8 
	228,143.1 227.8,143.4 227.5,143.7 227.1,144.3 226.9,144.6 226.7,145 226.5,145.3 226.2,146 226,146.4 225.9,146.8 225.8,147.1 
	225.7,147.5 225.6,147.9 225.5,148.3 225.5,148.7 225.4,149.1 225.4,149.5 225.4,149.9 225.3,150.3 225.3,150.6 225.4,151 
	225.4,151.4 225.4,151.8 225.5,152.2 225.5,152.6 225.6,153 225.7,153.4 225.8,153.7 225.9,154.1 226,154.5 226.1,154.9 
	226.3,155.2 226.4,155.6 226.8,156.2 227,156.5 227.2,156.9 227.4,157.2 227.7,157.5 227.9,157.8 228.2,158 228.5,158.3 
	228.7,158.5 229,158.8 229.4,159 229.7,159.2 230,159.4 230.4,159.6 230.7,159.7 231.1,159.9 231.5,160 231.9,160.1 232.3,160.2 
	232.7,160.2 233.2,160.3 233.3,160.3 233.2,160.3 233.2,160.3 233.3,160.3 "/>
<polygon points="312.8,152.7 313.5,152.3 315.7,146.6 314.3,146.1 312.1,151.7 312.8,152.7 312.1,151.7 311.7,152.7 "/>
<polygon points="317.9,151.7 317.2,151.2 312.8,151.2 312.8,152.7 317.2,152.7 317.9,151.7 317.2,152.7 318.3,152.7 "/>
<polygon points="314.3,146.1 314.3,146.6 316.5,152.3 317.9,151.7 315.7,146.1 314.3,146.1 315.7,146.1 315,144.3 "/>
</svg>
