<?xml version="1.0" encoding="utf-8"?>
<!-- Generator: Adobe Illustrator 16.0.0, SVG Export Plug-In . SVG Version: 6.00 Build 0)  -->
<!DOCTYPE svg PUBLIC "-//W3C//DTD SVG 1.1//EN" "http://www.w3.org/Graphics/SVG/1.1/DTD/svg11.dtd">
<svg version="1.1" id="Layer_1" xmlns="http://www.w3.org/2000/svg" xmlns:xlink="http://www.w3.org/1999/xlink" x="0px" y="0px"
	 width="568.632px" height="533.48px" viewBox="0 0 568.632 533.48" enable-background="new 0 0 568.632 533.48"
	 xml:space="preserve">
<path d="M516.005,203.909c0,0-0.348-0.998-0.348-0.307c0-7.458-0.191-11.378,0-17.529c0-2.151,0.157-5.074,0-7.534
	c-1.267-0.461-5.074-2.385-4.342-2.154c-29.637-12.223-36.482-16.298-59.971-22.449c-50.74-13.685-110.591-19.221-159.874-19.376
	c11.724,0-136.238-6.379-225.267,36.827c-4.19,2.077-12.149,6.997-12.149,6.843c-0.345,1.692-1.036,3.922-1.036,3.998
	c-0.577,3.383-0.348,14.455-0.348,29.909c0,6.533,0,24.37,0.694,26.062c2.537,5.535,8.304,8.229,8.304,8.229
	c5.229,2.767,14.106,4.381,20.604,5.765c3.806,0.692,9.763,0.613,10.839,3.534c17.878,47.594,54.164,87.877,54.164,87.877
	c37.595,43.056,102.638,85.417,137.502,93.413c3.232,0.693,9.921-2.613,14.995-4.843c11.187-4.921,19.336-6.458,56.892-31.059
	c65.431-44.979,95.759-89.571,115.096-129.856c3.42-7.074,4.344-9.842,6.649-15.145c1.306-2.998,8.686-1.845,12.148-1.999
	c8.843-0.386,15.874-1.77,20.412-6.613c4.687-5,4.495-9.073,4.495-9.073c0.191-2.306,0.191-7.458,0.191-10.917
	C515.658,219.826,515.658,210.982,516.005,203.909 M492.365,241.353c-2.036,1.537-2.536,1.92-5.996,2.15
	c-2.693,0-2.307-0.766-2.502-1c0.692-3.612,2.154-6.61,3.229-10.222c-8.302-4.077-30.328-11.919-32.904-12.61
	c-1.384-0.461-1.384,0.616-2.153,0.691c-1.424,4.614-5.959,18.529-5.035,15.836c-5.422,16.456-22.602,55.435-52.395,87.573
	c-26.372,28.522-66.852,61.274-103.138,77.805c0-0.077-4.15,1.768-8.686,1.075c-8.115-1.152-20.416-7.531-41.365-22.449
	c-20.259-14.223-46.785-35.058-74.421-67.039c-31.255-35.985-45.748-86.189-48.976-95.645c-3.267,0.462-5.42,1.077-8.112,2.154
	c0,0-18.8,7.536-25.485,10.687c0.345,3.996,1.267,5.766,2.152,8.995c-1.807,0.23-3.768,0.382-6.845-0.306
	c-0.882-0.234-1.958-0.54-2.497-1c-7.419-6,8.842-11.456,19.875-16.147c43.516-18.374,107.79-30.138,186.401-30.213
	c65.196,0,111.632,8.764,170.679,25.139c13.224,3.614,24.797,8.764,31.48,11.379C495.208,231.972,496.86,237.738,492.365,241.353
	 M496.324,195.145l-0.539-0.307c-2.536-1-1.963-8.996-5.805-10.61c-1.957-0.846-2.496,0.923-2.496,3.075
	c0,6.305,10.3,11.378,10.3,24.91c0,7.304-3.613,12.454-8.839,10.226c-2.385-0.923-4.194-3.69-5.078-4.152
	c-0.727-0.308-1.267,0.231-1.457,0.614l-1.424-0.614v-12.762l0.884,0.383c2.346,1,1.424,9.148,5.957,11.071
	c1.811,0.769,3.077-0.537,3.077-3.613c0-8.38-9.918-11.224-9.918-24.295c0-7.304,2.881-12.07,7.537-10.072
	c3.071,1.229,3.995,3.306,5.299,3.845c0.157,0.154,0.888,0.23,1.386-0.462l1.116,0.462V195.145z M460.878,176.924
	c0-1.538-0.151-1.845-1.035-2.846c-0.771-0.922-0.922-1.306-0.922-2.767v-2.23l12.301,4.229c1.959,0.691,4.112,1.153,5.226,0.999
	v12.917l-1.113-0.385c-1.231-0.461-0.884-7.304-4.112-8.456l-2.885-1.077v12.149l0.884,0.307c2.346,0.846,1.422-3.614,2.885-3.075
	l1.075,0.307v13.301l-1.075-0.308c-1.463-0.538-0.539-4.381-2.885-5.15l-0.884-0.385v14.532l3.229,1.153
	c4.345,1.538,3.075-7.843,5.077-7.151l1.075,0.385v13.916l-18.798-6.535v-2.307c0-1.46,0.151-1.614,0.922-1.998
	c0.884-0.462,1.035-0.616,1.035-2.154V176.924z M449.731,207.908l-2.188-13.531c-0.885-5.152-1.464-6.383-2.154-6.614l-0.536-0.152
	v11.685c0,1.538,0.152,1.845,0.885,2.767c0.921,0.923,1.073,1.232,1.073,2.691v2.306l-11.377-3.459v-2.23
	c0-1.538,0.191-1.69,0.922-2.075c0.884-0.461,1.074-0.692,1.074-2.229v-27.37c0-1.539-0.19-1.845-1.074-2.768
	c-0.73-0.922-0.922-1.231-0.922-2.767v-2.23l13.53,4.075c4.88,1.46,6.537,8.149,6.537,12.147c0,8.074-4.348,8.226-6.884,7.919v0.307
	c4.537,2.384,4.882,3.844,5.421,7.381c1.075,5.689,1.614,9.764,2.881,11.456c0.539,0.846,1.118,1.152,1.118,2.075v3.077
	L449.731,207.908z M444.853,182.153l0.885,0.23c1.266,0.385,2.345-0.385,2.345-5.767c0-4.92-1.271-6.227-2.345-6.612l-0.885-0.307
	V182.153z M428.588,167.082c0-1.614-0.191-1.921-1.113-2.844c-0.692-0.846-0.884-1.152-0.884-2.613v-2.229l6.535,1.69v2.229
	c0,1.46-0.23,1.614-0.922,2.152c-0.732,0.462-0.923,0.693-0.923,2.23v23.218c0,5.613-0.73,11.995-8.302,10.072
	c-6.535-1.615-8.498-5.689-8.498-13.608v-23.91c0-1.539-0.19-1.846-1.075-2.768c-0.73-0.846-1.078-1.155-1.078-2.615v-2.229
	l11.533,2.845v2.23c0,1.536-0.346,1.691-1.078,2.152c-0.882,0.538-1.075,0.692-1.075,2.229v24.372c0,4.151,0.884,6.227,3.46,6.843
	c2.498,0.615,3.42-0.922,3.42-5.997V167.082z M394.8,194.299v-2.229c0-1.537,0.153-1.691,1.075-2.152
	c0.692-0.54,0.884-0.771,0.884-2.306v-29.523l-1.035-0.231c-2.576-0.615-1.808,6.612-3.613,6.227l-0.922-0.231v-12.915
	c0.922,0.461,1.611,0.922,2.533,1.306c0.887,0.309,2.002,0.616,3.424,0.923l6.688,1.538c1.461,0.307,2.498,0.461,3.42,0.538
	c1.075,0.154,1.806,0.079,2.693,0v12.917l-1.039-0.231c-1.808-0.461-0.924-7.303-3.613-7.919l-1.117-0.231v29.523
	c0,1.539,0.195,1.769,1.117,2.768c0.692,0.77,0.884,1.077,0.884,2.539v2.305L394.8,194.299z M388.265,165.853l-1.267-0.23
	c-0.696-0.155-0.696-1.308-1.809-6.075c-0.693-3.997-1.614-5.074-2.847-5.304c-2.188-0.385-3.803,4.229-3.803,15.377
	c0,11.531,1.422,17.068,4.151,17.605c2.689,0.461,3.768-3.614,4.15-7.841l2.193,1.845c0,8.533-3.269,12.07-8.15,11.069
	c-6.844-1.229-10.688-11.378-10.688-23.602c0-12.148,3.844-20.912,9.265-19.989c2.653,0.537,4.69,3.304,5.919,3.535
	c1.27,0.23,1.27-0.768,1.461-0.691l1.423,0.23V165.853z M356.859,188.38v-2.307c0-1.538,0.155-1.69,0.922-2.23
	c0.884-0.537,1.039-0.768,1.039-2.306v-27.37c0-1.538-0.155-1.844-1.039-2.691c-0.767-0.768-0.922-1.077-0.922-2.537v-2.306
	l11.378,1.845v2.306c0,1.46-0.192,1.69-1.114,2.152c-0.691,0.615-0.845,0.846-0.845,2.385v27.37c0,1.538,0.153,1.844,0.845,2.69
	c0.922,0.769,1.114,0.999,1.114,2.537v2.229L356.859,188.38z M345.135,180.153c0,1.538,0.151,1.844,1.075,2.615
	c0.691,0.768,1.075,0.999,1.075,2.537v2.228l-11.569-1.305v-2.23c0-1.538,0.19-1.769,1.078-2.306
	c0.882-0.615,1.075-0.846,1.075-2.384v-27.371c0-1.538-0.193-1.844-1.075-2.614c-0.888-0.768-1.078-0.999-1.078-2.537v-2.229
	l11.725,1.385c5.649,0.614,7.804,6.919,7.804,13.607c0,9.15-4.384,11.84-8.495,11.379l-1.614-0.152V180.153z M345.135,165.698
	l0.691,0.154c1.268,0.077,2.189-1.384,2.189-7.689c0-6.15-1.114-7.379-2.381-7.455l-0.5-0.079V165.698z M314.573,179.076
	c0-3.383,1.461-5.841,3.267-5.766c1.769,0.154,3.229,2.844,3.229,6.227c0,3.462-1.461,5.92-3.229,5.844
	C316.034,185.227,314.573,182.614,314.573,179.076 M311.304,155.011l-0.687-0.076c-2.389-0.077-1.812-8.302-5.809-8.457
	c-1.808-0.076-2.498,1.921-2.498,4.075c0,6.305,10.456,7.459,10.456,20.988c0,7.382-3.768,13.839-8.842,13.609
	c-2.346-0.077-4.151-2.23-5.035-2.306c-0.923,0-1.27,0.691-1.463,1.152l-1.614-0.076v-12.687h1.079
	c2.343,0.077,1.419,8.611,5.763,8.842c1.81,0.152,3.268-1.692,3.268-4.767c0-8.381-9.952-7.458-9.952-20.605
	c0-7.304,2.92-13.147,7.61-12.917c3.037,0.154,3.959,1.845,5.226,1.923c0.193,0,0.692-0.154,1.271-1.001h1.227V155.011z
	 M281.707,140.944c7.228,0,11.184,9.609,11.184,21.68c0,12.146-3.956,21.68-11.184,21.68c-7.379,0-11.227-9.534-11.227-21.68
	C270.48,150.553,274.328,140.944,281.707,140.944 M281.707,179.616c1.959,0,2.881-3.614,2.881-16.991
	c0-13.302-0.922-16.992-2.881-16.992c-2.154,0-2.924,3.69-2.924,16.992C278.783,176.002,279.553,179.616,281.707,179.616
	 M261.293,183.997l-2.383-12.686c-0.846-4.921-1.383-5.92-2.154-5.92l-0.5,0.076v11.609c0,1.539,0.155,1.847,1.039,2.46
	c0.769,0.616,0.923,0.846,0.923,2.385v2.229l-11.378,0.462v-2.23c0-1.462,0.191-1.692,1.113-2.384c0.695-0.769,0.886-1,0.886-2.614
	v-27.37c0-1.538-0.191-1.769-0.886-2.384c-0.922-0.692-1.113-0.923-1.113-2.385v-2.228l13.531-0.616
	c5.074-0.231,6.497,5.92,6.497,9.919c0,8.148-4.308,9.764-6.842,10.302v0.23c4.688,0.847,4.879,2.152,5.572,5.535
	c1.115,5.229,1.461,9.227,2.732,10.456c0.765,0.616,1.267,0.691,1.267,1.693v3.074L261.293,183.997z M256.257,159.933l0.886-0.077
	c1.268,0,2.345-1.153,2.345-6.535c0-4.922-1.268-5.844-2.345-5.766h-0.886V159.933z M225.698,151.091
	c0-1.538-0.193-1.769-1.077-2.46c-0.729-0.538-1.077-0.769-1.077-2.228v-2.23l13.532-1.307c3.613-0.307,6.344,3.229,6.344,9.071
	c0,5.845-2.922,9.458-5.576,9.688v0.462c3.422,0.076,6.458,2.613,6.458,10.146c0,8.074-3.036,11.918-7.766,12.38l-12.993,1.153
	v-2.23c0-1.462,0.348-1.769,1.077-2.46c0.884-0.847,1.077-1.077,1.077-2.615V151.091z M232.964,179.922h0.498
	c1.809-0.231,3.075-2,3.075-7.227c0-5.229-1.266-6.766-3.075-6.612l-0.498,0.077V179.922z M232.964,160.317l0.498-0.078
	c1.461-0.152,2.345-1.845,2.345-6.151c0-4.458-0.884-5.996-2.345-5.842h-0.498V160.317z M202.057,187.918l-2.385-12.456
	c-0.884-4.843-1.459-5.842-2.154-5.765l-0.536,0.076v11.687c0,1.539,0.191,1.691,1.075,2.307c0.731,0.615,1.077,0.768,1.077,2.229
	v2.307l-11.532,1.614v-2.306c0-1.462,0.153-1.769,1.077-2.537c0.729-0.846,0.882-1.077,0.882-2.615v-27.37
	c0-1.539-0.153-1.769-0.882-2.385c-0.924-0.538-1.077-0.769-1.077-2.228v-2.308l13.533-1.845c5.034-0.613,6.494,5.382,6.494,9.379
	c0,8.15-4.342,10.149-6.842,10.841v0.385c4.537,0.308,4.881,1.691,5.576,4.998c1.115,5.15,1.458,9.072,2.727,10.226
	c0.693,0.538,1.27,0.538,1.27,1.538v3.075L202.057,187.918z M196.983,164.314l0.884-0.152c1.268-0.154,2.383-1.462,2.383-6.766
	c0-4.922-1.115-5.766-2.383-5.613l-0.884,0.153V164.314z M168.612,158.856c0-1.537-0.193-1.691-1.077-2.307
	c-0.73-0.537-1.075-0.691-1.075-2.152v-2.306l12.492-2.23c1.77-0.385,3.923-1.152,5.036-1.769v12.841l-1.113,0.23
	c-1.077,0.153-0.693-6.92-4.154-6.305l-2.883,0.538v12.147l0.886-0.152c2.383-0.462,1.654-4.46,2.92-4.767l1.077-0.155v13.302
	l-1.077,0.231c-1.266,0.23-0.538-4.075-2.92-3.613l-0.886,0.154v14.529l3.462-0.614c4.306-0.846,3.074-9.457,4.881-9.842l1.038-0.23
	v13.993l-18.758,3.383v-2.229c0-1.539,0.345-1.769,1.075-2.615c0.884-0.845,1.077-1.153,1.077-2.689V158.856z M159.578,182.768
	L159.578,182.768V160.24c0-1.46-0.155-1.767-0.923-2.228c-0.846-0.462-1.037-0.616-1.037-2.154v-2.23l6.688-1.536v2.228
	c0,1.539-0.193,1.769-0.923,2.615c-0.882,0.922-1.113,1.153-1.113,2.767v34.521l-7.037,1.614l-7.379-26.832v0.155v21.219
	c0,1.539,0.191,1.691,0.886,2.306c0.921,0.462,1.113,0.616,1.113,2.154v2.229l-6.88,1.538v-2.306c0-1.46,0.346-1.769,1.075-2.613
	c0.923-0.924,1.079-1.155,1.079-2.691v-27.371c0-1.536-0.155-1.767-1.079-2.306c-0.729-0.462-1.075-0.614-1.075-2.152v-2.229
	l9.034-2.076L159.578,182.768z M133.748,201.372l-2.349-12.225c-0.884-4.688-1.421-5.611-2.188-5.38l-0.5,0.154v11.686
	c0,1.538,0.153,1.69,1.075,2.152c0.729,0.461,0.884,0.615,0.884,2.154v2.229l-11.378,3.152v-2.23c0-1.462,0.195-1.845,1.117-2.691
	c0.69-0.923,1.077-1.231,1.077-2.767v-27.372c0-1.537-0.386-1.768-1.077-2.229c-0.922-0.463-1.117-0.615-1.117-2.154v-2.229
	l13.532-3.767c5.112-1.383,6.498,4.458,6.498,8.458c0,8.071-4.308,10.762-6.844,11.915v0.231c4.69-0.231,4.881,1.077,5.613,4.229
	c1.075,4.998,1.458,8.918,2.69,9.841c0.73,0.54,1.268,0.461,1.268,1.384v3.152L133.748,201.372z M128.711,178.46l0.922-0.307
	c1.232-0.385,2.307-1.769,2.307-7.149c0-4.844-1.27-5.537-2.307-5.228l-0.922,0.23V178.46z M100.878,200.526
	c-0.345,1.847-0.538,3.23-0.538,4.229c0,2.922,1.999,1.231,1.999,2.846v4.306l-8.305,3.381l0.848-5.228
	c0-1.922,1.652-0.614,2.576-5.689l5.227-27.294c0.155-0.844,0.347-1.69,0.347-2.306c0-0.922-0.347-1.69-0.347-2.458
	c0-0.54,0.347-0.924,3.076-3.383c2.307-2,2.881-2.46,3.229-2.539c0.193-0.076,0.384,0.078,0.384,0.616l5.96,31.522
	c0.689,4.075,2.498,2.537,2.498,4.152v3.306l-12.071,3.921v-3.152c0-2.075,2.307-1.538,2.307-4.229c0-1.306-0.348-2.152-0.501-4.151
	L100.878,200.526z M101.801,194.991l4.881-1.538l-2.383-12.762L101.801,194.991z M79.733,188.61l-0.689-3.536
	c-0.424-2.384-1.115-1.384-1.115-2.769v-3.075l10.455-4.381v2.689c0,2.229-1.806,2.229-1.806,4.69c0,0.923,0.422,2,0.576,3.307
	l2.154,14.53v-0.077l2.498-17.375c0.229-1.154,0.424-2.075,0.424-2.615c0-2.614-1.652-1.075-1.652-3.229v-2.844l5.956-2.539v3
	c0,2.152-1.077,1.154-1.806,5.229l-5.42,37.44l-4.69,2l-3.613-23.219h-0.193l-3.958,27.371l-3.96,2.381l-5.229-34.365
	c-0.576-4.075-1.999-1.692-1.999-3.537v-3.305l10.302-4.306v3.229c0,0.999-1.308,1.614-1.308,3.535c0,0.462,0,1.231,0.193,2.385
	l2.152,15.223h0.231L79.733,188.61z"/>
<path d="M253.336,195.837c6.498-0.384,17.528-0.154,22.602,0.307c0,33.83-0.193,62.737-0.193,93.413
	c0,20.757-0.73,44.054-0.73,62.354c-0.191,7.071,0.923,13.686-0.191,20.678c-0.345,1.231-1.036,4.076-3.072,4.612
	c-3.229,0.927-12.265-9.071-14.225-11.145c-18.067-19.375-31.253-41.054-42.479-67.428c-3.998-9.453-8.303-18.682-11.917-28.213
	c-1.997-5.156-3.651-10.917-6.496-15.302c-5.114,4.537-12.993,35.828-25.14,24.753c-5.229-4.686-9.919-11.912-13.878-19.371
	c-6.882-13.071-13.955-32.139-17.914-44.362c-0.498-1.69-0.729-3.152-1.268-4.458c11.034-3.383,23.488-6.228,35.444-7.842
	c1.23,3.69,2.153,6.996,3.575,10.379c0.729,1.614,1.459,4.919,3.958,4.612c0.923-0.076,2.729-1.69,3.269-2.152
	c6.151-3.922,4.19-9.227,3.653-15.147c11.339-1.692,28.522-4.15,38.286-3.613c2.307,15.453,7.957,46.896,10.109,49.667
	c0.923-5.612,1.077-17.991,0.923-24.988c-0.23-9.61-0.23-20.373,0-25.755C242.535,196.144,248.993,195.992,253.336,195.837"/>
<path d="M294.543,195.992c42.442,0.538,110.557,11.3,123.015,15.836c-0.922-0.307,1.423,1.77,1.806,2.847
	c3.269,8.534,2.498,17.606,0,25.757c-15.721,54.431-66.504,104.866-116.518,134.082c-2.881,1.691-4.344,3.075-8.11,2.383
	c-2.189-1.307-2.381-3.538-2.381-19.298c0-16.453,0.73-44.282,0.343-63.042c-0.343-29.297,0-73.886-0.151-92.645
	C292.546,195.914,293.813,195.914,294.543,195.992 M357.053,215.288c-7.074,0.079-24.566,6.537-24.95,11.764
	c0.539-8.458-1.079,73.961-1.23,84.11c5.229-5.46,11.188-12.071,16.608-17.914c9.185-9.843,40.245-41.363,31.251-66.04
	C375.812,219.517,368.275,215.057,357.053,215.288"/>
<path d="M157.964,94.66c4.881,0.23,4.342,10.379,4.537,15.146c0,8.381,0,20.527,0.345,28.984
	c-11.377,2.767-22.949,4.459-34.675,7.15c-0.574-7.073-2.035-31.215,1.27-35.904c3.191-4.999,9.917-8.766,15.686-11.457
	C148.2,97.044,153.276,94.505,157.964,94.66"/>
<path d="M217.047,66.981c3.269-0.077,4.499,0.078,4.499,6.073c0,13.686-0.193,43.054,0.576,59.278
	c-3.265,0.383-7.457,0.769-11.761,1.075c-8.496,0.615-17.53,1.769-25.833,2.846c-0.193-0.616-0.347-0.231-1.115-0.308
	c-1.077-13.763-0.693-25.679-0.347-40.901c0.191-5.92,0-13.454,1.806-17.146C187.025,73.364,209.285,67.136,217.047,66.981"/>
<path d="M324.529,58.833c48.978,9.531,96.488,38.748,107.479,52.432c6.501,8.074,12.306,22.527,7.768,36.059
	c-14.299-3.229-27.483-5.919-41.556-7.995c-0.151-3.076-0.151-5.768-1.614-8.92c-7.07-13.531-24.218-22.526-42.094-29.676
	c-3.96-1.614-15.339-5.766-20.411-5.535c-0.384,0.076-1.614,0.076-1.423,2.152c-0.191,5.844-0.191,27.139-0.191,34.982
	c-12.302-0.77-26.37-1.152-38.865-1.539c-0.345-9.533,0.191-52.203,0-61.659c-0.153-8.381,0-6.075,0-9.149
	C293.622,53.296,297.967,53.605,324.529,58.833"/>
<path d="M269.253,55.219c3.42-0.23,6.492-0.154,7.379,2.076c1.267,2.998,0.345,8.533,0.345,12.225
	c0,11.609-0.153,24.294-0.345,35.366c0,8.842,0.576,21.143,0,25.833c-11.918,0-24.18,0.769-36.829,0.769
	c-0.191-8.15,0.193-21.067,0-29.292c0-4.689,0.193-26.678,0.193-32.829c-0.193-2.846,0-5.996,0.846-8.073
	C243.226,56.524,261.64,55.757,269.253,55.219"/>
<path d="M286.782,0.018c6.84-0.231,17.491,1.844,25.793,3.076c16.262,2.383,32.021,4.306,47.359,6.918
	c10.495,1.769,19.337,2.844,28.91,4.613c3.611,0.691,7.57,1.153,10.261,2.69c8.341,4.843,4.385,20.22,14.146,23.834
	c7.728,2.844,26.717,2.613,34.102,5.996c7.07,3.152,1.612,15.608,9.567,18.222c3.077,1.077,6.344,1,9.768,1.231
	c6.686,0.538,31.636,2.613,34.329,6.842c1.612,2.768,1.806,10.072,1.957,16.607c0.191,14.914,1.306,37.673-0.345,53.356
	c-0.882,8.534-1.27,16.76-2.691,24.525c-6.688-2.921-12.993-5.765-19.337-8.071c-5.801-2.075-11.184-3.768-16.988-5.689
	c0.382-5.382,0.922-13.071,1.266-19.683c0.349-5.996,0.73-10.456,1.115-17.451c0.348-7.075,1.27-17.837-0.767-20.759
	c-2.502-3.921-22.026-4.458-29.253-4.998c-3.422-0.231-8.115,0.079-10.648-1.077c-4.691-1.998-3.269-16.914-8.497-20.373
	c-2.346-1.615-5.614-1.385-9.034-1.615c-7.958-0.461-26.023,0.538-29.292-4.46c-1.963-2.691-3.769-11.531-5.035-14.993
	c-1.231-3.305-2.153-5.228-5.422-6.457c-1.613-0.616-3.076-1-4.882-1.384c-8.65-1.693-18.066-3.076-27.446-4.613
	c-14.647-2.384-29.255-5.689-45.169-6.842c-16.759-1.155-39.709,3.92-57.085,6.457c-7.957,1.154-15.147,2.307-22.564,3.614
	c-3.806,0.616-7.574,1.153-10.648,2.613c-8.305,3.999-4.344,20.76-13.531,23.758c-6.153,1.997-17.376,1.229-23.874,1.459
	c-3.613,0.077-7.225,0-9.764,1.077c-6.496,2.691-3.959,19.144-9.571,20.682c-2.92,0.769-6.496,0.844-9.571,1.075
	c-7.035,0.616-27.256,0.924-30.176,5.382c-2.538,4.075-1.077,22.526-0.691,27.985c0.343,4.229,1.229,16.224,1.613,28.446
	c-7.226,2.385-15.03,4.614-22.22,7.535c-6.151,2.308-10.11,4.46-13.954,6.229c-3.036-28.908-2.844-59.815-2.152-80.421
	c0-3.996,0.345-10.608,1.461-12.301c2.535-4.305,27.831-6.611,34.479-7.148c3.615-0.309,6.883,0.307,10.112-0.692
	c6.88-2.076,2.922-14.377,8.15-17.915c9.032-5.996,27.831-2.767,37.056-8.15c6.496-3.844,4.883-17.452,11.188-21.834
	c4.497-2.998,16.453-3.69,24.025-4.998c16.991-2.998,33.945-5.073,51.666-7.458C257.104,3.093,275.403,0.402,286.782,0.018"/>
<path d="M26.468,517.203c0.366,1.174,0.611,2.152,1.075,2.152c0.44,0,0.685-0.39,0.832-0.686l7.966-16.913
	c0.562-1.171,1.246-2.442,1.246-3.028c0-0.734-0.829-2.64-1.246-3.86l-3.787-11.049c-1.296-3.568-5.231-2.199-5.231-4.154
	c0-0.929,1.052-1.221,1.564-1.221c1.223,0,2.763,0.292,7.454,0.292c6.721,0,7.846-0.292,9.067-0.292
	c0.685,0,1.759,0.146,1.759,0.978c0,2.345-4.252,1.513-4.252,4.251c0,0.686,0.294,1.907,0.904,3.813l8.823,26.638
	c0.685,2.102,1.051,4.057,1.834,4.057c0.292,0,0.756-1.416,1.638-3.959l7.794-22.483c0.587-1.761,0.758-4.252,0.758-5.817
	c0-5.864-7.014-4.008-7.014-6.061c0-0.928,0.391-1.416,1.907-1.416c0.806,0,3.788,0.292,6.232,0.292c5.009,0,5.62-0.292,7.16-0.292
	c0.611,0,1.368,0.047,1.368,0.927c0,1.81-2.346,0.343-4.252,5.477l-17.133,47.118c-0.365,1.075-0.684,1.515-1.587,1.515
	c-0.978,0-1.271-0.586-1.907-2.247l-9.726-26.836c-0.147-0.39-0.318-0.586-0.612-0.586c-0.39,0-0.513,0.343-0.636,0.586
	L25.49,531.966c-0.391,1.075-0.685,1.515-1.637,1.515c-0.953,0-1.271-0.586-1.857-2.247L5.254,483.819
	C3.934,480.251,0,481.62,0,479.665c0-0.929,1.075-1.221,1.588-1.221c1.222,0,2.737,0.292,7.454,0.292
	c6.697,0,7.846-0.292,9.068-0.292c0.685,0,1.759,0.146,1.759,0.978c0,2.345-4.302,1.513-4.302,4.251
	c0,0.686,0.342,1.907,0.929,3.813L26.468,517.203z"/>
<path d="M84.12,509.48c-1.368,0-2.42,0.049-2.42-0.684c0-1.075,0.44-1.906,0.832-2.835l5.865-13.44
	c0.367-0.881,0.66-0.931,0.832-0.931c0.365,0,0.17,0,0.611,0.588l6.232,13.783c0.366,0.929,0.831,1.76,0.831,2.835
	c0,0.732-1.051,0.684-2.421,0.684H84.12z M96.828,513.586c1.981,0,2.346,0.734,4.865,6.696c0.83,2.055,1.368,3.424,1.368,5.083
	c0,4.646-5.377,3.813-5.377,6.014c0,1.026,0.977,0.928,2.347,0.928c2.199,0,5.009-0.341,8.358-0.341c5.01,0,7.063,0.341,9.8,0.341
	c2.053,0,2.762,0.099,2.762-1.173c0-2.491-4.13,0.442-6.55-4.937l-20.554-46.532c-0.978-2.298-1.125-2.444-1.809-2.444
	c-1.001,0-1.368,1.467-1.905,2.689L69.53,525.904c-1.907,4.252-5.791,3.813-5.791,5.523c0,0.978,1.221,0.879,2.272,0.879
	c2.2,0,4.447-0.341,6.697-0.341c2.443,0,4.717,0.341,7.161,0.341c1.587,0,3.934,0.539,3.934-1.073c0-2.055-8.212-0.881-8.212-6.307
	c0-1.857,1.076-4.497,1.613-6.061c1.735-4.986,3.324-5.28,4.62-5.28H96.828z"/>
<path d="M138.205,486.264c0-4.595,2.371-4.595,5.156-4.595c7.699,0,11.952,5.67,11.952,13.1c0,4.497-0.464,8.751-12.025,8.751
	c-2.273,0-5.083,0-5.083-1.909V486.264z M128.845,521.456c0,9.631-6.135,7.088-6.135,9.532c0,1.515,1.565,1.318,2.421,1.318
	c3.787,0,7.601-0.341,11.681-0.341c3.227,0,5.256,0.341,6.55,0.341c1.761,0,2.371-0.487,2.371-1.173
	c0-2.736-7.527,0.392-7.527-7.771v-13.1c0-2.689-0.463-3.228,3.592-3.228c3.764,0,5.158,0.686,6.917,4.011l6.378,12.022
	c2.347,4.399,4.79,9.237,10.802,9.237c3.055,0,8.064-1.708,8.064-4.055c0-0.636-0.462-1.077-1.147-1.077
	c-0.757,0-1.515,0.441-2.298,0.441c-0.586,0-2.053,0-2.713-1.174c-5.474-9.58-11.951-20.627-11.951-21.067
	c0-0.782,2.2-1.466,4.424-3.225c2.2-1.81,4.398-4.646,4.398-9.483c0-3.521-1.54-14.223-18.183-14.223
	c-5.108,0-10.24,0.292-15.349,0.292c-4.813,0-5.4-0.292-8.919-0.292c-0.905,0-1.686,0.39-1.686,1.123
	c0,2.736,8.309-0.049,8.309,8.455V521.456z"/>
<path d="M182.171,493.01c0-14.565-8.53-9.629-8.53-13.296c0-0.684,0.393-1.27,1.295-1.27c1.443,0,2.836,0.292,4.253,0.292
	c2.004,0,3.959-0.292,7.991-0.292c2.421,0,1.515,0.488,2.908,1.955l30.575,33.578c0.978,1.075,1.907,1.956,2.347,1.956
	c0.463,0,0.61-0.881,0.61-2.785v-25.37c0-6.891-9.286-5.522-9.286-8.064c0-0.537,0.245-1.27,1.246-1.27
	c1.198,0,3.398,0.292,8.651,0.292c4.791,0,7.43-0.292,8.139-0.292c1.441,0,1.441,0.732,1.441,0.978c0,2.296-6.478,0.488-6.478,8.454
	v42.623c0,1.712,0,2.347-0.902,2.347c-1.075,0-1.443-0.488-2.004-1.077l-36.562-39.541c-0.512-0.637-0.978-1.027-1.369-1.027
	c-0.44,0-0.586,0.538-0.586,1.222v25.858c0,14.614,9.727,9.432,9.727,13.051c0,1.026-1.905,0.976-2.908,0.976
	c-3.69,0-6.281-0.341-8.994-0.341c-2.421,0-4.474,0.341-6.526,0.341c-0.83,0-2.345,0.343-2.345-0.928
	c0-3.079,7.307-1.661,7.307-9.434V493.01z"/>
<path d="M252.655,497.994c0,3.273,0,3.763,3.299,3.763h4.791c6.526,0,6.768-6.988,8.285-6.988c0.536,0,1.369-0.146,1.416,1.905
	l0.563,13.541c0.074,0.978,0.512,3.763-1.27,3.763c-2.468,0-0.343-8.113-8.236-8.113h-5.646c-3.471,0-3.202,0.929-3.202,5.328v9.775
	c0,4.693-0.269,7.479,5.182,7.479c18.866,0,17.792-10.021,20.699-10.021c0.294,0,0.832,0.244,0.832,1.71
	c0,5.915-4.474,12.122-10.704,12.122c-11.559,0-16.13-0.292-19.918-0.292c-2.37,0-5.597,0.292-9.777,0.292
	c-0.978,0-1.418-0.341-1.418-0.781c0-3.52,5.769,0.588,5.769-8.701v-35.583c0-6.844-8.604-4.448-8.604-7.479
	c0-0.684,0.611-1.27,1.687-1.27c3.13,0,8.581,0.292,20.212,0.292c5.426,0,10.657-0.292,17.376-0.292c0.978,0,1.515,0.78,1.515,1.416
	l0.294,7.527c0.072,0.978,0.465,3.521-1.295,3.521c-3.568,0,2.37-8.896-12.342-8.896c-9.166,0-9.508,0.049-9.508,5.327V497.994z"/>
<path d="M297.478,486.264c0-4.595,2.345-4.595,5.181-4.595c7.697,0,11.95,5.67,11.95,13.1c0,4.497-0.465,8.751-12.048,8.751
	c-2.272,0-5.083,0-5.083-1.909V486.264z M288.116,521.456c0,9.631-6.158,7.088-6.158,9.532c0,1.515,1.612,1.318,2.444,1.318
	c3.788,0,7.602-0.341,11.707-0.341c3.202,0,5.255,0.341,6.55,0.341c1.735,0,2.347-0.487,2.347-1.173
	c0-2.736-7.527,0.392-7.527-7.771v-13.1c0-2.689-0.441-3.228,3.568-3.228c3.812,0,5.179,0.686,6.916,4.011l6.403,12.022
	c2.37,4.399,4.787,9.237,10.802,9.237c3.054,0,8.064-1.708,8.064-4.055c0-0.636-0.464-1.077-1.147-1.077
	c-0.759,0-1.517,0.441-2.298,0.441c-0.588,0-2.029,0-2.715-1.174c-5.498-9.58-11.95-20.627-11.95-21.067
	c0-0.782,2.2-1.466,4.425-3.225c2.198-1.81,4.397-4.646,4.397-9.483c0-3.521-1.514-14.223-18.183-14.223
	c-5.083,0-10.264,0.292-15.372,0.292c-4.764,0-5.377-0.292-8.872-0.292c-0.929,0-1.685,0.39-1.685,1.123
	c0,2.736,8.283-0.049,8.283,8.455V521.456z"/>
<path d="M369.352,488.953c0-4.351,0.173-7.235,5.33-7.235c6.77,0,12.389,4.838,12.389,11.877c0,5.571-2.197,8.505-7.966,8.505h-4.57
	c-4.423-0.343-5.183-0.586-5.183-4.35V488.953z M360.017,523.217c0,7.429-6.575,5.327-6.575,7.87c0,1.073,0.783,1.22,2.519,1.22
	c1.587,0,3.567-0.341,5.426-0.341c3.763,0,7.576,0.341,18.917,0.341c12.414,0,19.429-6.548,19.429-16.619
	c0-6.793-2.907-10.898-12.197-13.292v-0.15c5.402-1.758,8.287-5.911,8.287-10.752c0-1.808-0.074-13.049-18.723-13.049
	c-6.353,0-12.83,0.292-19.329,0.292c-3.471,0-3.985-0.292-4.546-0.292c-0.368,0-1.271-0.1-1.271,1.17
	c0,3.668,8.063-0.488,8.063,10.021V523.217z M369.352,511.339c0-3.911,0.173-5.815,4.645-5.815c13.834,0,16.033,6.842,16.033,11.388
	c0,7.381-3.862,12.318-11.315,12.318c-7.407,0-9.362-2.102-9.362-9.337V511.339z"/>
<path d="M418.795,486.264c0-4.595,2.347-4.595,5.181-4.595c7.649,0,11.95,5.67,11.95,13.1c0,4.497-0.489,8.751-12.022,8.751
	c-2.298,0-5.108,0-5.108-1.909V486.264z M409.435,521.456c0,9.631-6.158,7.088-6.158,9.532c0,1.515,1.612,1.318,2.444,1.318
	c3.786,0,7.623-0.341,11.705-0.341c3.201,0,5.254,0.341,6.55,0.341c1.759,0,2.347-0.487,2.347-1.173
	c0-2.736-7.527,0.392-7.527-7.771v-13.1c0-2.689-0.442-3.228,3.591-3.228c3.788,0,5.181,0.686,6.893,4.011l6.404,12.022
	c2.37,4.399,4.791,9.237,10.801,9.237c3.054,0,8.065-1.708,8.065-4.055c0-0.636-0.464-1.077-1.147-1.077
	c-0.76,0-1.517,0.441-2.272,0.441c-0.589,0-2.055,0-2.764-1.174c-5.475-9.58-11.927-20.627-11.927-21.067
	c0-0.782,2.226-1.466,4.425-3.225c2.2-1.81,4.397-4.646,4.397-9.483c0-3.521-1.514-14.223-18.183-14.223
	c-5.083,0-10.264,0.292-15.372,0.292c-4.767,0-5.376-0.292-8.872-0.292c-0.927,0-1.687,0.39-1.687,1.123
	c0,2.736,8.287-0.049,8.287,8.455V521.456z"/>
<path d="M465.035,502.736c0-10.998,3.813-21.459,16.666-21.702c9.776-0.196,19.088,8.651,19.088,25.467
	c0,12.61-4.275,22.824-17.327,23.021C469.847,529.767,465.035,513.88,465.035,502.736 M455.674,507.136
	c0,15.396,10.288,25.659,25.588,25.659c24.243,0,28.863-18.62,28.863-29.275c0-16.132-11.315-25.907-26.152-25.761
	C465.816,477.906,455.674,490.467,455.674,507.136"/>
<path d="M515.16,516.667c-0.243-1.026-0.978-3.227,0.905-3.227c1.22,0,1.392,0.684,1.686,1.661
	c2.42,7.284,7.161,14.224,15.592,14.224c5.938,0,10.51-3.664,10.51-9.725c0-6.452-4.814-7.48-17.034-12.906
	c-6.55-2.834-11.023-5.816-11.023-13.783c0-8.749,6.085-15.152,14.958-15.152c6.232,0,9.432,2.981,11.73,2.981
	c1.001,0,2.884-1.271,3.861-1.271c1.124,0,0.928,1.174,1.075,2.935l0.855,10.166c0.121,1.662-0.098,2.591-1.784,2.591
	c-1.735,0-2.883-14.126-15.959-14.126c-5.034,0-8.456,2.883-8.456,7.966s4.178,6.061,14.369,10.56
	c8.166,3.568,13.174,6.842,13.174,16.52c0,9.972-6.988,16.767-16.985,16.767c-4.594,0-8.505-1.857-12.904-2.835
	c-1.905-0.489-1.833-1.075-2.197-2.883L515.16,516.667z"/>
<path d="M568.632,525.122c0,1.906-4.937,6.844-6.842,6.844c-1.908,0-6.846-4.938-6.846-6.844c0-1.905,4.938-6.842,6.846-6.842
	C563.696,518.28,568.632,523.217,568.632,525.122"/>
</svg>
