<?xml version="1.0" encoding="UTF-8" standalone="no"?>
<!-- Created with Inkscape (http://www.inkscape.org/) -->

<svg
   xmlns:dc="http://purl.org/dc/elements/1.1/"
   xmlns:cc="http://creativecommons.org/ns#"
   xmlns:rdf="http://www.w3.org/1999/02/22-rdf-syntax-ns#"
   xmlns:svg="http://www.w3.org/2000/svg"
   xmlns="http://www.w3.org/2000/svg"
   xmlns:sodipodi="http://sodipodi.sourceforge.net/DTD/sodipodi-0.dtd"
   xmlns:inkscape="http://www.inkscape.org/namespaces/inkscape"
   id="svg2985"
   version="1.1"
   inkscape:version="0.91 r13725"
   width="1920.7649"
   height="323.52499"
   xml:space="preserve"
   sodipodi:docname="Konami.svg"><metadata
     id="metadata2991"><rdf:RDF><cc:Work
         rdf:about=""><dc:format>image/svg+xml</dc:format><dc:type
           rdf:resource="http://purl.org/dc/dcmitype/StillImage" /><dc:title /></cc:Work></rdf:RDF></metadata><defs
     id="defs2989"><clipPath
   clipPathUnits="userSpaceOnUse"
   id="clipPath3003"><path
     d="m 0,841.89 595.276,0 L 595.276,0 0,0 0,841.89 z"
     id="path3005"
     inkscape:connector-curvature="0" /></clipPath><clipPath
   clipPathUnits="userSpaceOnUse"
   id="clipPath5733"><path
     d="m 0,841.89 595.276,0 L 595.276,0 0,0 0,841.89 z"
     id="path5735"
     inkscape:connector-curvature="0" /></clipPath>
</defs><sodipodi:namedview
     pagecolor="#ffffff"
     bordercolor="#666666"
     borderopacity="1"
     objecttolerance="10"
     gridtolerance="10"
     guidetolerance="10"
     inkscape:pageopacity="0"
     inkscape:pageshadow="2"
     inkscape:window-width="1366"
     inkscape:window-height="705"
     id="namedview2987"
     showgrid="false"
     inkscape:zoom="0.125"
     inkscape:cx="806.33245"
     inkscape:cy="-61.715672"
     inkscape:window-x="-8"
     inkscape:window-y="-8"
     inkscape:window-maximized="1"
     inkscape:current-layer="g2993"
     fit-margin-top="0"
     fit-margin-left="0"
     fit-margin-right="0"
     fit-margin-bottom="0" /><g
     id="g2993"
     inkscape:groupmode="layer"
     inkscape:label="b_logo_8"
     transform="matrix(1.25,0,0,-1.25,741.39726,2564.6661)"><g
       id="g2998"
       transform="matrix(4.327949,0,0,4.327949,-787.8971,-872.38829)"
       style="fill:#e51e2b;fill-opacity:1"><g
         transform="translate(109.0347,618.3882)"
         id="g3065"
         style="fill:#e51e2b;fill-opacity:1"><path
           inkscape:connector-curvature="0"
           id="path3067"
           style="fill:#e51e2b;fill-opacity:1;fill-rule:nonzero;stroke:none"
           d="m 0,0 c -4.812,1.055 -8.559,3.343 -12.636,7.478 -4.487,4.539 -20.504,23.479 -20.504,23.479 l 25.545,24.26 -13.818,0 -23.318,-22.811 c -1.022,-0.992 -1.62,-1.641 -2.142,-2.288 l -0.131,0 c 0.036,0.763 0.066,1.568 0.066,2.354 l 0,18.241 c 0,2.48 -2.016,4.504 -4.503,4.504 l -9.038,0 -3.058,0 c -0.574,0 -0.648,-0.618 -0.214,-0.817 1.833,-0.84 3.272,-1.825 3.272,-5.1 l 0,-49.816 13.541,0 0,25.676 c 0,0.653 -0.03,1.162 -0.066,1.905 l 0.131,0 c 0.464,-0.759 1.274,-1.633 2.142,-2.689 0,0 14.23,-16.735 15.742,-18.31 6.031,-6.315 14.478,-8.545 28.924,-7.153 C 0.714,-1.007 0.722,-0.168 0,0" /></g><g
         transform="translate(135.3413,621.5337)"
         id="g3069"
         style="fill:#e51e2b;fill-opacity:1"><path
           inkscape:connector-curvature="0"
           id="path3071"
           style="fill:#e51e2b;fill-opacity:1;fill-rule:nonzero;stroke:none"
           d="m 0,0 c -11.214,0 -17.617,10.969 -17.617,23.494 0,14.42 6.403,24.912 17.617,24.912 11.205,0 17.608,-10.964 17.608,-23.493 C 17.608,10.108 11.205,0 0,0 m 0,54.103 c -18.8,0 -32.666,-13.092 -32.666,-29.905 0,-16.797 12.768,-29.897 32.666,-29.897 18.792,0 32.655,13.1 32.655,29.897 C 32.655,41.011 19.89,54.103 0,54.103" /></g><g
         transform="translate(375.0703,617.8721)"
         id="g3073"
         style="fill:#e51e2b;fill-opacity:1"><path
           inkscape:connector-curvature="0"
           id="path3075"
           style="fill:#e51e2b;fill-opacity:1;fill-rule:nonzero;stroke:none"
           d="m 0,0 -8.33,50.853 c -0.426,2.547 -2.774,4.88 -5.69,4.88 l -7.805,0 -13.663,-31.729 c -0.635,-1.428 -1.038,-2.538 -1.334,-3.371 l -0.074,0 c -0.279,0.876 -0.676,1.915 -1.227,3.196 l -12.062,28.291 -0.008,0 c -0.875,2.022 -2.89,3.613 -5.407,3.613 l -11.97,0 c -0.583,0 -0.649,-0.618 -0.214,-0.817 1.632,-0.743 2.802,-1.927 2.309,-5.055 L -73.658,0 l 8.629,0 5.441,35.167 c 0.264,1.797 0.573,3.98 0.676,5.084 l 0.066,0 c 0.539,-1.449 1.229,-3.185 2.01,-4.98 L -41.811,0 l 4.459,0 15.203,35.889 c 0.881,2.133 1.465,3.633 1.868,4.774 l 0.074,0 c 0.168,-1.371 0.441,-3.465 0.764,-5.571 L -13.813,0 0,0 z" /></g><g
         transform="translate(395.5469,673.605)"
         id="g3077"
         style="fill:#e51e2b;fill-opacity:1"><path
           inkscape:connector-curvature="0"
           id="path3079"
           style="fill:#e51e2b;fill-opacity:1;fill-rule:nonzero;stroke:none"
           d="m 0,0 -12.647,0 c -0.587,0 -0.649,-0.618 -0.214,-0.817 1.834,-0.84 3.273,-1.825 3.273,-5.1 l 0,-49.816 14.09,0 0,51.23 C 4.502,-2.024 2.486,0 0,0" /></g><g
         transform="translate(222.0063,673.605)"
         id="g3081"
         style="fill:#e51e2b;fill-opacity:1"><path
           inkscape:connector-curvature="0"
           id="path3083"
           style="fill:#e51e2b;fill-opacity:1;fill-rule:nonzero;stroke:none"
           d="m 0,0 0,-31.861 c 0,-1.561 0.073,-2.546 0.138,-3.943 l -0.138,0 c -1.075,1.506 -2.268,3.061 -4.018,5.119 l -23.958,27.706 c -1.878,2.146 -3.378,2.972 -6.816,2.979 l -12.177,0 c -0.572,0 -0.638,-0.618 -0.206,-0.817 1.84,-0.84 3.275,-1.825 3.275,-5.1 l 0,-49.816 9.108,0 0,35.83 c 0,1.927 -0.074,3.413 -0.131,5.009 l 0.131,0 c 1.678,-2.265 3.997,-5.258 5.865,-7.422 l 28.75,-33.417 4.79,0 c 2.489,0 4.502,2.021 4.502,4.506 L 9.115,0 0,0 z" /></g><g
         transform="translate(254.5737,637.4478)"
         id="g3085"
         style="fill:#e51e2b;fill-opacity:1"><path
           inkscape:connector-curvature="0"
           id="path3087"
           style="fill:#e51e2b;fill-opacity:1;fill-rule:nonzero;stroke:none"
           d="m 0,0 8.727,19.21 c 0.427,0.973 0.807,1.842 0.94,2.311 l 0.14,0 c 0.172,-0.557 0.539,-1.406 0.942,-2.345 L 19.248,0 0,0 z m 27.917,-19.576 15.344,0 -24.219,52.296 c -0.885,1.891 -2.804,3.437 -5.305,3.437 l -10.59,0 c -0.587,0 -0.641,-0.605 -0.211,-0.817 1.295,-0.648 2.191,-2.796 1.251,-4.799 l -23.426,-50.117 10.357,0 5.82,12.836 25.296,0 5.683,-12.836 z" /></g></g></g></svg>