<?xml version="1.0" encoding="UTF-8" standalone="no"?>
<!-- Created with Inkscape (http://www.inkscape.org/) -->

<svg
   xmlns:svg="http://www.w3.org/2000/svg"
   xmlns="http://www.w3.org/2000/svg"
   version="1.1"
   width="46.541248"
   height="21.67625"
   id="svg2"
   xml:space="preserve"><defs
     id="defs6"><clipPath
       id="clipPath18"><path
         d="m 21,21 595.276,0 0,297.638 L 21,318.638 21,21 z"
         id="path20" /></clipPath><clipPath
       id="clipPath26"><path
         d="m 11.847,11.562 612.96,0 0,316.08 -612.96,0 0,-316.08 z"
         id="path28" /></clipPath><clipPath
       id="clipPath34"><path
         d="m 19.767,20.202 597.36,0 0,299.52 -597.36,0 0,-299.52 z"
         id="path36" /></clipPath><clipPath
       id="clipPath196"><path
         d="m 215.109,28.85 -107.669,0 0,45.348 107.669,0 0,-45.348 z"
         id="path198" /></clipPath><clipPath
       id="clipPath204"><path
         d="m 94.25,33.888 130,0 0,41 -130,0 0,-41 z"
         id="path206" /></clipPath><clipPath
       id="clipPath560"><path
         d="m 0,0 637.276,0 0,339.638 L 0,339.638 0,0 z"
         id="path562" /></clipPath></defs><g
     transform="matrix(1.25,0,0,-1.25,-485.07369,344.47504)"
     id="g12"
     style="fill:#000000;fill-opacity:1"><g
       id="g556"
       style="fill:#000000;fill-opacity:1"><g
         clip-path="url(#clipPath560)"
         id="g558"
         style="fill:#000000;fill-opacity:1"><path
           d="m 15,318.638 -15,0 m 622.276,0 15,0 M 15,21 0,21 m 622.276,0 15,0 M 21,324.638 l 0,15 M 21,15 21,0 m 595.276,324.638 0,15 m 0,-324.638 0,-15"
           id="path564"
           style="fill:#000000;fill-opacity:1;stroke:#ffffff;stroke-width:1.25;stroke-linecap:butt;stroke-linejoin:miter;stroke-miterlimit:10;stroke-opacity:1;stroke-dasharray:none" /><path
           d="m 31.486,6 1.722,0 c 1.416,0 1.836,1.248 1.836,2.214 0,1.242 -0.69,2.094 -1.812,2.094 l -1.746,0 0,-4.308 z m 0.582,3.81 1.086,0 c 0.792,0 1.29,-0.546 1.29,-1.632 0,-1.086 -0.492,-1.68 -1.248,-1.68 l -1.128,0 0,3.312 z"
           id="path568"
           style="fill:#000000;fill-opacity:1;stroke:#ffffff;stroke-width:0.40000001;stroke-linecap:butt;stroke-linejoin:miter;stroke-miterlimit:10;stroke-opacity:1;stroke-dasharray:none" /><path
           d="m 38.932,9.048 c -0.024,0.474 -0.174,1.374 -1.68,1.374 -1.044,0 -1.482,-0.66 -1.482,-1.332 0,-0.75 0.636,-0.948 0.918,-1.014 L 37.57,7.872 c 0.708,-0.168 0.918,-0.312 0.918,-0.762 0,-0.618 -0.708,-0.726 -1.128,-0.726 -0.552,0 -1.188,0.228 -1.188,1.008 l -0.546,0 c 0,-0.402 0.072,-0.762 0.438,-1.092 0.192,-0.174 0.504,-0.414 1.302,-0.414 0.738,0 1.686,0.282 1.686,1.302 0,0.684 -0.42,1.02 -0.978,1.152 l -1.23,0.282 c -0.252,0.06 -0.51,0.18 -0.51,0.546 0,0.654 0.618,0.756 0.984,0.756 0.486,0 1.038,-0.21 1.068,-0.876 l 0.546,0 z"
           id="path570"
           style="fill:#000000;fill-opacity:1;stroke:#ffffff;stroke-width:0.40000001;stroke-linecap:butt;stroke-linejoin:miter;stroke-miterlimit:10;stroke-opacity:1;stroke-dasharray:none" /><path
           d="m 42.67,5.55 -3.336,0 0,-0.3 3.336,0 0,0.3 z"
           id="path572"
           style="fill:#000000;fill-opacity:1;stroke:#ffffff;stroke-width:0.40000001;stroke-linecap:butt;stroke-linejoin:miter;stroke-miterlimit:10;stroke-opacity:1;stroke-dasharray:none" /><path
           d="m 43.768,9.81 1.182,0 c 0.48,0 0.852,-0.174 0.852,-0.72 0,-0.582 -0.354,-0.774 -0.876,-0.774 l -1.158,0 0,1.494 z m 0,-1.992 1.356,0 c 0.936,0 1.278,0.678 1.278,1.278 0,0.696 -0.48,1.212 -1.278,1.212 l -1.938,0 0,-4.308 0.582,0 0,1.818 z"
           id="path574"
           style="fill:#000000;fill-opacity:1;stroke:#ffffff;stroke-width:0.40000001;stroke-linecap:butt;stroke-linejoin:miter;stroke-miterlimit:10;stroke-opacity:1;stroke-dasharray:none" /><path
           d="m 47.662,7.824 c 0,0.456 0.312,0.84 0.804,0.84 l 0.198,0 0,0.546 c -0.042,0.012 -0.072,0.018 -0.138,0.018 -0.396,0 -0.672,-0.246 -0.882,-0.612 l -0.012,0 0,0.522 -0.498,0 0,-3.138 0.528,0 0,1.824 z"
           id="path576"
           style="fill:#000000;fill-opacity:1;stroke:#ffffff;stroke-width:0.40000001;stroke-linecap:butt;stroke-linejoin:miter;stroke-miterlimit:10;stroke-opacity:1;stroke-dasharray:none" /><path
           d="m 48.88,7.572 c 0,-0.81 0.456,-1.656 1.458,-1.656 1.002,0 1.458,0.846 1.458,1.656 0,0.81 -0.456,1.656 -1.458,1.656 -1.002,0 -1.458,-0.846 -1.458,-1.656 z m 0.546,0 c 0,0.42 0.156,1.2 0.912,1.2 0.756,0 0.912,-0.78 0.912,-1.2 0,-0.42 -0.156,-1.2 -0.912,-1.2 -0.756,0 -0.912,0.78 -0.912,1.2 z"
           id="path578"
           style="fill:#000000;fill-opacity:1;stroke:#ffffff;stroke-width:0.40000001;stroke-linecap:butt;stroke-linejoin:miter;stroke-miterlimit:10;stroke-opacity:1;stroke-dasharray:none" /><path
           d="m 53.578,8.7 0,0.438 -0.528,0 0,0.39 c 0,0.252 0.084,0.366 0.312,0.366 0.066,0 0.15,-0.006 0.216,-0.012 l 0,0.474 c -0.084,0.006 -0.162,0.012 -0.24,0.012 -0.516,0 -0.816,-0.216 -0.816,-0.69 l 0,-0.54 -0.432,0 0,-0.438 0.432,0 0,-2.7 0.528,0 0,2.7 0.528,0 z"
           id="path580"
           style="fill:#000000;fill-opacity:1;stroke:#ffffff;stroke-width:0.40000001;stroke-linecap:butt;stroke-linejoin:miter;stroke-miterlimit:10;stroke-opacity:1;stroke-dasharray:none" /><path
           d="m 57.01,5.55 -3.336,0 0,-0.3 3.336,0 0,0.3 z"
           id="path582"
           style="fill:#000000;fill-opacity:1;stroke:#ffffff;stroke-width:0.40000001;stroke-linecap:butt;stroke-linejoin:miter;stroke-miterlimit:10;stroke-opacity:1;stroke-dasharray:none" /><path
           d="m 58.048,10.308 -0.582,0 0,-4.308 2.766,0 0,0.516 -2.184,0 0,3.792 z"
           id="path584"
           style="fill:#000000;fill-opacity:1;stroke:#ffffff;stroke-width:0.40000001;stroke-linecap:butt;stroke-linejoin:miter;stroke-miterlimit:10;stroke-opacity:1;stroke-dasharray:none" /><path
           d="m 61.204,8.184 c 0.036,0.24 0.12,0.606 0.72,0.606 0.498,0 0.738,-0.18 0.738,-0.51 0,-0.312 -0.15,-0.36 -0.276,-0.372 L 61.516,7.8 C 60.64,7.692 60.562,7.08 60.562,6.816 c 0,-0.54 0.408,-0.906 0.984,-0.906 0.612,0 0.93,0.288 1.134,0.51 0.018,-0.24 0.09,-0.48 0.558,-0.48 0.12,0 0.198,0.036 0.288,0.06 l 0,0.384 C 63.466,6.372 63.4,6.36 63.352,6.36 c -0.108,0 -0.174,0.054 -0.174,0.186 l 0,1.806 c 0,0.804 -0.912,0.876 -1.164,0.876 -0.774,0 -1.272,-0.294 -1.296,-1.044 l 0.486,0 z M 62.65,7.086 c 0,-0.42 -0.48,-0.738 -0.972,-0.738 -0.396,0 -0.57,0.204 -0.57,0.546 0,0.396 0.414,0.474 0.672,0.51 0.654,0.084 0.786,0.132 0.87,0.198 l 0,-0.516 z"
           id="path586"
           style="fill:#000000;fill-opacity:1;stroke:#ffffff;stroke-width:0.40000001;stroke-linecap:butt;stroke-linejoin:miter;stroke-miterlimit:10;stroke-opacity:1;stroke-dasharray:none" /><path
           d="m 65.194,6.582 -0.012,0 -0.834,2.556 -0.6,0 1.164,-3.222 C 64.66,5.268 64.63,5.19 64.354,5.19 c -0.144,0 -0.252,0.03 -0.318,0.054 l 0,-0.48 C 64.12,4.74 64.18,4.716 64.258,4.716 c 0.678,0 0.732,0.072 1.23,1.344 0.402,1.026 0.762,2.052 1.128,3.078 l -0.582,0 -0.84,-2.556 z"
           id="path588"
           style="fill:#000000;fill-opacity:1;stroke:#ffffff;stroke-width:0.40000001;stroke-linecap:butt;stroke-linejoin:miter;stroke-miterlimit:10;stroke-opacity:1;stroke-dasharray:none" /><path
           d="m 68.224,8.7 0,0.438 -0.504,0 0,0.876 -0.528,0 0,-0.876 -0.426,0 0,-0.438 0.426,0 0,-2.07 c 0,-0.378 0.114,-0.672 0.636,-0.672 0.054,0 0.204,0.024 0.396,0.042 l 0,0.414 -0.186,0 c -0.108,0 -0.318,0 -0.318,0.246 l 0,2.04 0.504,0 z"
           id="path590"
           style="fill:#000000;fill-opacity:1;stroke:#ffffff;stroke-width:0.40000001;stroke-linecap:butt;stroke-linejoin:miter;stroke-miterlimit:10;stroke-opacity:1;stroke-dasharray:none" /><path
           d="m 68.56,7.572 c 0,-0.81 0.456,-1.656 1.458,-1.656 1.002,0 1.458,0.846 1.458,1.656 0,0.81 -0.456,1.656 -1.458,1.656 -1.002,0 -1.458,-0.846 -1.458,-1.656 z m 0.546,0 c 0,0.42 0.156,1.2 0.912,1.2 0.756,0 0.912,-0.78 0.912,-1.2 0,-0.42 -0.156,-1.2 -0.912,-1.2 -0.756,0 -0.912,0.78 -0.912,1.2 z"
           id="path592"
           style="fill:#000000;fill-opacity:1;stroke:#ffffff;stroke-width:0.40000001;stroke-linecap:butt;stroke-linejoin:miter;stroke-miterlimit:10;stroke-opacity:1;stroke-dasharray:none" /><path
           d="m 74.632,8.136 c 0,0.894 -0.612,1.092 -1.098,1.092 -0.54,0 -0.834,-0.366 -0.948,-0.534 l -0.012,0 0,0.444 -0.498,0 0,-3.138 0.528,0 0,1.71 c 0,0.852 0.528,1.044 0.828,1.044 0.516,0 0.672,-0.276 0.672,-0.822 l 0,-1.932 0.528,0 0,2.136 z"
           id="path594"
           style="fill:#000000;fill-opacity:1;stroke:#ffffff;stroke-width:0.40000001;stroke-linecap:butt;stroke-linejoin:miter;stroke-miterlimit:10;stroke-opacity:1;stroke-dasharray:none" /><path
           d="m 78.358,5.55 -3.336,0 0,-0.3 3.336,0 0,0.3 z"
           id="path596"
           style="fill:#000000;fill-opacity:1;stroke:#ffffff;stroke-width:0.40000001;stroke-linecap:butt;stroke-linejoin:miter;stroke-miterlimit:10;stroke-opacity:1;stroke-dasharray:none" /><path
           d="m 79.216,8.184 c 0.036,0.24 0.12,0.606 0.72,0.606 0.498,0 0.738,-0.18 0.738,-0.51 0,-0.312 -0.15,-0.36 -0.276,-0.372 L 79.528,7.8 C 78.652,7.692 78.574,7.08 78.574,6.816 c 0,-0.54 0.408,-0.906 0.984,-0.906 0.612,0 0.93,0.288 1.134,0.51 0.018,-0.24 0.09,-0.48 0.558,-0.48 0.12,0 0.198,0.036 0.288,0.06 l 0,0.384 C 81.478,6.372 81.412,6.36 81.364,6.36 81.256,6.36 81.19,6.414 81.19,6.546 l 0,1.806 c 0,0.804 -0.912,0.876 -1.164,0.876 -0.774,0 -1.272,-0.294 -1.296,-1.044 l 0.486,0 z m 1.446,-1.098 c 0,-0.42 -0.48,-0.738 -0.972,-0.738 -0.396,0 -0.57,0.204 -0.57,0.546 0,0.396 0.414,0.474 0.672,0.51 0.654,0.084 0.786,0.132 0.87,0.198 l 0,-0.516 z"
           id="path598"
           style="fill:#000000;fill-opacity:1;stroke:#ffffff;stroke-width:0.40000001;stroke-linecap:butt;stroke-linejoin:miter;stroke-miterlimit:10;stroke-opacity:1;stroke-dasharray:none" /><path
           d="m 83.236,8.7 0,0.438 -0.504,0 0,0.876 -0.528,0 0,-0.876 -0.426,0 0,-0.438 0.426,0 0,-2.07 c 0,-0.378 0.114,-0.672 0.636,-0.672 0.054,0 0.204,0.024 0.396,0.042 l 0,0.414 -0.186,0 c -0.108,0 -0.318,0 -0.318,0.246 l 0,2.04 0.504,0 z"
           id="path600"
           style="fill:#000000;fill-opacity:1;stroke:#ffffff;stroke-width:0.40000001;stroke-linecap:butt;stroke-linejoin:miter;stroke-miterlimit:10;stroke-opacity:1;stroke-dasharray:none" /><path
           d="m 87.406,9.012 c -0.084,0.72 -0.66,1.41 -1.77,1.41 -1.254,0 -2.01,-0.918 -2.01,-2.244 0,-1.656 0.96,-2.292 1.938,-2.292 0.324,0 1.644,0.072 1.884,1.698 l -0.564,0 c -0.198,-1.002 -0.852,-1.182 -1.23,-1.182 -1.068,0 -1.428,0.78 -1.428,1.794 0,1.134 0.63,1.71 1.41,1.71 0.414,0 1.044,-0.138 1.206,-0.894 l 0.564,0 z"
           id="path602"
           style="fill:#000000;fill-opacity:1;stroke:#ffffff;stroke-width:0.40000001;stroke-linecap:butt;stroke-linejoin:miter;stroke-miterlimit:10;stroke-opacity:1;stroke-dasharray:none" /><path
           d="m 89.704,6.636 -0.012,0 -1.23,3.672 -0.648,0 1.572,-4.308 0.618,0 1.572,4.308 -0.654,0 -1.218,-3.672 z"
           id="path604"
           style="fill:#000000;fill-opacity:1;stroke:#ffffff;stroke-width:0.40000001;stroke-linecap:butt;stroke-linejoin:miter;stroke-miterlimit:10;stroke-opacity:1;stroke-dasharray:none" /><path
           d="m 95.032,5.55 -3.336,0 0,-0.3 3.336,0 0,0.3 z"
           id="path606"
           style="fill:#000000;fill-opacity:1;stroke:#ffffff;stroke-width:0.40000001;stroke-linecap:butt;stroke-linejoin:miter;stroke-miterlimit:10;stroke-opacity:1;stroke-dasharray:none" /><path
           d="m 99.076,9.012 c -0.084,0.72 -0.66,1.41 -1.77,1.41 -1.254,0 -2.01,-0.918 -2.01,-2.244 0,-1.656 0.96,-2.292 1.938,-2.292 0.324,0 1.644,0.072 1.884,1.698 l -0.564,0 c -0.198,-1.002 -0.852,-1.182 -1.23,-1.182 -1.068,0 -1.428,0.78 -1.428,1.794 0,1.134 0.63,1.71 1.41,1.71 0.414,0 1.044,-0.138 1.206,-0.894 l 0.564,0 z"
           id="path608"
           style="fill:#000000;fill-opacity:1;stroke:#ffffff;stroke-width:0.40000001;stroke-linecap:butt;stroke-linejoin:miter;stroke-miterlimit:10;stroke-opacity:1;stroke-dasharray:none" /><path
           d="m 102.358,10.308 -0.528,0 0,-1.572 -0.012,-0.042 c -0.126,0.18 -0.366,0.534 -0.936,0.534 -0.834,0 -1.308,-0.684 -1.308,-1.566 0,-0.75 0.312,-1.752 1.38,-1.752 0.306,0 0.666,0.096 0.894,0.522 l 0.012,0 0,-0.432 0.498,0 0,4.308 z m -2.238,-2.73 c 0,0.402 0.042,1.176 0.858,1.176 0.762,0 0.846,-0.822 0.846,-1.332 0,-0.834 -0.522,-1.056 -0.858,-1.056 -0.576,0 -0.846,0.522 -0.846,1.212 z"
           id="path610"
           style="fill:#000000;fill-opacity:1;stroke:#ffffff;stroke-width:0.40000001;stroke-linecap:butt;stroke-linejoin:miter;stroke-miterlimit:10;stroke-opacity:1;stroke-dasharray:none" /><path
           d="m 105.646,8.136 c 0,0.894 -0.612,1.092 -1.098,1.092 -0.54,0 -0.834,-0.366 -0.948,-0.534 l -0.012,0 0,0.444 -0.498,0 0,-3.138 0.528,0 0,1.71 c 0,0.852 0.528,1.044 0.828,1.044 0.516,0 0.672,-0.276 0.672,-0.822 l 0,-1.932 0.528,0 0,2.136 z"
           id="path612"
           style="fill:#000000;fill-opacity:1;stroke:#ffffff;stroke-width:0.40000001;stroke-linecap:butt;stroke-linejoin:miter;stroke-miterlimit:10;stroke-opacity:1;stroke-dasharray:none" /><path
           d="m 110.602,6 0,4.308 -0.828,0 -1.224,-3.642 -0.012,0 -1.23,3.642 -0.834,0 0,-4.308 0.564,0 0,2.544 c 0,0.126 -0.012,0.672 -0.012,1.068 l 0.012,0 1.212,-3.612 0.576,0 1.212,3.618 0.012,0 c 0,-0.402 -0.012,-0.948 -0.012,-1.074 l 0,-2.544 0.564,0 z"
           id="path614"
           style="fill:#000000;fill-opacity:1;stroke:#ffffff;stroke-width:0.40000001;stroke-linecap:butt;stroke-linejoin:miter;stroke-miterlimit:10;stroke-opacity:1;stroke-dasharray:none" /><path
           d="m 111.891,8.184 c 0.036,0.24 0.12,0.606 0.72,0.606 0.498,0 0.738,-0.18 0.738,-0.51 0,-0.312 -0.15,-0.36 -0.276,-0.372 L 112.203,7.8 c -0.876,-0.108 -0.954,-0.72 -0.954,-0.984 0,-0.54 0.408,-0.906 0.984,-0.906 0.612,0 0.93,0.288 1.134,0.51 0.018,-0.24 0.09,-0.48 0.558,-0.48 0.12,0 0.198,0.036 0.288,0.06 l 0,0.384 c -0.06,-0.012 -0.126,-0.024 -0.174,-0.024 -0.108,0 -0.174,0.054 -0.174,0.186 l 0,1.806 c 0,0.804 -0.912,0.876 -1.164,0.876 -0.774,0 -1.272,-0.294 -1.296,-1.044 l 0.486,0 z m 1.446,-1.098 c 0,-0.42 -0.48,-0.738 -0.972,-0.738 -0.396,0 -0.57,0.204 -0.57,0.546 0,0.396 0.414,0.474 0.672,0.51 0.654,0.084 0.786,0.132 0.87,0.198 l 0,-0.516 z"
           id="path616"
           style="fill:#000000;fill-opacity:1;stroke:#ffffff;stroke-width:0.40000001;stroke-linecap:butt;stroke-linejoin:miter;stroke-miterlimit:10;stroke-opacity:1;stroke-dasharray:none" /><path
           d="m 117.315,8.136 c 0,0.894 -0.612,1.092 -1.098,1.092 -0.54,0 -0.834,-0.366 -0.948,-0.534 l -0.012,0 0,0.444 -0.498,0 0,-3.138 0.528,0 0,1.71 c 0,0.852 0.528,1.044 0.828,1.044 0.516,0 0.672,-0.276 0.672,-0.822 l 0,-1.932 0.528,0 0,2.136 z"
           id="path618"
           style="fill:#000000;fill-opacity:1;stroke:#ffffff;stroke-width:0.40000001;stroke-linecap:butt;stroke-linejoin:miter;stroke-miterlimit:10;stroke-opacity:1;stroke-dasharray:none" /><path
           d="m 120.639,6 0,3.138 -0.528,0 0,-1.728 c 0,-0.456 -0.198,-1.044 -0.864,-1.044 -0.342,0 -0.606,0.174 -0.606,0.69 l 0,2.082 -0.528,0 0,-2.256 c 0,-0.75 0.558,-0.972 1.02,-0.972 0.504,0 0.774,0.192 0.996,0.558 l 0.012,-0.012 0,-0.456 0.498,0 z"
           id="path620"
           style="fill:#000000;fill-opacity:1;stroke:#ffffff;stroke-width:0.40000001;stroke-linecap:butt;stroke-linejoin:miter;stroke-miterlimit:10;stroke-opacity:1;stroke-dasharray:none" /><path
           d="m 121.899,8.184 c 0.036,0.24 0.12,0.606 0.72,0.606 0.498,0 0.738,-0.18 0.738,-0.51 0,-0.312 -0.15,-0.36 -0.276,-0.372 L 122.211,7.8 c -0.876,-0.108 -0.954,-0.72 -0.954,-0.984 0,-0.54 0.408,-0.906 0.984,-0.906 0.612,0 0.93,0.288 1.134,0.51 0.018,-0.24 0.09,-0.48 0.558,-0.48 0.12,0 0.198,0.036 0.288,0.06 l 0,0.384 c -0.06,-0.012 -0.126,-0.024 -0.174,-0.024 -0.108,0 -0.174,0.054 -0.174,0.186 l 0,1.806 c 0,0.804 -0.912,0.876 -1.164,0.876 -0.774,0 -1.272,-0.294 -1.296,-1.044 l 0.486,0 z m 1.446,-1.098 c 0,-0.42 -0.48,-0.738 -0.972,-0.738 -0.396,0 -0.57,0.204 -0.57,0.546 0,0.396 0.414,0.474 0.672,0.51 0.654,0.084 0.786,0.132 0.87,0.198 l 0,-0.516 z"
           id="path622"
           style="fill:#000000;fill-opacity:1;stroke:#ffffff;stroke-width:0.40000001;stroke-linecap:butt;stroke-linejoin:miter;stroke-miterlimit:10;stroke-opacity:1;stroke-dasharray:none" /><path
           d="m 125.307,10.308 -0.528,0 0,-4.308 0.528,0 0,4.308 z"
           id="path624"
           style="fill:#000000;fill-opacity:1;stroke:#ffffff;stroke-width:0.40000001;stroke-linecap:butt;stroke-linejoin:miter;stroke-miterlimit:10;stroke-opacity:1;stroke-dasharray:none" /><path
           d="m 126.855,6.636 -0.624,0 0,-0.636 0.624,0 0,0.636 z"
           id="path626"
           style="fill:#000000;fill-opacity:1;stroke:#ffffff;stroke-width:0.40000001;stroke-linecap:butt;stroke-linejoin:miter;stroke-miterlimit:10;stroke-opacity:1;stroke-dasharray:none" /><path
           d="m 128.307,9.138 -0.528,0 0,-3.138 0.528,0 0,3.138 z m 0,1.17 -0.528,0 0,-0.6 0.528,0 0,0.6 z"
           id="path628"
           style="fill:#000000;fill-opacity:1;stroke:#ffffff;stroke-width:0.40000001;stroke-linecap:butt;stroke-linejoin:miter;stroke-miterlimit:10;stroke-opacity:1;stroke-dasharray:none" /><path
           d="m 131.655,8.136 c 0,0.894 -0.612,1.092 -1.098,1.092 -0.54,0 -0.834,-0.366 -0.948,-0.534 l -0.012,0 0,0.444 -0.498,0 0,-3.138 0.528,0 0,1.71 c 0,0.852 0.528,1.044 0.828,1.044 0.516,0 0.672,-0.276 0.672,-0.822 l 0,-1.932 0.528,0 0,2.136 z"
           id="path630"
           style="fill:#000000;fill-opacity:1;stroke:#ffffff;stroke-width:0.40000001;stroke-linecap:butt;stroke-linejoin:miter;stroke-miterlimit:10;stroke-opacity:1;stroke-dasharray:none" /><path
           d="m 132.837,8.706 c 0.018,0.294 0.054,1.038 0.852,1.038 0.618,0 0.834,-0.426 0.834,-0.762 0,-0.552 -0.324,-0.726 -0.774,-0.984 L 133.191,7.674 C 132.627,7.344 132.231,6.876 132.201,6 l 2.886,0 0,0.498 -2.292,0 c 0.024,0.162 0.15,0.492 0.726,0.81 l 0.438,0.24 c 0.63,0.336 1.128,0.654 1.128,1.41 0,0.786 -0.588,1.26 -1.32,1.26 -0.456,0 -1.458,-0.138 -1.458,-1.512 l 0.528,0 z"
           id="path632"
           style="fill:#000000;fill-opacity:1;stroke:#ffffff;stroke-width:0.40000001;stroke-linecap:butt;stroke-linejoin:miter;stroke-miterlimit:10;stroke-opacity:1;stroke-dasharray:none" /><path
           d="m 137.115,7.932 -1.47,0 0,-0.54 1.47,0 0,0.54 z"
           id="path634"
           style="fill:#000000;fill-opacity:1;stroke:#ffffff;stroke-width:0.40000001;stroke-linecap:butt;stroke-linejoin:miter;stroke-miterlimit:10;stroke-opacity:1;stroke-dasharray:none" /><path
           d="m 139.533,10.218 -0.414,0 c -0.168,-0.69 -0.45,-0.756 -1.134,-0.804 l 0,-0.42 0.984,0 0,-2.994 0.564,0 0,4.218 z"
           id="path636"
           style="fill:#000000;fill-opacity:1;stroke:#ffffff;stroke-width:0.40000001;stroke-linecap:butt;stroke-linejoin:miter;stroke-miterlimit:10;stroke-opacity:1;stroke-dasharray:none" /><path
           d="m 146.511,8.706 c 0.018,0.294 0.054,1.038 0.852,1.038 0.618,0 0.834,-0.426 0.834,-0.762 0,-0.552 -0.324,-0.726 -0.774,-0.984 L 146.865,7.674 C 146.301,7.344 145.905,6.876 145.875,6 l 2.886,0 0,0.498 -2.292,0 c 0.024,0.162 0.15,0.492 0.726,0.81 l 0.438,0.24 c 0.63,0.336 1.128,0.654 1.128,1.41 0,0.786 -0.588,1.26 -1.32,1.26 -0.456,0 -1.458,-0.138 -1.458,-1.512 l 0.528,0 z"
           id="path638"
           style="fill:#000000;fill-opacity:1;stroke:#ffffff;stroke-width:0.40000001;stroke-linecap:butt;stroke-linejoin:miter;stroke-miterlimit:10;stroke-opacity:1;stroke-dasharray:none" /><path
           d="m 150.789,7.932 -1.47,0 0,-0.54 1.47,0 0,0.54 z"
           id="path640"
           style="fill:#000000;fill-opacity:1;stroke:#ffffff;stroke-width:0.40000001;stroke-linecap:butt;stroke-linejoin:miter;stroke-miterlimit:10;stroke-opacity:1;stroke-dasharray:none" /><path
           d="m 153.207,10.218 -0.414,0 c -0.168,-0.69 -0.45,-0.756 -1.134,-0.804 l 0,-0.42 0.984,0 0,-2.994 0.564,0 0,4.218 z"
           id="path642"
           style="fill:#000000;fill-opacity:1;stroke:#ffffff;stroke-width:0.40000001;stroke-linecap:butt;stroke-linejoin:miter;stroke-miterlimit:10;stroke-opacity:1;stroke-dasharray:none" /><path
           d="m 558.43,10.218 -0.414,0 c -0.168,-0.69 -0.45,-0.756 -1.134,-0.804 l 0,-0.42 0.984,0 0,-2.994 0.564,0 0,4.218 z"
           id="path648"
           style="fill:#000000;fill-opacity:1;stroke:#ffffff;stroke-width:0.40000001;stroke-linecap:butt;stroke-linejoin:miter;stroke-miterlimit:10;stroke-opacity:1;stroke-dasharray:none" /><path
           d="m 561.382,10.422 -0.396,0 -1.476,-4.536 0.402,0 1.47,4.536 z"
           id="path650"
           style="fill:#000000;fill-opacity:1;stroke:#ffffff;stroke-width:0.40000001;stroke-linecap:butt;stroke-linejoin:miter;stroke-miterlimit:10;stroke-opacity:1;stroke-dasharray:none" /><path
           d="m 563.434,10.218 -0.414,0 c -0.168,-0.69 -0.45,-0.756 -1.135,-0.804 l 0,-0.42 0.985,0 0,-2.994 0.564,0 0,4.218 z"
           id="path652"
           style="fill:#000000;fill-opacity:1;stroke:#ffffff;stroke-width:0.40000001;stroke-linecap:butt;stroke-linejoin:miter;stroke-miterlimit:10;stroke-opacity:1;stroke-dasharray:none" /><path
           d="m 565.678,9.612 1.788,0 0,0.516 -2.184,0 -0.318,-2.262 0.456,-0.024 c 0.198,0.258 0.474,0.402 0.78,0.402 0.522,0 0.936,-0.33 0.936,-0.936 0,-0.528 -0.342,-0.966 -0.888,-0.966 -0.474,0 -0.84,0.216 -0.894,0.708 l -0.546,0 c 0.102,-0.942 0.81,-1.164 1.362,-1.164 1.32,0 1.53,1.014 1.53,1.482 0,0.87 -0.702,1.35 -1.386,1.35 -0.378,0 -0.636,-0.126 -0.816,-0.264 l 0.18,1.158 z"
           id="path654"
           style="fill:#000000;fill-opacity:1;stroke:#ffffff;stroke-width:0.40000001;stroke-linecap:butt;stroke-linejoin:miter;stroke-miterlimit:10;stroke-opacity:1;stroke-dasharray:none" /><path
           d="m 569.721,10.422 -0.395,0 -1.477,-4.536 0.403,0 1.469,4.536 z"
           id="path656"
           style="fill:#000000;fill-opacity:1;stroke:#ffffff;stroke-width:0.40000001;stroke-linecap:butt;stroke-linejoin:miter;stroke-miterlimit:10;stroke-opacity:1;stroke-dasharray:none" /><path
           d="m 572.17,8.052 c 0,-1.056 -0.276,-1.692 -0.882,-1.692 -0.606,0 -0.882,0.636 -0.882,1.692 0,1.056 0.276,1.692 0.882,1.692 0.606,0 0.882,-0.636 0.882,-1.692 z m 0.564,0 c 0,0.876 -0.234,2.166 -1.446,2.166 -1.212,0 -1.446,-1.29 -1.446,-2.166 0,-0.876 0.234,-2.166 1.446,-2.166 1.212,0 1.446,1.29 1.446,2.166 z"
           id="path658"
           style="fill:#000000;fill-opacity:1;stroke:#ffffff;stroke-width:0.40000001;stroke-linecap:butt;stroke-linejoin:miter;stroke-miterlimit:10;stroke-opacity:1;stroke-dasharray:none" /><path
           d="m 575.908,9.132 c 0,0.492 -0.366,1.086 -1.302,1.086 -1.008,0 -1.278,-0.72 -1.278,-1.158 0,-0.396 0.21,-0.684 0.57,-0.822 -0.444,-0.18 -0.714,-0.51 -0.714,-1.026 0,-0.204 0,-0.66 0.432,-1.002 0.336,-0.264 0.78,-0.324 1.014,-0.324 0.996,0 1.428,0.654 1.428,1.332 0,0.318 -0.12,0.786 -0.69,1.026 0.186,0.096 0.54,0.282 0.54,0.888 z m -1.29,-1.152 c 0.48,0 0.876,-0.252 0.876,-0.822 0,-0.66 -0.462,-0.798 -0.846,-0.798 -0.732,0 -0.9,0.504 -0.9,0.84 0,0.39 0.276,0.78 0.87,0.78 z m -0.006,0.456 c -0.384,0 -0.738,0.246 -0.738,0.648 0,0.27 0.138,0.66 0.702,0.66 0.618,0 0.786,-0.372 0.786,-0.63 0,-0.384 -0.294,-0.678 -0.75,-0.678 z"
           id="path660"
           style="fill:#000000;fill-opacity:1;stroke:#ffffff;stroke-width:0.40000001;stroke-linecap:butt;stroke-linejoin:miter;stroke-miterlimit:10;stroke-opacity:1;stroke-dasharray:none" /><path
           d="m 581.518,9.612 2.322,0 C 583.03,8.67 582.262,7.158 582.117,6 l 0.583,0 c 0.305,1.884 1.314,3.228 1.734,3.666 l 0,0.462 -2.916,0 0,-0.516 z"
           id="path662"
           style="fill:#000000;fill-opacity:1;stroke:#ffffff;stroke-width:0.40000001;stroke-linecap:butt;stroke-linejoin:miter;stroke-miterlimit:10;stroke-opacity:1;stroke-dasharray:none" /><path
           d="m 585.778,6.636 -0.624,0 0,-0.636 0.624,0 0,0.636 z m 0,2.46 -0.624,0 0,-0.636 0.624,0 0,0.636 z"
           id="path664"
           style="fill:#000000;fill-opacity:1;stroke:#ffffff;stroke-width:0.40000001;stroke-linecap:butt;stroke-linejoin:miter;stroke-miterlimit:10;stroke-opacity:1;stroke-dasharray:none" /><path
           d="m 589.438,7.026 0,0.456 -0.618,0 0,2.736 -0.438,0 -1.932,-2.676 0,-0.516 1.842,0 0,-1.026 0.528,0 0,1.026 0.618,0 z m -1.158,2.37 0.012,0 0,-1.914 -1.356,0 1.344,1.914 z"
           id="path666"
           style="fill:#000000;fill-opacity:1;stroke:#ffffff;stroke-width:0.40000001;stroke-linecap:butt;stroke-linejoin:miter;stroke-miterlimit:10;stroke-opacity:1;stroke-dasharray:none" /><path
           d="m 590.698,9.612 1.788,0 0,0.516 -2.184,0 -0.318,-2.262 0.456,-0.024 c 0.198,0.258 0.474,0.402 0.78,0.402 0.522,0 0.936,-0.33 0.936,-0.936 0,-0.528 -0.342,-0.966 -0.888,-0.966 -0.474,0 -0.84,0.216 -0.894,0.708 l -0.546,0 c 0.102,-0.942 0.81,-1.164 1.362,-1.164 1.32,0 1.53,1.014 1.53,1.482 0,0.87 -0.702,1.35 -1.386,1.35 -0.378,0 -0.636,-0.126 -0.816,-0.264 l 0.18,1.158 z"
           id="path668"
           style="fill:#000000;fill-opacity:1;stroke:#ffffff;stroke-width:0.40000001;stroke-linecap:butt;stroke-linejoin:miter;stroke-miterlimit:10;stroke-opacity:1;stroke-dasharray:none" /><path
           d="m 594.118,6.636 -0.624,0 0,-0.636 0.624,0 0,0.636 z m 0,2.46 -0.624,0 0,-0.636 0.624,0 0,0.636 z"
           id="path670"
           style="fill:#000000;fill-opacity:1;stroke:#ffffff;stroke-width:0.40000001;stroke-linecap:butt;stroke-linejoin:miter;stroke-miterlimit:10;stroke-opacity:1;stroke-dasharray:none" /><path
           d="m 595.432,8.706 c 0.018,0.294 0.053,1.038 0.852,1.038 0.617,0 0.833,-0.426 0.833,-0.762 0,-0.552 -0.323,-0.726 -0.773,-0.984 L 595.786,7.674 C 595.221,7.344 594.826,6.876 594.795,6 l 2.887,0 0,0.498 -2.292,0 c 0.024,0.162 0.149,0.492 0.725,0.81 l 0.439,0.24 c 0.63,0.336 1.128,0.654 1.128,1.41 0,0.786 -0.588,1.26 -1.32,1.26 -0.456,0 -1.458,-0.138 -1.458,-1.512 l 0.528,0 z"
           id="path672"
           style="fill:#000000;fill-opacity:1;stroke:#ffffff;stroke-width:0.40000001;stroke-linecap:butt;stroke-linejoin:miter;stroke-miterlimit:10;stroke-opacity:1;stroke-dasharray:none" /><path
           d="m 599.32,7.944 c 0.078,0 0.162,0.006 0.24,0.006 0.36,0 0.984,-0.066 0.984,-0.774 0,-0.486 -0.378,-0.816 -0.918,-0.816 -0.786,0 -0.882,0.534 -0.9,0.93 l -0.546,0 c 0.036,-0.486 0.162,-0.972 0.63,-1.218 0.204,-0.108 0.468,-0.186 0.78,-0.186 1.074,0 1.518,0.666 1.518,1.356 0,0.564 -0.294,0.852 -0.702,0.984 l 0,0.012 c 0.228,0.072 0.54,0.33 0.54,0.87 0,0.642 -0.486,1.11 -1.302,1.11 -1.11,0 -1.362,-0.762 -1.362,-1.38 l 0.516,0 c 0.024,0.294 0.072,0.906 0.822,0.906 0.63,0 0.78,-0.414 0.78,-0.666 0,-0.528 -0.396,-0.69 -0.804,-0.69 -0.09,0 -0.186,0.006 -0.276,0.012 l 0,-0.456 z"
           id="path674"
           style="fill:#000000;fill-opacity:1;stroke:#ffffff;stroke-width:0.40000001;stroke-linecap:butt;stroke-linejoin:miter;stroke-miterlimit:10;stroke-opacity:1;stroke-dasharray:none" /><path
           d="M 605.842,7.254 606.268,6 l 0.636,0 -1.56,4.308 -0.66,0 -1.62,-4.308 0.6,0 0.45,1.254 1.728,0 z m -1.548,0.516 0.69,1.896 0.012,0 0.636,-1.896 -1.338,0 z"
           id="path676"
           style="fill:#000000;fill-opacity:1;stroke:#ffffff;stroke-width:0.40000001;stroke-linecap:butt;stroke-linejoin:miter;stroke-miterlimit:10;stroke-opacity:1;stroke-dasharray:none" /><path
           d="m 611.547,6 0,4.308 -0.828,0 -1.224,-3.642 -0.011,0 -1.231,3.642 -0.834,0 0,-4.308 0.564,0 0,2.544 c 0,0.126 -0.012,0.672 -0.012,1.068 l 0.012,0 1.212,-3.612 0.576,0 1.213,3.618 0.011,0 c 0,-0.402 -0.011,-0.948 -0.011,-1.074 l 0,-2.544 0.563,0 z"
           id="path678"
           style="fill:#000000;fill-opacity:1;stroke:#ffffff;stroke-width:0.40000001;stroke-linecap:butt;stroke-linejoin:miter;stroke-miterlimit:10;stroke-opacity:1;stroke-dasharray:none" /></g></g><path
       d="m 399.72595,272.53103 0,-8.143 c 0,-0.49 0.395,-0.887 0.886,-0.887 l 5.447,0 -6.333,9.03 z"
       id="path318"
       style="fill:#000000;fill-opacity:1;fill-rule:nonzero;stroke:none" /><path
       d="m 408.96695,263.50103 1.95,0 c 0.487,0 0.887,0.397 0.887,0.887 l 0,3.152 -2.837,-4.039 z"
       id="path320"
       style="fill:#000000;fill-opacity:1;fill-rule:nonzero;stroke:none" /><path
       d="m 401.16295,275.58003 9.754,0 c 0.487,0 0.887,-0.396 0.887,-0.886 l 0,-2.116 -4.288,-6.237 -6.353,9.239 z"
       id="path322"
       style="fill:#000000;fill-opacity:1;fill-rule:nonzero;stroke:none" /><path
       d="m 395.46195,261.09903 3.963,0 0,0.667 -3.963,0 c -0.378,0 -0.703,-0.208 -0.916,-0.586 -0.175,-0.309 -0.267,-0.713 -0.267,-1.169 0,-0.456 0.092,-0.859 0.267,-1.168 0.213,-0.378 0.538,-0.586 0.916,-0.586 l 3.963,0 0,0.666 -3.963,0 c -0.239,0 -0.429,0.307 -0.495,0.754 l 4.279,0 0,0.667 -4.279,0 c 0.066,0.447 0.256,0.755 0.495,0.755"
       id="path324"
       style="fill:#000000;fill-opacity:1;fill-rule:nonzero;stroke:none" /><path
       d="m 407.90795,261.09903 3.967,0 0,0.667 -3.967,0 c -0.375,0 -0.699,-0.208 -0.912,-0.586 -0.175,-0.309 -0.267,-0.713 -0.267,-1.169 0,-0.456 0.092,-0.859 0.267,-1.168 0.213,-0.378 0.537,-0.586 0.912,-0.586 l 3.967,0 0,0.666 -3.967,0 c -0.237,0 -0.429,0.307 -0.491,0.754 l 4.279,0 0,0.667 -4.279,0 c 0.062,0.447 0.254,0.755 0.491,0.755"
       id="path326"
       style="fill:#000000;fill-opacity:1;fill-rule:nonzero;stroke:none" /><path
       d="m 420.12895,261.76303 0,-2.084 4.284,0 c 0.191,0 0.221,-0.243 0.221,-0.388 0,-0.063 -0.013,-0.378 -0.221,-0.378 l -4.255,0 0,-0.662 4.255,0 c 0.52,0 0.879,0.428 0.879,1.04 0,0.628 -0.35,1.05 -0.879,1.05 l -3.621,0 0,0.76 4.291,0 0,0.662 -4.954,0 z"
       id="path328"
       style="fill:#000000;fill-opacity:1;fill-rule:nonzero;stroke:none" /><path
       d="m 392.62995,259.68803 c -0.143,-0.781 -0.407,-0.782 -0.621,-0.782 l -3.283,0 0,2.909 -0.667,0 0,-3.575 3.95,0 c 0.765,0 1.141,0.468 1.299,1.448 l -0.678,0 z"
       id="path330"
       style="fill:#000000;fill-opacity:1;fill-rule:nonzero;stroke:none" /><path
       d="m 417.86695,259.68803 c -0.141,-0.781 -0.408,-0.782 -0.617,-0.782 l -3.287,0 0,2.909 -0.667,0 0,-3.575 3.954,0 c 0.765,0 1.142,0.468 1.296,1.448 l -0.679,0 z"
       id="path332"
       style="fill:#000000;fill-opacity:1;fill-rule:nonzero;stroke:none" /><path
       d="m 402.94095,258.23903 0.596,0 2.505,3.576 -0.816,0 -1.989,-2.892 -1.987,2.892 -0.817,0 2.508,-3.576 z"
       id="path334"
       style="fill:#000000;fill-opacity:1;fill-rule:nonzero;stroke:none" /></g></svg>