<?xml version="1.0" encoding="UTF-8" standalone="no"?>
<svg
   xmlns:dc="http://purl.org/dc/elements/1.1/"
   xmlns:cc="http://creativecommons.org/ns#"
   xmlns:rdf="http://www.w3.org/1999/02/22-rdf-syntax-ns#"
   xmlns:svg="http://www.w3.org/2000/svg"
   xmlns="http://www.w3.org/2000/svg"
   version="1.1"
   id="svg3418"
   viewBox="0 0 95.664818 57.56863"
   height="57.56863mm"
   width="95.664818mm">
  <defs
     id="defs3420">
    <clipPath
       clipPathUnits="userSpaceOnUse"
       id="clipPath3304">
      <path
         d="M 0,0 510,0 510,326 0,326 0,0 Z"
         id="path3306" />
    </clipPath>
    <clipPath
       clipPathUnits="userSpaceOnUse"
       id="clipPath3780">
      <path
         d="m 108.321,28.523 29.695,0 0,18.468 -29.695,0 0,-18.468 z"
         id="path3782" />
    </clipPath>
    <clipPath
       clipPathUnits="userSpaceOnUse"
       id="clipPath3784">
      <path
         d="m 108.321,29.584 28.926,0 0,17.407 -28.926,0 0,-17.407 z"
         id="path3786" />
    </clipPath>
    <clipPath
       clipPathUnits="userSpaceOnUse"
       id="clipPath3788">
      <path
         d="m 108.321,28.523 29.695,0 0,18.468 -29.695,0 0,-18.468 z"
         id="path3790" />
    </clipPath>
  </defs>
  <g
     transform="translate(106.7967,-51.257351)"
     id="layer1">
    <g
       clip-path="url(#clipPath3304)"
       id="g3916"
       transform="matrix(3.3072918,0,0,-3.3072918,-465.04776,206.6703)">
      <g
         id="g7146">
        <g
           clip-path="url(#clipPath3780)"
           id="g7148">
          <path
             d="m 128.57,40.8666 c 0,-0.295 -0.239,-0.534 -0.534,-0.534 -0.295,0 -0.534,0.239 -0.534,0.534 0,0.295 0.239,0.534 0.534,0.534 0.295,0 0.534,-0.239 0.534,-0.534"
             style="fill:#000000;fill-opacity:1;fill-rule:nonzero;stroke:none"
             id="path7150" />
          <path
             d="m 116.7066,38.6063 c -0.18,0.191 -0.479,0.387 -0.898,0.588 -0.282,0.134 -0.473,0.248 -0.571,0.343 -0.106,0.1 -0.158,0.227 -0.158,0.377 0,0.143 0.059,0.258 0.179,0.346 0.119,0.087 0.28,0.131 0.481,0.131 0.406,0 0.768,-0.11 1.085,-0.328 l 0,0.982 c -0.304,0.121 -0.686,0.181 -1.144,0.181 -0.521,0 -0.938,-0.127 -1.251,-0.383 -0.312,-0.255 -0.468,-0.594 -0.468,-1.017 0,-0.581 0.359,-1.041 1.078,-1.381 0.316,-0.147 0.533,-0.269 0.651,-0.365 0.149,-0.125 0.223,-0.263 0.223,-0.414 0,-0.129 -0.05,-0.238 -0.151,-0.325 -0.12,-0.103 -0.299,-0.155 -0.535,-0.155 -0.456,0 -0.871,0.16 -1.246,0.48 l 0,-1.052 c 0.324,-0.175 0.73,-0.263 1.22,-0.263 0.648,0 1.13,0.152 1.446,0.453 0.256,0.246 0.384,0.564 0.384,0.954 0,0.333 -0.108,0.616 -0.325,0.848"
             style="fill:#000000;fill-opacity:1;fill-rule:nonzero;stroke:none"
             id="path7152" />
          <path
             d="m 119.4449,37.2421 c -0.116,-0.063 -0.229,-0.095 -0.338,-0.095 -0.279,0 -0.418,0.175 -0.418,0.525 l 0,1.362 0.756,0 0,0.765 -0.756,0 0,1.023 -1.036,-0.296 0,-0.727 -0.545,0 0,-0.765 0.545,0 0,-1.542 c 0,-0.761 0.367,-1.141 1.098,-1.141 0.307,0 0.539,0.041 0.694,0.121 l 0,0.77 z"
             style="fill:#000000;fill-opacity:1;fill-rule:nonzero;stroke:none"
             id="path7154" />
          <path
             d="m 123.1402,39.7995 -1.036,0 0,-1.926 c 0,-0.226 -0.056,-0.403 -0.17,-0.533 -0.114,-0.129 -0.262,-0.194 -0.444,-0.194 -0.377,0 -0.565,0.238 -0.565,0.714 l 0,1.939 -1.036,0 0,-2.031 c 0,-0.945 0.39,-1.417 1.17,-1.417 0.432,0 0.775,0.198 1.029,0.595 l 0.016,0 0,-0.513 1.036,0 0,3.366 z"
             style="fill:#000000;fill-opacity:1;fill-rule:nonzero;stroke:none"
             id="path7156" />
          <path
             d="m 125.9743,38.0705 c 0,-0.282 -0.068,-0.509 -0.204,-0.681 -0.133,-0.162 -0.303,-0.243 -0.509,-0.243 -0.211,0 -0.377,0.072 -0.5,0.217 -0.138,0.16 -0.207,0.396 -0.207,0.707 0,0.309 0.064,0.556 0.192,0.74 0.128,0.184 0.308,0.276 0.541,0.276 0.204,0 0.369,-0.072 0.497,-0.216 0.126,-0.143 0.19,-0.325 0.19,-0.547 l 0,-0.253 z m -0.02,3.347 0,-2.003 -0.013,0 c -0.171,0.312 -0.473,0.468 -0.907,0.468 -0.454,0 -0.822,-0.165 -1.105,-0.494 -0.287,-0.337 -0.43,-0.786 -0.43,-1.348 0,-0.563 0.143,-0.995 0.43,-1.295 0.252,-0.263 0.576,-0.394 0.97,-0.394 0.458,0 0.806,0.182 1.042,0.546 l 0.013,0 0,-0.464 1.039,0 0,4.984 -1.039,0 z"
             style="fill:#000000;fill-opacity:1;fill-rule:nonzero;stroke:none"
             id="path7158" />
          <path
             d="m 127.51,36.433 1.039,0 0,3.366 -1.039,0 0,-3.366 z"
             style="fill:#000000;fill-opacity:1;fill-rule:nonzero;stroke:none"
             id="path7160" />
          <path
             d="m 130.7911,37.1468 c -0.521,0 -0.783,0.323 -0.783,0.97 0,0.315 0.072,0.557 0.214,0.726 0.136,0.163 0.323,0.244 0.562,0.244 0.502,0 0.753,-0.315 0.753,-0.944 0,-0.664 -0.249,-0.996 -0.746,-0.996 m 1.364,2.229 c -0.322,0.337 -0.772,0.506 -1.351,0.506 -0.559,0 -1.003,-0.151 -1.331,-0.454 -0.346,-0.315 -0.52,-0.757 -0.52,-1.324 0,-0.54 0.16,-0.966 0.48,-1.281 0.32,-0.314 0.762,-0.472 1.325,-0.472 0.574,0 1.026,0.166 1.354,0.497 0.323,0.324 0.484,0.762 0.484,1.315 0,0.497 -0.147,0.902 -0.441,1.213"
             style="fill:#000000;fill-opacity:1;fill-rule:nonzero;stroke:none"
             id="path7162" />
          <path
             d="m 135.1176,38.0905 c -0.141,0.138 -0.362,0.26 -0.664,0.368 -0.206,0.075 -0.343,0.138 -0.411,0.191 -0.077,0.061 -0.115,0.142 -0.115,0.243 0,0.188 0.137,0.283 0.411,0.283 0.287,0 0.561,-0.077 0.821,-0.231 l 0,0.803 c -0.278,0.09 -0.556,0.135 -0.834,0.135 -0.435,0 -0.778,-0.099 -1.032,-0.295 -0.255,-0.196 -0.382,-0.455 -0.382,-0.777 0,-0.263 0.075,-0.475 0.224,-0.635 0.125,-0.134 0.324,-0.252 0.598,-0.354 0.265,-0.101 0.437,-0.181 0.516,-0.237 0.079,-0.057 0.119,-0.131 0.119,-0.221 0,-0.204 -0.165,-0.305 -0.494,-0.305 -0.304,0 -0.625,0.101 -0.963,0.305 l 0,-0.841 c 0.296,-0.114 0.621,-0.171 0.976,-0.171 0.483,0 0.855,0.11 1.118,0.329 0.239,0.197 0.358,0.457 0.358,0.782 0,0.257 -0.082,0.466 -0.246,0.628"
             style="fill:#000000;fill-opacity:1;fill-rule:nonzero;stroke:none"
             id="path7164" />
        </g>
      </g>
      <g
         id="g7166">
        <g
           clip-path="url(#clipPath3784)"
           id="g7168">
          <path
             d="m 124.3376,32.2082 c -0.017,-0.295 -0.296,-0.422 -0.537,-0.499 -0.243,-0.077 -0.516,-0.119 -0.769,-0.071 -0.201,0.038 -0.43,0.123 -0.542,0.306 -0.138,0.229 0.036,0.493 0.247,0.61 0.389,0.216 1.029,0.231 1.416,-0.015 0.138,-0.088 0.192,-0.209 0.185,-0.331"
             style="fill:#000000;fill-opacity:1;fill-rule:nonzero;stroke:none"
             id="path7170" />
          <path
             d="m 136.4637,32.3343 c -0.108,0.084 -0.22,0.163 -0.337,0.234 -0.082,0.051 -0.167,0.098 -0.253,0.142 -2.009,1.011 -6.08,2.117 -12.627,2.292 -1.683,0.045 -9.587,0.161 -14.059,-1.097 -0.056,-0.015 -0.159,-0.044 -0.262,-0.083 -0.168,-0.057 -0.355,-0.135 -0.459,-0.226 -0.227,-0.197 -0.168,-0.483 0.041,-0.592 0.315,-0.164 0.869,-0.087 0.947,-0.075 0.1,0.014 0.199,0.032 0.298,0.051 9.492,1.287 14.651,0.548 17.014,0.189 0.127,-0.02 0.33,-0.022 0.4,-0.152 0.044,-0.082 0.032,-0.193 -0.061,-0.233 -0.051,-0.022 -0.114,-0.028 -0.169,-0.029 -0.13,-10e-4 -0.362,-0.01 -0.621,-0.027 -0.446,-0.016 -0.865,-0.057 -1.073,-0.15 -0.498,-0.221 -0.333,-0.524 -0.311,-0.554 0.103,-0.14 0.268,-0.171 0.429,-0.183 0.155,-0.01 0.57,-0.043 0.725,-0.055 2.379,-0.181 4.71,-0.662 6.974,-1.434 0.624,-0.212 1.213,-0.513 1.857,-0.667 0.182,-0.043 0.367,-0.076 0.554,-0.091 0.459,-0.037 1.042,0.019 1.392,0.357 0.088,0.086 0.175,0.197 0.23,0.308 0.087,0.171 0.135,0.348 0.15,0.527 0.05,0.611 -0.314,1.183 -0.779,1.548"
             style="fill:#000000;fill-opacity:1;fill-rule:nonzero;stroke:none"
             id="path7172" />
        </g>
      </g>
      <g
         id="g7174">
        <g
           clip-path="url(#clipPath3788)"
           id="g7176">
          <path
             d="m 135.1428,41.9682 c -0.127,-0.072 -0.296,-0.109 -0.506,-0.109 -0.587,0 -0.881,0.331 -0.881,0.993 l 0,1.993 -0.578,0 0,0.456 0.578,0 0,0.822 c 0.171,0.055 0.351,0.113 0.539,0.175 l 0,-0.997 0.848,0 0,-0.456 -0.848,0 0,-1.901 c 0,-0.225 0.039,-0.386 0.115,-0.481 0.077,-0.095 0.205,-0.143 0.385,-0.143 0.133,0 0.25,0.036 0.348,0.108 l 0,-0.46 z"
             style="fill:#000000;fill-opacity:1;fill-rule:nonzero;stroke:none"
             id="path7178" />
          <path
             d="m 114.1208,41.9353 -0.552,0 0,3.166 c 0,0.249 0.015,0.554 0.046,0.914 l -0.013,0 c -0.053,-0.211 -0.1,-0.363 -0.142,-0.458 l -1.607,-3.622 -0.269,0 -1.612,3.596 c -0.046,0.101 -0.093,0.262 -0.141,0.484 l -0.013,0 c 0.018,-0.189 0.026,-0.496 0.026,-0.921 l 0,-3.159 -0.532,0 0,4.714 0.729,0 1.447,-3.287 c 0.11,-0.248 0.181,-0.437 0.214,-0.566 l 0.023,0 c 0.094,0.259 0.17,0.452 0.227,0.579 l 1.475,3.274 0.694,0 0,-4.714 z"
             style="fill:#000000;fill-opacity:1;fill-rule:nonzero;stroke:none"
             id="path7180" />
          <path
             d="m 115.015,41.935 0,3.366 0.539,0 0,-3.366 -0.539,0 z m 0.632,4.573 c 0,-0.099 -0.035,-0.182 -0.104,-0.25 -0.069,-0.068 -0.153,-0.102 -0.251,-0.102 -0.097,0 -0.179,0.033 -0.249,0.099 -0.068,0.065 -0.103,0.15 -0.103,0.253 0,0.099 0.035,0.182 0.103,0.248 0.07,0.067 0.152,0.101 0.249,0.101 0.098,0 0.182,-0.034 0.251,-0.101 0.069,-0.066 0.104,-0.149 0.104,-0.248"
             style="fill:#000000;fill-opacity:1;fill-rule:nonzero;stroke:none"
             id="path7182" />
          <path
             d="m 118.6452,42.0896 c -0.259,-0.158 -0.567,-0.236 -0.924,-0.236 -0.482,0 -0.871,0.16 -1.167,0.479 -0.29,0.312 -0.434,0.713 -0.434,1.203 0,0.553 0.158,0.999 0.475,1.339 0.317,0.339 0.742,0.509 1.277,0.509 0.294,0 0.554,-0.057 0.779,-0.171 l 0,-0.552 c -0.249,0.175 -0.517,0.263 -0.802,0.263 -0.342,0 -0.621,-0.12 -0.838,-0.358 -0.226,-0.246 -0.339,-0.572 -0.339,-0.98 0,-0.392 0.104,-0.702 0.311,-0.93 0.207,-0.229 0.485,-0.342 0.834,-0.342 0.293,0 0.569,0.096 0.828,0.289 l 0,-0.513 z"
             style="fill:#000000;fill-opacity:1;fill-rule:nonzero;stroke:none"
             id="path7184" />
          <path
             d="m 121.0813,44.7558 c -0.094,0.072 -0.231,0.109 -0.411,0.109 -0.219,0 -0.403,-0.099 -0.553,-0.296 -0.168,-0.222 -0.253,-0.528 -0.253,-0.918 l 0,-1.716 -0.539,0 0,3.367 0.539,0 0,-0.694 0.014,0 c 0.079,0.245 0.2,0.435 0.364,0.569 0.154,0.123 0.326,0.184 0.517,0.184 0.142,0 0.249,-0.015 0.322,-0.046 l 0,-0.559 z"
             style="fill:#000000;fill-opacity:1;fill-rule:nonzero;stroke:none"
             id="path7186" />
          <path
             d="m 123.9525,43.6118 c 0,0.432 -0.098,0.761 -0.293,0.986 -0.188,0.217 -0.452,0.325 -0.792,0.325 -0.335,0 -0.604,-0.109 -0.805,-0.328 -0.213,-0.235 -0.319,-0.567 -0.319,-0.996 0,-0.403 0.101,-0.719 0.305,-0.945 0.205,-0.227 0.477,-0.34 0.819,-0.34 0.355,0 0.626,0.115 0.812,0.344 0.182,0.224 0.273,0.542 0.273,0.954 m 0.552,0.02 c 0,-0.537 -0.151,-0.968 -0.454,-1.292 -0.302,-0.325 -0.709,-0.487 -1.223,-0.487 -0.506,0 -0.907,0.162 -1.203,0.487 -0.289,0.313 -0.433,0.726 -0.433,1.239 0,0.585 0.164,1.038 0.492,1.358 0.305,0.298 0.713,0.447 1.223,0.447 0.503,0 0.894,-0.156 1.176,-0.467 0.281,-0.311 0.422,-0.74 0.422,-1.285"
             style="fill:#000000;fill-opacity:1;fill-rule:nonzero;stroke:none"
             id="path7188" />
          <path
             d="m 127.0426,42.8361 c 0,-0.276 -0.103,-0.505 -0.309,-0.687 -0.226,-0.198 -0.534,-0.296 -0.923,-0.296 -0.321,0 -0.599,0.068 -0.836,0.204 l 0,0.579 c 0.263,-0.215 0.555,-0.323 0.875,-0.323 0.427,0 0.641,0.157 0.641,0.47 0,0.132 -0.048,0.24 -0.142,0.325 -0.094,0.086 -0.278,0.189 -0.552,0.31 -0.283,0.123 -0.483,0.25 -0.601,0.381 -0.143,0.156 -0.214,0.358 -0.214,0.608 0,0.281 0.11,0.514 0.332,0.699 0.221,0.185 0.506,0.277 0.855,0.277 0.267,0 0.507,-0.052 0.72,-0.157 l 0,-0.542 c -0.222,0.159 -0.476,0.239 -0.763,0.239 -0.18,0 -0.323,-0.043 -0.431,-0.131 -0.107,-0.088 -0.161,-0.201 -0.161,-0.339 0,-0.149 0.045,-0.265 0.135,-0.348 0.081,-0.077 0.25,-0.17 0.506,-0.279 0.287,-0.121 0.494,-0.245 0.622,-0.372 0.164,-0.162 0.246,-0.368 0.246,-0.618"
             style="fill:#000000;fill-opacity:1;fill-rule:nonzero;stroke:none"
             id="path7190" />
          <path
             d="m 130.202,43.6118 c 0,0.432 -0.098,0.761 -0.292,0.986 -0.189,0.217 -0.453,0.325 -0.793,0.325 -0.335,0 -0.604,-0.109 -0.805,-0.328 -0.213,-0.235 -0.319,-0.567 -0.319,-0.996 0,-0.403 0.102,-0.719 0.305,-0.945 0.205,-0.227 0.477,-0.34 0.819,-0.34 0.355,0 0.626,0.115 0.812,0.344 0.182,0.224 0.273,0.542 0.273,0.954 m 0.552,0.02 c 0,-0.537 -0.151,-0.968 -0.454,-1.292 -0.302,-0.325 -0.709,-0.487 -1.223,-0.487 -0.505,0 -0.907,0.162 -1.202,0.487 -0.289,0.313 -0.434,0.726 -0.434,1.239 0,0.585 0.164,1.038 0.492,1.358 0.305,0.298 0.713,0.447 1.223,0.447 0.503,0 0.894,-0.156 1.176,-0.467 0.281,-0.311 0.422,-0.74 0.422,-1.285"
             style="fill:#000000;fill-opacity:1;fill-rule:nonzero;stroke:none"
             id="path7192" />
          <path
             d="m 132.9933,46.4455 c -0.106,0.059 -0.225,0.089 -0.358,0.089 -0.378,0 -0.566,-0.238 -0.566,-0.714 l 0,-0.519 0.789,0 0,-0.457 -0.789,0 0,-2.909 -0.539,0 0,2.909 -0.572,0 0,0.457 0.572,0 0,0.546 c 0,0.37 0.115,0.661 0.345,0.871 0.197,0.182 0.44,0.273 0.727,0.273 0.166,0 0.297,-0.02 0.391,-0.059 l 0,-0.487 z"
             style="fill:#000000;fill-opacity:1;fill-rule:nonzero;stroke:none"
             id="path7194" />
          <path
             d="m 135.753,46.2795 c 0,0.017 -0.002,0.031 -0.006,0.043 -0.004,0.011 -0.011,0.021 -0.022,0.029 -0.01,0.008 -0.024,0.014 -0.043,0.017 -0.018,0.004 -0.041,0.006 -0.069,0.006 l -0.067,0 0,-0.194 0.083,0 c 0.039,0 0.069,0.009 0.091,0.027 0.022,0.017 0.033,0.041 0.033,0.072 m 0.011,-0.468 -0.065,0.16 c -0.006,0.014 -0.012,0.028 -0.019,0.041 -0.007,0.013 -0.015,0.025 -0.023,0.035 -0.009,0.01 -0.017,0.018 -0.027,0.024 -0.009,0.006 -0.02,0.009 -0.031,0.009 l -0.053,0 0,-0.269 -0.12,0 0,0.668 0.202,0 c 0.048,0 0.089,-0.006 0.121,-0.016 0.033,-0.011 0.059,-0.024 0.079,-0.042 0.02,-0.017 0.034,-0.037 0.043,-0.059 0.008,-0.022 0.013,-0.045 0.013,-0.068 0,-0.044 -0.015,-0.082 -0.043,-0.114 -0.028,-0.033 -0.068,-0.055 -0.12,-0.066 l 0,-0.003 c 0.009,-0.002 0.018,-0.005 0.027,-0.01 0.008,-0.004 0.016,-0.011 0.025,-0.02 0.008,-0.009 0.017,-0.02 0.026,-0.034 0.009,-0.014 0.019,-0.032 0.029,-0.054 l 0.086,-0.182 -0.15,0 z m 0.345,0.327 c 0,0.068 -0.012,0.129 -0.036,0.186 -0.024,0.056 -0.057,0.105 -0.099,0.146 -0.041,0.041 -0.09,0.072 -0.146,0.095 -0.056,0.023 -0.116,0.034 -0.18,0.034 -0.069,0 -0.131,-0.012 -0.188,-0.035 -0.057,-0.024 -0.106,-0.057 -0.147,-0.098 -0.041,-0.042 -0.073,-0.091 -0.095,-0.147 -0.022,-0.055 -0.034,-0.116 -0.034,-0.181 0,-0.068 0.012,-0.13 0.037,-0.187 0.024,-0.057 0.058,-0.106 0.099,-0.147 0.042,-0.041 0.091,-0.072 0.148,-0.095 0.056,-0.022 0.116,-0.033 0.18,-0.033 0.063,0 0.122,0.011 0.178,0.034 0.057,0.023 0.105,0.055 0.147,0.096 0.042,0.041 0.075,0.09 0.1,0.147 0.024,0.056 0.036,0.118 0.036,0.185 m 0.076,0.003 c 0,-0.05 -0.007,-0.098 -0.019,-0.143 -0.013,-0.046 -0.031,-0.089 -0.053,-0.128 -0.023,-0.039 -0.051,-0.074 -0.084,-0.106 -0.032,-0.031 -0.068,-0.059 -0.108,-0.081 -0.04,-0.022 -0.083,-0.04 -0.13,-0.052 -0.046,-0.012 -0.095,-0.018 -0.146,-0.018 -0.078,0 -0.149,0.013 -0.215,0.039 -0.065,0.026 -0.122,0.062 -0.169,0.108 -0.047,0.046 -0.084,0.102 -0.111,0.166 -0.026,0.064 -0.039,0.134 -0.039,0.211 0,0.049 0.006,0.097 0.018,0.142 0.012,0.045 0.03,0.088 0.052,0.127 0.023,0.039 0.05,0.074 0.082,0.106 0.033,0.032 0.069,0.06 0.109,0.083 0.04,0.023 0.083,0.04 0.13,0.052 0.047,0.013 0.097,0.019 0.149,0.019 0.074,0 0.143,-0.013 0.208,-0.037 0.065,-0.025 0.121,-0.061 0.169,-0.107 0.049,-0.045 0.087,-0.101 0.115,-0.165 0.028,-0.065 0.042,-0.137 0.042,-0.216"
             style="fill:#000000;fill-opacity:1;fill-rule:nonzero;stroke:none"
             id="path7196" />
        </g>
      </g>
    </g>
  </g>
</svg>
