<!DOCTYPE svg PUBLIC "-//W3C//DTD SVG 1.1//EN" "http://www.w3.org/Graphics/SVG/1.1/DTD/svg11.dtd">
<svg version="1.1" id="Layer_1" xmlns="http://www.w3.org/2000/svg" xmlns:xlink="http://www.w3.org/1999/xlink" x="0px" y="0px"
	 width="371.914px" height="57.671px" viewBox="0 0 371.914 57.671" enable-background="new 0 0 371.914 57.671"
	 xml:space="preserve">
<g>
	<g>
		<path fill="#DB1F29" d="M57.355,0.316h-11.93H16.519C7.396,0.316,0,7.713,0,16.834v35.281v5.556h0h6.366h34.47
			c9.124,0,16.519-7.396,16.519-16.518V7.38L57.355,0.316L57.355,0.316z"/>
		<g>
			<path fill="#FFFFFF" d="M13.772,48.104c-4.892,0-4.892-4.892-4.892-4.892s0-19.571,0-24.466c0-4.893,4.892-4.893,4.892-4.893
				s4.893,0,9.786,0c4.894,0,9.786,4.893,9.786,4.893s4.894,0,0,0c0-14.251,4.501,5.285,9.786,0
				c3.46-3.459,4.893,17.125,4.893,17.125l-4.893-2.444c0,0,0-4.894-7.339-9.786c-9.104-6.071-19.572-2.071-19.572,7.338
				c0,19.196,31.804,12.233,31.804,12.233s0,4.892-4.893,4.892C38.238,48.104,13.772,48.104,13.772,48.104z"/>
			<path fill="#FFFFFF" d="M38.238,13.854c0-1.35,1.095-7.34,2.445-7.34c1.352,0,2.446,5.99,2.446,7.34
				c0,1.353-1.095,2.447-2.446,2.447C39.333,16.301,38.238,15.207,38.238,13.854z"/>
		</g>
	</g>
	<g>
		<g>
			<polygon points="105.714,56.675 105.714,21.379 93.342,39.77 87.85,39.77 75.479,21.379 75.479,56.675 65.629,56.675
				65.629,0.996 73.528,0.996 90.637,26.182 107.747,0.996 115.492,0.996 115.492,56.675 			"/>
		</g>
		<g>
			<path d="M149.727,57.671c-7.744,0-14.943-3.021-20.271-8.507c-5.375-5.545-8.333-12.763-8.333-20.325
				c0-7.57,2.959-14.788,8.333-20.325C134.783,3.101,142.169,0,149.727,0c7.636,0,14.858,3.02,20.337,8.502
				c5.384,5.549,8.343,12.767,8.343,20.336c0,7.562-2.958,14.781-8.332,20.325C164.663,54.652,157.439,57.671,149.727,57.671z
				 M149.727,10.005c-4.919,0-9.567,1.979-13.088,5.574c-3.56,3.484-5.512,8.188-5.512,13.26c0,5.069,1.952,9.77,5.496,13.237
				c3.531,3.61,8.179,5.59,13.104,5.59c4.947,0,9.774-2.031,13.242-5.573c3.506-3.51,5.433-8.215,5.433-13.254
				c0-5.042-1.927-9.75-5.426-13.252C159.496,12.037,154.669,10.005,149.727,10.005z"/>
		</g>
		<g>
			<path d="M180.215,56.675v-9.396h1.062c16.254,0,19.52-5.682,19.52-14.848V10.236h-20.582V1.071h30.432v31.36
				c0,16.993-8.783,24.243-29.369,24.243H180.215z"/>
		</g>
		<g>
			<path d="M253.239,56.675l-5.128-13.543h-20.26l-5.204,13.543h-10.633l22.34-56.363h7.106l22.34,56.363H253.239z M244.477,33.744
				l-6.491-17.066l-6.491,17.066H244.477z"/>
		</g>
		<g>
			<polygon points="301.564,56.675 277.327,21.607 277.327,56.675 267.474,56.675 267.474,0.996 275.062,0.996 299.529,36.372
				299.529,0.996 309.305,0.996 309.305,56.675 			"/>
		</g>
		<g>
			<path d="M343.234,57.671c-7.744,0-14.943-3.021-20.271-8.506c-5.375-5.546-8.334-12.764-8.334-20.326
				c0-7.57,2.959-14.788,8.332-20.325C328.29,3.101,335.677,0,343.234,0c7.634,0,14.857,3.02,20.337,8.502
				c1.944,2.005,3.586,4.245,4.891,6.671l0.842,1.566h-11.782l-0.501-0.563c-0.175-0.201-0.351-0.402-0.539-0.591
				c-3.479-3.549-8.305-5.58-13.247-5.58c-4.919,0-9.567,1.979-13.089,5.574c-3.559,3.484-5.511,8.188-5.511,13.26
				c0,5.069,1.952,9.77,5.496,13.237c3.53,3.61,8.179,5.59,13.104,5.59c4.947,0,9.773-2.031,13.24-5.573
				c2.377-2.379,4.036-5.329,4.85-8.598h-20.991V23.49h31.095l0.14,0.899c0.229,1.469,0.347,2.965,0.347,4.45
				c0,7.562-2.959,14.78-8.331,20.325C358.17,54.652,350.946,57.671,343.234,57.671z"/>
		</g>
	</g>
</g>
</svg>
