<?xml version="1.0" encoding="utf-8"?>
<!-- Generator: Adobe Illustrator 12.0.0, SVG Export Plug-In . SVG Version: 6.00 Build 51448)  -->
<!DOCTYPE svg PUBLIC "-//W3C//DTD SVG 1.1//EN" "http://www.w3.org/Graphics/SVG/1.1/DTD/svg11.dtd" [
	<!ENTITY ns_svg "http://www.w3.org/2000/svg">
	<!ENTITY ns_xlink "http://www.w3.org/1999/xlink">
]>
<svg  version="1.1" id="Layer_1" xmlns="&ns_svg;" xmlns:xlink="&ns_xlink;" width="802.941" height="204.153"
	 viewBox="0 0 802.941 204.153" overflow="visible" enable-background="new 0 0 802.941 204.153" xml:space="preserve">
<g>
	<g>
		<g>
			<g>
				<polygon fill="#A6A6A6" points="28.915,100.732 28.949,69.033 52.82,85.151 				"/>
				<polygon fill="#7F7F7F" points="75.609,137.983 48.28,119.827 75.597,100.535 				"/>
				<polygon fill="#2F2386" points="137.596,62.812 103.756,85.264 7.185,21.259 41.917,0 				"/>
				<polygon fill="#A6A6A6" points="137.596,97.116 103.756,119.424 103.742,85.264 137.596,62.812 				"/>
				<polygon fill="#FFFFFF" points="75.609,137.983 103.756,119.424 103.756,85.264 7.185,21.259 7.213,114.904 28.915,100.732 
					28.936,69.014 75.609,100.535 				"/>
				<polygon fill="#7F7F7F" points="160.832,145.135 73.649,204.153 73.638,169.385 160.819,111.788 				"/>
				<polygon fill="#FFFFFF" points="73.636,169.385 73.649,204.153 0.059,152.49 0,119.6 				"/>
				<polygon fill="#F9B314" points="160.819,111.788 137.596,97.116 75.609,137.983 48.28,119.81 75.597,100.535 52.82,85.151 
					0,119.6 73.636,169.385 				"/>
			</g>
		</g>
	</g>
	<g>
		<g>
			<g>
				<g>
					<path d="M295.729,125.563V76.749c0-4.83,3.914-8.808,8.706-8.866l71.59-0.008c0.982,0,1.79,0.799,1.79,1.802l-0.011,9.924
						c0,0.997-0.771,1.761-1.75,1.761l-50.38-0.021c-0.099,0-2.848-0.032-4.815,1.896c-1.235,1.185-1.859,2.915-1.859,5.049v25.858
						c0,5.36,3.759,6.774,5.762,6.774l51.292,0.018c1.698,0,1.761,1.327,1.761,1.74v9.904c0,0.922-0.833,1.773-1.702,1.876
						c-0.134,0-71.742,0-71.742,0C299.615,134.394,295.729,130.413,295.729,125.563z"/>
					<path d="M274.296,67.858c4.204,0,7.648,3.446,7.648,7.644l0,0l-0.015,58.875h-23.269l-0.029-48.249
						c-0.069-4.843-4.297-4.787-4.325-4.787h-37.343v53.036h-23.932V67.875L274.296,67.858z"/>
					<path d="M450.856,116.625v-5.145c0-2.352-1.92-4.26-4.271-4.26l-47.121-0.02c-4.976,0-9.044-4.059-9.044-9.038V76.949
						c0-4.999,4.068-9.051,9.044-9.051h71.138c0.997,0,1.802,0.802,1.802,1.778v9.818c0,0.99-0.805,1.79-1.802,1.79h-54.276
						c-2.357,0-4.257,1.924-4.257,4.275v3.551c0,2.245,1.628,4.62,4.197,4.62l47.513-0.016c5.029,0,8.963,3.801,8.963,8.668
						l-0.034,23.008c0,5.003-4.078,9.065-9.061,9.065l-71.247,0.01c-1.407,0-1.796-1.344-1.796-2.146v-9.636
						c0-0.982,0.796-1.787,1.796-1.787h54.184C448.937,120.897,450.856,118.994,450.856,116.625z"/>
					<path d="M563.952,67.673h-69.569c-4.803,0.047-8.678,3.968-8.678,8.75v49.437c0,4.752,3.875,8.68,8.651,8.738h69.596
						c4.771-0.059,8.657-3.986,8.657-8.738V76.423C572.609,71.641,568.723,67.72,563.952,67.673z M549.827,115.848
						c0,3.095-1.881,5.25-4.594,5.25h-31.726c-2.614,0-4.754-2.155-4.754-4.771V85.91c0-2.636,2.134-4.786,4.754-4.786l31.771,0.014
						c2.549,0,4.567,1.877,4.567,4.286L549.827,115.848z"/>
					<path d="M585.571,76.706c0-4.733,4.079-8.765,8.918-8.823l75.457-0.025c0.871,0,1.623,0.727,1.623,1.617v10.126
						c0,0.997-0.752,1.74-1.729,1.74h-54.771c-0.107,0-2.898-0.056-4.859,1.868c-1.207,1.165-1.821,2.808-1.821,4.867v7.544
						l57.341,0.006c0.897,0,1.624,0.743,1.624,1.63v10.185c0,0.982-0.74,1.734-1.736,1.734h-57.248c0,0,0.02,25.192,0,25.202
						c0-0.01-22.783,0.018-22.797,0C585.545,134.354,585.571,76.706,585.571,76.706z"/>
					<path d="M680.98,81.27c-0.982,0-1.802-0.804-1.802-1.805v-9.817c0-1.003,0.819-1.79,1.802-1.79h85.958
						c0.996,0,1.796,0.787,1.796,1.79l0.007,9.817c0,0.987-0.799,1.785-1.803,1.785h-25.061l0,0c-3.662,0-6.658,2.977-6.658,6.656
						c0,0,0.006,47.41,0.014,47.417c-0.008-0.007-22.771-0.007-22.777,0c0.007-0.007,0-47.379,0-47.379
						c0-3.683-3.003-6.673-6.68-6.673H680.98z"/>
				</g>
			</g>
			<g>
				<path d="M791.742,63.042c2.64,0,4.896,0.955,6.716,2.823c1.896,1.889,2.872,4.126,2.872,6.773c0,2.661-0.976,4.927-2.872,6.792
					c-1.819,1.855-4.057,2.845-6.716,2.845c-2.694,0-4.997-0.99-6.811-2.845c-1.85-1.865-2.799-4.131-2.799-6.792
					c0-2.647,0.949-4.884,2.825-6.773C786.817,63.997,789.048,63.042,791.742,63.042z M802.941,72.637
					c0-3.127-1.135-5.682-3.306-7.854c-2.199-2.184-4.792-3.247-7.894-3.247c-3.09,0-5.71,1.063-7.842,3.247
					c-2.131,2.172-3.293,4.727-3.293,7.854c0,3.089,1.142,5.762,3.253,7.86c2.172,2.199,4.792,3.293,7.882,3.293
					c3.102,0,5.694-1.095,7.894-3.293C801.807,78.399,802.941,75.68,802.941,72.637z"/>
				<g>
					<path d="M787.108,66.556h4.68c1.34-0.017,2.718-0.017,3.694,0.821c0.767,0.666,1.063,1.552,1.063,2.35
						c0,2.278-1.953,2.825-2.547,2.99c1.841,0.172,1.979,1.216,2.196,2.809c0.186,1.424,0.283,2.017,0.378,2.365
						c0.138,0.536,0.229,0.668,0.362,0.869h-2.897c-0.112-0.676-0.481-3.758-0.648-4.241c-0.23-0.689-0.877-0.689-1.313-0.689
						h-2.297v4.93h-2.672V66.556z M789.702,71.894h2.092c0.317,0,0.918,0,1.334-0.332c0.204-0.146,0.686-0.558,0.686-1.427
						c0-0.821-0.409-1.222-0.641-1.372c-0.409-0.292-0.897-0.292-1.716-0.292h-1.755V71.894z"/>
				</g>
			</g>
		</g>
	</g>
</g>
</svg>
