<?xml version="1.0" encoding="UTF-8" standalone="no"?>
<svg
   xmlns:dc="http://purl.org/dc/elements/1.1/"
   xmlns:cc="http://creativecommons.org/ns#"
   xmlns:rdf="http://www.w3.org/1999/02/22-rdf-syntax-ns#"
   xmlns:svg="http://www.w3.org/2000/svg"
   xmlns="http://www.w3.org/2000/svg"
   version="1.1"
   id="svg2"
   viewBox="0 0 169.91001 39.564999"
   height="39.564999"
   width="169.91">
  <defs
     id="defs4">
    <clipPath
       clipPathUnits="userSpaceOnUse"
       id="clipPath4024">
      <path
         d="m 345.26,56.789 135.931,0 0,31.652 -135.931,0 0,-31.652 z"
         id="path4026" />
    </clipPath>
    <clipPath
       clipPathUnits="userSpaceOnUse"
       id="clipPath4044">
      <path
         d="m 345.26,56.789 135.928,0 0,31.652 -135.928,0 0,-31.652 z"
         id="path4046" />
    </clipPath>
    <clipPath
       clipPathUnits="userSpaceOnUse"
       id="clipPath4060">
      <path
         d="m 345.26,56.789 135.931,0 0,31.652 -135.931,0 0,-31.652 z"
         id="path4062" />
    </clipPath>
    <clipPath
       clipPathUnits="userSpaceOnUse"
       id="clipPath4136">
      <path
         d="m 345.26,56.789 135.928,0 0,31.652 -135.928,0 0,-31.652 z"
         id="path4138" />
    </clipPath>
  </defs>
  <metadata
     id="metadata7">
    <rdf:RDF>
      <cc:Work
         rdf:about="">
        <dc:format>image/svg+xml</dc:format>
        <dc:type
           rdf:resource="http://purl.org/dc/dcmitype/StillImage" />
        <dc:title></dc:title>
      </cc:Work>
    </rdf:RDF>
  </metadata>
  <g
     transform="translate(-360.86072,-673.9543)"
     id="layer1">
    <g
       transform="matrix(1.25,0,0,-1.25,-70.714283,784.50567)"
       id="g4020">
      <g
         clip-path="url(#clipPath4024)"
         id="g4022">
        <g
           transform="translate(460.7914,88.441)"
           id="g4028">
          <path
             id="path4030"
             style="fill:#231f20;fill-opacity:1;fill-rule:nonzero;stroke:none"
             d="m 0,0 c 1.694,-1.105 3.05,-2.765 4.275,-4.356 0.457,-0.349 0.915,-0.699 1.372,-1.049 1.37,-1.721 3.1,-3.071 4.436,-4.84 0.511,-0.483 1.022,-0.968 1.533,-1.452 0.646,-0.855 1.3,-1.594 1.936,-2.5 0.206,-0.294 0.512,-0.503 0.645,-0.887 l 0.081,0 0,2.984 c -0.398,0.641 0.14,1.926 0.081,2.501 -0.109,1.04 -0.1,2.19 -0.162,3.388 -0.027,0.215 -0.054,0.43 -0.081,0.645 0.27,1.377 0.344,2.808 0.081,4.195 0.081,0.027 0.162,0.053 0.242,0.08 0.273,0.175 2.679,0.205 2.904,0.162 0.043,-0.123 0.054,-0.137 0.081,-0.323 -0.522,-0.746 -0.324,-2.402 -0.081,-3.388 0.064,-0.259 0.253,-0.661 0.161,-1.049 -0.241,-1.028 -0.244,-2.396 0,-3.468 0.13,-0.569 -0.155,-0.965 -0.242,-1.291 -0.16,-0.606 0.216,-2.322 0.323,-2.904 0.098,-0.53 -0.126,-2.715 -0.242,-3.226 -0.318,-1.405 -0.081,-3.223 -0.081,-4.76 l -0.08,0 0,0.081 c -2.509,2.361 -5.327,4.487 -7.421,7.26 -0.512,0.677 -1.342,1.175 -1.856,1.855 -0.774,1.025 -1.678,2.001 -2.581,2.904 -0.403,0.377 -0.807,0.753 -1.21,1.129 -0.434,0.628 -0.748,1.35 -1.371,1.775 l 0,-0.726 c 0.58,-0.933 -0.348,-2.881 -0.081,-4.114 0.324,-1.497 0.429,-3.488 0.403,-5.162 l 0,-1.775 c -0.157,-0.717 -0.365,-1.422 -0.403,-2.178 -0.31,-0.195 -0.55,-0.253 -1.129,-0.242 -0.272,0.176 -0.98,0.163 -1.372,0.161 l 0,0.162 c -0.901,1.195 0.039,3.712 -0.322,5.404 -0.083,0.389 -0.224,1.459 -0.162,1.856 0.098,0.624 0.559,1.49 0.404,2.258 -0.096,0.474 0.042,1.281 -0.081,1.855 -0.096,0.451 0.037,1.224 -0.081,1.775 -0.196,0.92 -0.189,2.103 0,2.985 -0.027,0.511 -0.053,1.022 -0.08,1.532 C -0.108,-1.829 -0.054,-0.914 0,0" />
        </g>
        <g
           transform="translate(392.3871,87.7956)"
           id="g4032">
          <path
             id="path4034"
             style="fill:#231f20;fill-opacity:1;fill-rule:nonzero;stroke:none"
             d="M 0,0 C 2.51,0.051 5.027,-1.198 5.324,-3.307 5.269,-3.37 5.218,-3.487 5.162,-3.549 4.765,-3.959 3.892,-4.605 3.227,-4.679 3.023,-4.436 2.48,-3.599 2.258,-3.469 1.883,-3.248 1.496,-3.289 1.049,-3.146 0,-2.81 -0.439,-2.815 -1.372,-3.388 c -0.291,-0.179 -0.569,-0.169 -0.725,-0.484 -0.332,-0.422 -0.58,-1.217 -0.726,-1.775 0.564,-0.618 1.129,-1.237 1.694,-1.855 0.507,-0.329 1.242,-0.153 1.855,-0.403 0.479,-0.195 0.86,-0.785 1.29,-1.049 0.538,-0.161 1.076,-0.323 1.614,-0.484 0.726,-0.941 1.452,-1.882 2.178,-2.823 l 0,-1.371 c 0.09,-0.417 0.443,-1.33 0.323,-1.775 -0.104,-0.382 -0.599,-0.948 -0.807,-1.291 -0.404,-0.665 -0.524,-1.431 -0.968,-2.016 -0.509,-0.671 -1.226,-0.702 -2.098,-1.049 -0.487,-0.194 -1.037,-0.588 -1.532,-0.726 -0.559,-0.156 -2.941,0.074 -3.388,0.242 -0.731,0.274 -1.624,1.456 -2.259,1.936 -0.192,0.146 -0.492,0.226 -0.645,0.403 -0.081,0.296 -0.161,0.592 -0.242,0.888 -0.2,0.49 -1.086,1.623 -0.887,2.097 0.027,0.081 0.053,0.161 0.08,0.242 0.834,0.188 1.667,0.376 2.501,0.565 0.36,-0.119 0.401,-0.941 0.565,-1.291 0.164,-0.353 1.215,-1.793 1.613,-1.855 0.236,-0.158 2.25,-0.485 2.5,-0.323 2.49,0.806 3.161,4.561 0.807,6.05 -0.403,0.107 -0.807,0.215 -1.21,0.322 -0.718,0.302 -1.457,0.821 -2.097,1.21 -0.844,0.514 -1.826,0.717 -2.581,1.291 -0.416,0.316 -0.428,0.838 -0.646,1.371 -0.227,0.558 -0.638,1.307 -0.806,1.856 -0.17,0.553 0.201,1.072 0.322,1.371 0.185,0.453 0.171,0.874 0.404,1.291 0.238,0.428 0.76,0.747 1.048,1.129 0.172,0.228 0.321,0.588 0.565,0.726 0.558,0.316 1.205,0.274 1.855,0.484 0.282,0.091 0.684,0.326 0.968,0.403 C -0.519,-0.002 -0.196,-0.12 0,0" />
        </g>
        <g
           transform="translate(403.519,87.3923)"
           id="g4036">
          <path
             id="path4038"
             style="fill:#231f20;fill-opacity:1;fill-rule:nonzero;stroke:none"
             d="M 0,0 C 0.811,0.004 1.637,-0.048 2.339,-0.081 2.366,-0.161 2.393,-0.242 2.42,-0.323 2.69,-0.762 2.412,-1.744 2.501,-2.339 2.67,-3.475 2.662,-4.75 2.662,-6.05 c 0,-4.598 0.07,-9.146 0,-13.471 -0.118,-0.069 -0.231,-0.146 -0.323,-0.242 l -2.662,0 c -0.122,0.226 -0.165,0.4 -0.161,0.807 0.422,0.682 0.179,3.375 0.081,4.436 -0.081,0.807 -0.162,1.614 -0.242,2.42 0.284,1.262 0.447,3.485 0.242,4.84 l 0,2.339 c -0.157,1.048 -0.245,4.114 0.242,4.76 C -0.102,-0.091 -0.06,-0.07 0,0" />
        </g>
      </g>
    </g>
    <g
       transform="matrix(1.25,0,0,-1.25,-70.714283,784.50567)"
       id="g4040">
      <g
         clip-path="url(#clipPath4044)"
         id="g4042">
        <g
           transform="translate(431.5904,87.3923)"
           id="g4048">
          <path
             id="path4050"
             style="fill:#231f20;fill-opacity:1;fill-rule:nonzero;stroke:none"
             d="M 0,0 C 0.861,-0.027 1.721,-0.054 2.581,-0.081 2.776,-0.391 2.835,-0.631 2.823,-1.21 3.215,-1.844 2.691,-4.595 2.904,-5.566 3.012,-6.615 3.119,-7.663 3.227,-8.712 3.184,-8.987 2.895,-9.409 2.823,-9.68 c -0.055,-0.21 0.063,-0.479 0.081,-0.565 0.027,-0.887 0.054,-1.774 0.081,-2.661 -0.015,-2.007 -0.158,-4.243 -0.162,-6.454 -0.195,-0.105 -0.228,-0.145 -0.564,-0.161 -0.366,-0.236 -1.483,-0.091 -2.017,-0.081 -0.386,0.684 -0.673,3.534 -0.403,4.76 0.133,0.606 0.059,1.521 0.08,2.258 0.074,2.497 -0.579,6.252 0,8.712 C 0.242,-2.502 -0.537,-1.051 0,0" />
        </g>
        <g
           transform="translate(362.7021,76.4219)"
           id="g4052">
          <path
             id="path4054"
             style="fill:#231f20;fill-opacity:1;fill-rule:nonzero;stroke:none"
             d="m 0,0 0,-1.21 c -0.12,-0.302 -0.542,-0.624 -0.726,-0.887 -0.356,-0.509 -0.538,-1.252 -0.968,-1.694 -0.862,-0.887 -2.345,-1.452 -3.63,-1.936 -0.451,-0.17 -1.327,-0.777 -1.936,-0.646 -0.365,0.079 -0.79,0.46 -1.129,0.565 l -1.694,0 c -0.607,0.205 -1.258,1.017 -1.694,1.452 -0.617,0.616 -1.575,1.263 -1.936,2.097 -0.975,2.252 -0.377,6.802 0.887,8.47 0.434,0.573 2.893,1.885 3.711,2.178 0.388,0.139 1.113,-0.041 1.452,0.161 1.337,0.002 2.505,-0.009 3.468,-0.403 0.933,-0.381 2.658,-2.366 3.388,-3.146 0.341,-0.442 0.18,-1.292 0.404,-1.855 C -0.255,2.772 0.129,2.369 0.242,2.017 0.418,1.47 0.099,0.471 0,0 m 2.097,5.727 c -0.44,1.047 -1.262,1.538 -2.016,2.259 -0.377,0.484 -0.753,0.968 -1.13,1.452 -1.757,1.222 -4.422,1.908 -7.34,1.936 -0.717,-0.557 -2.899,-0.875 -3.872,-1.291 -1.938,-0.828 -2.969,-2.322 -4.033,-4.033 -0.116,-0.186 -0.408,-0.435 -0.484,-0.645 -0.054,-0.511 -0.108,-1.022 -0.162,-1.533 -0.122,-0.505 -0.411,-1.173 -0.484,-1.613 -0.083,-0.509 0.136,-1.604 0.242,-2.098 0.027,-0.484 0.054,-0.968 0.081,-1.452 0.543,-2.035 1.586,-3.385 2.662,-4.84 0.105,-0.142 0.116,-0.367 0.242,-0.484 0.517,-0.48 1.403,-0.593 2.016,-0.968 0.554,-0.338 1.168,-0.875 1.775,-1.129 1.286,-0.537 5.209,-0.454 6.695,0 0.485,0.148 1.332,0.43 1.775,0.726 0.51,0.341 0.881,1.001 1.371,1.371 3.376,2.55 4.686,7.532 2.662,12.342" />
        </g>
      </g>
    </g>
    <g
       transform="matrix(1.25,0,0,-1.25,-70.714283,784.50567)"
       id="g4056">
      <g
         clip-path="url(#clipPath4060)"
         id="g4058">
        <g
           transform="translate(423.6046,76.3411)"
           id="g4064">
          <path
             id="path4066"
             style="fill:#231f20;fill-opacity:1;fill-rule:nonzero;stroke:none"
             d="m 0,0 c -0.207,-0.918 -0.344,-2.333 -0.807,-2.985 -0.258,-0.669 -1.96,-1.139 -2.339,-2.178 -0.719,-0.021 -3.946,-0.392 -4.356,-0.645 -0.451,-0.017 -1.079,-0.077 -1.291,0.161 -0.214,0.463 0.219,2.092 0,2.985 -0.095,0.392 -0.379,0.962 -0.242,1.533 0.135,0.51 0.269,1.021 0.404,1.532 -0.06,0.412 -0.378,0.91 -0.484,1.291 -0.438,1.574 0.006,3.921 0.322,5.082 0.099,0.359 -0.141,0.849 0.081,1.21 0.027,0.081 0.054,0.161 0.081,0.242 0.18,0.033 0.584,0.069 0.726,0.161 0.941,-0.08 1.882,-0.161 2.823,-0.242 0.393,-0.138 0.852,-0.59 1.21,-0.806 C -3.245,6.96 -2.468,6.872 -1.855,6.453 -0.86,5.772 -0.585,4.432 -0.081,3.227 -0.029,3.104 0.247,2.728 0.242,2.581 0.219,1.915 0.158,0.7 0,0 m 3.227,3.227 0,0.806 c -0.134,0.421 -0.55,0.883 -0.726,1.291 -2.21,5.11 -6.993,5.913 -14.359,5.808 -0.325,-0.759 0.315,-1.533 0.081,-2.501 -0.434,-1.796 -0.506,-5.122 -0.081,-7.098 0.23,-1.071 -0.247,-1.892 -0.403,-2.501 -0.134,-0.522 0.232,-1.079 0.323,-1.452 l 0,-3.872 c 0,-0.41 -0.087,-1.102 0.08,-1.371 -0.006,-0.577 0.074,-0.794 0.242,-1.13 l 4.033,0 c 0.537,0.124 1.794,0.418 2.259,0.404 0.266,-0.008 0.905,-0.208 1.291,-0.081 0.683,0.225 1.282,0.889 1.936,1.129 0.41,0.151 1.007,0.024 1.371,0.242 1.184,0.002 1.551,1.201 2.017,1.936 0.179,0.284 0.505,0.563 0.645,0.888 0.218,0.507 0.214,1.014 0.484,1.452 0.217,0.351 0.67,0.718 0.807,1.129 l 0,0.807 c 0.311,1.394 0.299,2.792 0,4.114" />
        </g>
        <g
           transform="translate(450.7083,75.1312)"
           id="g4068">
          <path
             id="path4070"
             style="fill:#231f20;fill-opacity:1;fill-rule:nonzero;stroke:none"
             d="m 0,0 c -0.673,-0.011 -2.183,-0.225 -2.662,0.081 l -3.227,0 c 0.611,1.249 1.045,2.66 1.614,3.952 0.39,0.887 1.151,1.919 1.29,2.985 C -2.209,6.4 -1.899,4.644 -1.533,3.549 -1.454,3.315 -1.124,2.748 -1.129,2.501 -1.183,2.393 -1.237,2.285 -1.291,2.178 -1.216,1.92 -0.151,0.513 0.081,0.323 0.054,0.137 0.043,0.122 0,0 M 4.84,-3.711 C 4.473,-2.875 4.041,-2.146 3.711,-1.371 3.029,0.227 2.635,1.742 1.775,3.146 1.258,3.99 0.531,4.834 0.161,5.808 0.027,6.453 -0.108,7.099 -0.242,7.744 c -0.247,0.73 -0.746,1.487 -1.049,2.178 -0.173,0.394 -0.114,0.793 -0.322,1.21 -0.121,0.241 -0.486,0.503 -0.646,0.726 -0.295,0.412 -0.469,1.008 -0.968,1.21 -0.238,-0.827 -0.877,-1.5 -1.21,-2.259 C -4.849,9.869 -4.969,8.875 -5.405,7.905 -5.778,7.073 -6.551,6.332 -7.018,5.566 -7.535,4.717 -7.381,3.51 -7.825,2.581 -7.973,2.271 -8.415,2.02 -8.551,1.694 -8.658,1.156 -8.766,0.618 -8.873,0.081 c -0.19,-0.487 -0.716,-0.859 -0.968,-1.291 -0.216,-0.369 -0.097,-0.839 -0.242,-1.291 -0.125,-0.388 -0.451,-0.66 -0.646,-0.968 -0.489,-0.772 -0.878,-1.41 -1.209,-2.339 -0.121,-0.338 -0.518,-1.039 -0.323,-1.371 l 0,-0.162 c 0.625,-0.012 2.304,-0.23 2.662,0 0.506,0.179 0.467,0.628 0.726,1.049 0.681,1.11 1.263,2.491 1.936,3.63 1.693,0.335 3.96,0.081 5.808,0.081 0.564,0 1.703,0.167 2.097,-0.081 0.496,-0.188 0.517,-0.813 0.726,-1.291 0.322,-0.735 1.36,-3.227 2.017,-3.468 0.195,-0.138 1.014,-0.14 1.21,0 0.434,-0.006 0.979,-0.026 1.29,0.08 -0.08,1.43 -0.903,2.565 -1.371,3.63" />
        </g>
        <g
           transform="translate(378.3513,71.9045)"
           id="g4072">
          <path
             id="path4074"
             style="fill:#231f20;fill-opacity:1;fill-rule:nonzero;stroke:none"
             d="m 0,0 c -0.316,-0.512 -0.982,-1.032 -1.613,-1.21 -0.851,-0.24 -2.192,0.258 -2.904,-0.161 -0.364,0.021 -0.388,0.085 -0.646,0.161 -10e-4,1.037 -0.228,1.919 0,2.985 0.059,0.274 0.186,0.974 0.081,1.371 -0.124,0.466 -0.176,0.654 -0.161,1.291 0.967,0.026 1.936,0.053 2.904,0.08 0.404,-0.126 1.864,-0.911 2.097,-1.21 C 0.381,2.507 0.503,0.815 0,0 m -5.163,12.1 c 0.001,0.385 0.045,0.51 0.162,0.726 2.059,-0.122 3.06,-0.476 3.63,-2.178 C -1.243,10.265 -0.973,9.654 -1.21,9.115 -1.236,9.056 -1.898,7.866 -1.936,7.825 -2.268,7.47 -2.918,7.397 -3.307,7.099 -3.739,7.088 -4.558,6.995 -4.84,7.179 -5.014,7.435 -4.908,7.787 -5.001,8.147 -5.173,8.807 -5.437,11.681 -5.163,12.1 M 3.469,2.259 C 3.358,2.757 3.476,3.139 3.307,3.549 2.906,4.521 1.209,6.321 0,6.453 0.344,6.922 1.158,7.167 1.371,7.744 1.398,8.12 1.425,8.497 1.452,8.873 c 0.094,0.393 0.558,1.509 0.484,1.856 -0.117,0.545 -0.899,2.366 -1.21,2.823 -0.3,0.44 -0.993,0.676 -1.452,0.968 -0.271,0.172 -0.565,0.539 -0.887,0.645 l -1.049,0 c -1.554,0.347 -3.529,0.225 -5.324,0.403 -0.273,-0.583 0.404,-0.917 0.242,-1.694 -0.085,-0.409 -0.446,-0.969 -0.565,-1.452 -0.207,-0.847 0.373,-1.591 0.242,-2.339 -0.26,-1.493 -0.313,-3.377 0,-4.84 C -8.12,4.195 -8.174,3.146 -8.228,2.097 l 0,-1.452 c -0.112,-0.49 -0.449,-1.434 -0.323,-2.016 0.033,-0.151 0.205,-0.495 0.242,-0.646 0.119,-0.482 -0.063,-1.016 0.162,-1.371 -0.005,-0.509 0.069,-0.614 0.242,-0.887 1.236,-0.027 2.474,-0.054 3.71,-0.081 0.236,0 0.705,-0.096 0.807,-0.081 2.051,0.316 4.65,0.925 5.647,2.34 0.484,0.887 0.968,1.774 1.452,2.662 0.153,0.484 -0.154,1.298 -0.242,1.694" />
        </g>
        <g
           transform="translate(477.8119,65.532)"
           id="g4076">
          <path
             id="path4078"
             style="fill:#231f20;fill-opacity:1;fill-rule:nonzero;stroke:none"
             d="m 0,0 0,-0.645 c -0.688,-0.231 -1.905,-0.088 -2.743,-0.081 -0.614,-0.38 -1.953,0.089 -2.742,-0.081 -1.053,-0.226 -2.364,0 -3.469,0 l -2.662,0 c -0.329,0.072 -1.077,0.178 -1.532,0.081 -0.769,-0.164 -1.977,-0.081 -3.066,-0.081 l -6.372,0 c -3.657,-0.107 -7.315,-0.215 -10.971,-0.322 -1.808,0.398 -4.147,0.322 -6.372,0.322 l -11.374,0 c -1.802,-0.026 -3.603,-0.054 -5.405,-0.08 -1.475,0.319 -3.532,0.08 -5.163,0.08 -2.916,0 -5.834,0.161 -8.55,0.162 -2.151,-0.108 -4.302,-0.216 -6.453,-0.323 -1.107,-0.014 -2.011,0.586 -3.227,0.323 -1.708,-0.371 -4.013,-0.457 -5.727,-0.081 l -1.613,0 c -1.533,-0.027 -3.066,-0.054 -4.598,-0.081 -2.071,0.027 -4.142,0.054 -6.212,0.081 -0.882,0 -1.997,0.082 -2.742,-0.081 l -4.276,0 c -1.003,-0.216 -2.949,-0.219 -3.952,0 -1.09,0.238 -2.48,-0.135 -3.469,0.081 l -1.774,0 c -1.554,0 -3.252,-0.052 -4.679,-0.081 -1.317,0.027 -2.635,0.054 -3.953,0.081 -1.718,0 -3.363,-0.108 -4.84,0.081 -0.168,0.021 -0.457,-0.079 -0.726,-0.081 -1.209,-0.027 -2.42,-0.054 -3.63,-0.081 l 0,0.726 c 0.859,0 1.892,-0.007 2.662,0.162 0.994,0.218 3.062,0.015 3.872,-0.162 0.699,0.027 1.399,0.054 2.098,0.081 1.065,0 2.29,-0.005 3.226,0.081 0.894,0.082 1.976,-0.087 2.743,0.08 1.613,-0.053 3.227,-0.107 4.84,-0.161 3.092,0.027 6.185,0.054 9.276,0.081 0.723,-0.156 1.805,-0.081 2.662,-0.081 l 5.082,0 7.422,0 c 1.551,0 2.933,-0.134 4.275,0.161 0.79,0.174 3.674,0.069 4.356,-0.08 l 1.129,0 c 1.292,-0.28 3.653,-0.134 5.001,0.161 1.061,0.232 2.211,-0.295 2.985,-0.161 3.872,-0.027 7.744,-0.054 11.616,-0.081 0.579,0.125 1.498,-0.066 2.178,0.081 1.124,0.242 4.928,0.246 6.05,0 1.619,-0.356 3.976,0.267 5.566,-0.081 l 9.518,0 c 0.919,0.2 2.893,0.569 4.033,0.323 0.88,-0.191 3.177,-0.381 4.195,-0.162 0.248,0.054 0.836,0.162 1.21,0.081 1.398,-0.302 5.242,-0.498 6.776,-0.161 C -13.015,0.054 -6.506,0.027 0,0" />
        </g>
        <g
           transform="translate(422.0719,63.9992)"
           id="g4080">
          <path
             id="path4082"
             style="fill:#231f20;fill-opacity:1;fill-rule:nonzero;stroke:none"
             d="m 0,0 c 0.022,-0.42 0.068,-0.61 0,-0.968 -0.181,-0.063 -0.438,-0.082 -0.726,-0.081 -0.134,0.189 -0.269,0.377 -0.403,0.565 0.051,0.141 0.015,0.078 0.08,0.162 0.091,0.231 0.014,0.148 0.242,0.241 C -0.646,0.027 -0.282,0.009 0,0" />
        </g>
        <g
           transform="translate(400.6149,61.7406)"
           id="g4084">
          <path
             id="path4086"
             style="fill:#231f20;fill-opacity:1;fill-rule:nonzero;stroke:none"
             d="m 0,0 -0.403,0 c -0.099,0.184 -0.132,0.182 -0.162,0.484 0.065,0.082 0.029,0.022 0.081,0.161 0.188,0.054 0.376,0.108 0.565,0.162 -0.007,0.307 0.011,0.61 0.08,0.806 C 0.343,1.684 0.369,1.757 0.484,1.694 0.733,1.61 0.72,1.616 0.807,1.372 0.878,1.258 0.894,0.919 0.968,0.807 1.127,0.724 1.804,0.779 2.097,0.726 2.196,0.542 2.229,0.544 2.259,0.242 1.698,-0.232 1.372,0.138 0.887,-0.161 0.81,-0.276 0.809,-0.425 0.807,-0.645 c 0.116,-0.196 0.013,-0.731 0,-1.13 0.08,-0.026 0.161,-0.053 0.242,-0.08 0.114,-0.078 0.264,-0.079 0.484,-0.081 0.191,0.214 0.381,0.419 0.726,0.484 C 2.341,-1.517 2.281,-1.481 2.42,-1.533 2.487,-1.766 2.532,-1.74 2.581,-2.016 2.441,-2.163 2.35,-2.388 2.259,-2.581 1.668,-2.636 1.072,-2.71 0.403,-2.662 0.185,-1.978 -0.076,-0.807 0,0" />
        </g>
        <g
           transform="translate(371.0914,63.4346)"
           id="g4088">
          <path
             id="path4090"
             style="fill:#231f20;fill-opacity:1;fill-rule:nonzero;stroke:none"
             d="m 0,0 c 0.027,-0.296 0.054,-0.591 0.081,-0.887 l 1.21,0 C 1.359,-1.005 1.437,-1.118 1.533,-1.21 1.489,-1.332 1.478,-1.347 1.452,-1.533 1.148,-1.695 0.679,-1.704 0.161,-1.694 l 0,-0.081 -0.08,0 C 0.134,-2.176 0.06,-3.037 0.161,-3.549 l 0.162,0 c 0.136,-0.092 0.395,-0.086 0.645,-0.081 0.13,0.307 0.136,0.444 0.565,0.484 C 1.601,-3.264 1.679,-3.377 1.775,-3.469 1.694,-3.737 1.613,-4.006 1.533,-4.275 1.381,-4.328 1.217,-4.352 0.968,-4.356 c -0.2,-0.133 -0.718,-0.09 -1.049,-0.081 -0.106,0.137 -0.311,0.191 -0.403,0.323 -0.328,0.47 -0.246,1.541 -0.242,2.339 -0.329,0.126 -0.494,0.163 -0.565,0.565 0.065,0.082 0.029,0.022 0.081,0.161 0.234,0.068 0.207,0.113 0.484,0.162 0.027,0.269 0.054,0.537 0.081,0.806 l 0.161,0 C -0.37,-0.003 -0.22,-0.002 0,0" />
        </g>
        <g
           transform="translate(471.9232,62.4667)"
           id="g4092">
          <path
             id="path4094"
             style="fill:#231f20;fill-opacity:1;fill-rule:nonzero;stroke:none"
             d="m 0,0 1.129,0 c 0.104,-0.148 0.159,-0.138 0.242,-0.323 l 0.081,0 0,-0.08 -0.081,0 C 1.281,-0.635 1.357,-0.552 1.129,-0.645 0.81,-0.843 0.262,-0.621 -0.081,-0.726 c 0.119,-0.598 0.011,-1.185 0,-1.855 l 0.081,0 0,-0.081 c 0.242,-0.027 0.484,-0.054 0.726,-0.081 0.14,0.258 0.425,0.634 0.726,0.484 C 1.733,-2.369 1.7,-2.443 1.694,-2.823 1.537,-3.011 1.5,-3.166 1.291,-3.307 0.672,-3.816 -0.615,-3.303 -0.807,-2.823 l 0,1.694 c 0.065,0.095 0.063,0.135 0.081,0.322 -0.371,0.081 -0.427,0.199 -0.645,0.404 0.051,0.141 0.015,0.078 0.08,0.161 0.105,0.199 -0.034,0.055 0.162,0.161 0.095,0.065 0.135,0.063 0.322,0.081 -0.007,0.249 -0.011,0.511 0.081,0.645 0.096,0.291 0.122,0.295 0.484,0.323 C -0.137,0.773 -0.097,0.739 -0.081,0.403 -0.01,0.299 -0.009,0.204 0,0" />
        </g>
        <g
           transform="translate(431.9131,62.6279)"
           id="g4096">
          <path
             id="path4098"
             style="fill:#231f20;fill-opacity:1;fill-rule:nonzero;stroke:none"
             d="M 0,0 C 0.242,-0.027 0.484,-0.054 0.726,-0.081 0.914,-0.296 1.103,-0.511 1.291,-0.726 1.524,-1.252 1.563,-2.939 1.371,-3.307 1.29,-3.529 1.255,-3.484 1.129,-3.63 0.89,-3.578 0.832,-3.582 0.726,-3.388 0.395,-2.927 0.518,-1.691 0.565,-1.129 0.447,-1.06 0.333,-0.983 0.242,-0.887 -0.87,-1.146 -0.94,-1.871 -0.887,-3.307 -0.948,-3.394 -0.936,-3.384 -0.968,-3.549 -1.109,-3.6 -1.046,-3.565 -1.129,-3.63 c -0.904,0.205 -0.598,2.235 -0.565,3.307 l 0.081,0 0,0.081 c 0.188,0.027 0.376,0.054 0.564,0.081 0.069,-0.118 0.147,-0.232 0.242,-0.323 C -0.603,-0.237 -0.234,-0.213 0,0" />
        </g>
        <g
           transform="translate(361.2502,62.5474)"
           id="g4100">
          <path
             id="path4102"
             style="fill:#231f20;fill-opacity:1;fill-rule:nonzero;stroke:none"
             d="M 0,0 C 0.349,-0.027 0.699,-0.054 1.049,-0.081 1.494,-1.043 1.512,-1.777 1.613,-3.227 1.47,-3.335 1.383,-3.474 1.291,-3.63 c -0.142,0.051 -0.079,0.016 -0.162,0.081 -0.297,0.105 -0.377,0.265 -0.403,0.645 0.157,0.373 -0.037,1.176 0,1.855 -0.279,0.07 -0.354,0.142 -0.726,0.162 -0.192,-0.197 -0.44,-0.297 -0.565,-0.565 -0.252,-0.377 -0.172,-1.25 -0.161,-1.855 -0.169,-0.091 -0.148,-0.116 -0.403,-0.162 -0.115,-0.003 -0.198,-0.064 -0.323,0.162 -0.288,0.453 -0.092,2.481 -0.081,3.065 0.205,0.111 0.283,0.154 0.646,0.161 0.08,-0.183 0.06,-0.224 0.242,-0.322 C -0.466,-0.153 -0.247,-0.178 0,0" />
        </g>
        <g
           transform="translate(393.0323,61.0954)"
           id="g4104">
          <path
             id="path4106"
             style="fill:#231f20;fill-opacity:1;fill-rule:nonzero;stroke:none"
             d="m 0,0 c -0.339,-0.029 -0.306,-0.031 -0.645,0 -0.059,0.262 -0.101,0.378 -0.323,0.484 -0.095,0.065 -0.136,0.062 -0.323,0.081 -0.839,-0.852 -1.003,-0.612 -0.968,-2.42 -0.064,-0.083 -0.028,-0.022 -0.08,-0.162 -0.139,-0.048 -0.254,-0.071 -0.484,-0.08 -0.203,0.302 -0.321,0.328 -0.323,0.887 -0.216,0.349 -0.012,1.781 0,2.42 0.118,0.069 0.231,0.146 0.323,0.242 0.141,-0.051 0.078,-0.016 0.161,-0.081 0.328,-0.12 0.226,-0.241 0.403,-0.484 0.192,0.32 1.028,0.887 1.614,0.484 C -0.457,1.264 -0.269,1.156 -0.081,1.049 -0.024,0.584 0.024,0.469 0,0" />
        </g>
        <g
           transform="translate(422.0719,62.4667)"
           id="g4108">
          <path
             id="path4110"
             style="fill:#231f20;fill-opacity:1;fill-rule:nonzero;stroke:none"
             d="m 0,0 c 0.029,-0.99 0.105,-1.765 0,-2.662 0.269,-0.027 0.538,-0.054 0.807,-0.081 l 0,-0.161 c 0.174,-0.259 0.015,-0.472 -0.242,-0.565 -0.317,-0.205 -1.667,-0.012 -2.098,0.081 -0.052,0.101 -0.088,0.167 -0.161,0.242 l 0,0.161 c 0.317,0.213 0.372,0.327 0.968,0.323 -0.003,0.708 -0.055,1.329 0,1.855 -0.269,0.027 -0.538,0.054 -0.807,0.081 C -1.567,-0.353 -1.639,-0.165 -1.291,0 -1.161,0.048 -0.39,0.007 0,0" />
        </g>
        <g
           transform="translate(442.6417,62.5474)"
           id="g4112">
          <path
             id="path4114"
             style="fill:#231f20;fill-opacity:1;fill-rule:nonzero;stroke:none"
             d="m 0,0 c 1.087,-0.271 0.957,-2.392 0.726,-3.469 l -0.161,0 c -0.407,-0.272 -0.524,0.259 -0.484,0.726 -0.223,0.375 0.007,1.26 -0.162,1.775 -0.141,-0.051 -0.078,-0.016 -0.161,-0.081 -0.25,-0.29 -0.143,-1.881 -0.242,-2.42 -0.193,-0.068 -0.133,-0.032 -0.242,-0.161 -0.202,0.092 -0.303,0.115 -0.403,0.323 -0.365,0.585 0.112,1.735 -0.081,2.339 l -0.161,0 C -1.666,-1.446 -1.626,-2.33 -1.613,-3.146 -1.668,-3.208 -1.719,-3.326 -1.775,-3.388 -1.879,-3.459 -1.974,-3.46 -2.178,-3.469 -2.26,-3.404 -2.2,-3.44 -2.339,-3.388 l 0,0.161 c -0.136,0.206 -0.122,2.742 -0.081,2.824 0.09,0.231 0.014,0.148 0.242,0.242 C -1.547,0.205 -0.608,-0.394 0,0" />
        </g>
        <g
           transform="translate(460.7914,62.5474)"
           id="g4116">
          <path
             id="path4118"
             style="fill:#231f20;fill-opacity:1;fill-rule:nonzero;stroke:none"
             d="M 0,0 C 0.242,-0.125 0.329,-0.293 0.565,-0.403 0.882,0.052 1.638,-0.098 2.259,-0.161 2.723,-0.945 2.75,-1.956 2.743,-3.307 2.547,-3.412 2.514,-3.453 2.178,-3.469 l 0,0.162 c -0.335,0.47 -0.251,1.571 -0.242,2.339 -0.081,0.027 -0.161,0.054 -0.242,0.081 -0.087,0.06 -0.076,0.048 -0.242,0.08 -0.899,-0.681 -1.099,-0.314 -1.049,-2.016 0.125,-0.19 0.048,-0.346 0,-0.565 -0.161,-0.027 -0.322,-0.054 -0.484,-0.081 -0.027,0.054 -0.053,0.108 -0.08,0.162 -0.384,0.489 -0.218,2.488 -0.081,3.146 C -0.141,-0.109 -0.075,-0.073 0,0" />
        </g>
        <g
           transform="translate(350.3603,61.0147)"
           id="g4120">
          <path
             id="path4122"
             style="fill:#231f20;fill-opacity:1;fill-rule:nonzero;stroke:none"
             d="m 0,0 c 0.002,0.22 0.003,0.37 0.081,0.484 0.083,0.185 0.138,0.175 0.242,0.323 l 1.048,0 C 1.468,0.661 1.547,0.579 1.694,0.484 1.69,0.235 1.666,0.07 1.613,-0.081 1.091,-0.087 0.392,-0.134 0,0 M 0.242,-0.807 C 0.921,-0.813 1.881,-0.908 2.42,-0.726 2.464,-0.052 2.57,0.554 2.178,0.968 1.908,1.519 1.039,1.506 0.323,1.613 0.218,1.549 -0.005,1.609 -0.161,1.533 -0.818,1.211 -1.092,-0.838 -0.484,-1.452 -0.335,-1.79 0.706,-2.37 1.21,-2.017 l 1.129,0 c 0.052,0.14 0.016,0.079 0.081,0.162 -0.055,0.36 -0.179,0.48 -0.323,0.726 -0.589,-0.007 -1.4,-0.074 -1.855,0.08 -0.027,0.054 -0.054,0.108 -0.081,0.162 l 0.081,0 0,0.08 z" />
        </g>
        <g
           transform="translate(380.61,61.0147)"
           id="g4124">
          <path
             id="path4126"
             style="fill:#231f20;fill-opacity:1;fill-rule:nonzero;stroke:none"
             d="M 0,0 C 0.027,0.161 0.054,0.323 0.081,0.484 0.228,0.552 0.442,0.627 0.565,0.726 1.099,0.734 1.247,0.664 1.533,0.484 L 1.533,0 C 1.116,0.073 0.596,0.005 0,0 M 2.339,-0.726 C 2.35,-0.362 2.408,0.257 2.259,0.484 2.24,1.148 1.957,1.153 1.694,1.533 -0.535,1.583 -0.858,1 -0.807,-1.049 c 0.24,-0.231 0.548,-0.613 0.726,-0.887 0.62,-0.008 1.487,0.125 2.097,-0.081 0.101,0.13 0.169,0.165 0.323,0.242 -0.016,0.21 -0.035,0.274 -0.08,0.404 -0.168,0.035 -0.368,0.076 -0.484,0.161 -0.592,-0.01 -1.251,-0.031 -1.614,0.161 0.026,0.186 0.038,0.201 0.081,0.323 l 2.097,0 z" />
        </g>
        <g
           transform="translate(451.3536,61.4986)"
           id="g4128">
          <path
             id="path4130"
             style="fill:#231f20;fill-opacity:1;fill-rule:nonzero;stroke:none"
             d="M 0,0 C 0.109,0.129 0.049,0.094 0.242,0.161 0.377,0.232 0.483,0.146 0.645,0.242 1.057,0.22 1.107,0.132 1.371,0 l 0,-0.484 c -0.503,0.039 -1.038,0.061 -1.532,0 C -0.132,-0.253 -0.108,-0.135 0,0 m 1.291,-1.613 c -0.555,-0.01 -1.12,-0.016 -1.452,0.161 l 0,0.242 c 0.707,-0.028 1.603,-0.177 2.178,0.081 0.233,0.553 0.285,1.144 -0.081,1.613 -0.4,0.53 -1.212,0.517 -2.178,0.484 -0.195,-0.203 -0.379,-0.254 -0.484,-0.565 -0.51,-0.749 -0.089,-2.085 0.161,-2.581 0.254,-0.065 0.543,-0.174 0.726,-0.323 0.832,-0.02 1.526,-0.057 1.936,0.323 C 2.04,-1.877 1.979,-1.893 1.855,-1.694 1.62,-1.696 1.415,-1.698 1.291,-1.613" />
        </g>
      </g>
    </g>
    <g
       transform="matrix(1.25,0,0,-1.25,-70.714283,784.50567)"
       id="g4132">
      <g
         clip-path="url(#clipPath4136)"
         id="g4134">
        <g
           transform="translate(412.1501,59.966)"
           id="g4140">
          <path
             id="path4142"
             style="fill:#231f20;fill-opacity:1;fill-rule:nonzero;stroke:none"
             d="M 0,0 C -0.139,-0.052 -0.079,-0.016 -0.161,-0.081 -0.531,-0.086 -0.958,-0.087 -1.21,0 -1.191,0.407 -1.146,0.362 -0.968,0.565 -0.729,0.541 -0.183,0.522 0,0.403 0.081,0.376 0.161,0.35 0.242,0.323 0.161,0.215 0.081,0.108 0,0 M 0.807,2.178 C 0.674,2.37 0.59,2.434 0.323,2.501 0.219,2.554 -0.9,2.598 -1.049,2.501 l -0.322,0 C -1.423,2.361 -1.387,2.422 -1.452,2.339 -1.448,2.09 -1.424,1.926 -1.371,1.775 c 0.219,-0.048 0.375,-0.125 0.564,0 0.558,0.01 0.751,-0.055 1.049,-0.242 l 0,-0.242 C -0.279,1.326 -1.074,1.511 -1.452,1.21 -1.851,1.066 -1.886,0.72 -2.178,0.484 c 0.016,-0.602 0.17,-0.994 0.484,-1.291 0.637,-0.507 1.888,-0.052 2.42,-0.161 0.111,0.12 0.261,0.236 0.403,0.323 0.005,0.842 0.061,2.289 -0.322,2.823" />
        </g>
        <g
           transform="translate(345.4397,57.2235)"
           id="g4144">
          <path
             id="path4146"
             style="fill:#231f20;fill-opacity:1;fill-rule:nonzero;stroke:none"
             d="M 0,0 0,0.645 C 1.398,0.672 2.797,0.699 4.195,0.726 4.517,0.753 4.84,0.78 5.163,0.807 6.014,0.688 7.581,0.518 8.551,0.726 c 1.185,0.255 5.186,0.254 6.372,0 1.828,0.054 3.657,0.107 5.485,0.161 1.79,-0.386 4.294,-0.282 5.97,0.081 1.329,0.288 2.415,-0.457 3.791,-0.161 0.792,0.169 3.124,0.275 4.033,0.08 2.377,-0.51 5.328,-0.084 7.664,-0.08 1.881,0.003 4.296,-0.394 6.13,0 1.001,0.214 2.481,0.016 3.307,-0.162 0.726,0.027 1.452,0.054 2.178,0.081 1.462,0.011 3.287,-0.201 4.598,0.081 1.613,-0.027 3.227,-0.054 4.84,-0.081 l 10.89,0 c 1.237,-0.054 2.474,-0.108 3.711,-0.161 0.476,0.101 1.278,-0.044 1.855,0.08 1.081,0.232 4.566,0.232 5.646,0 l 3.388,0 c 0.714,-0.153 2.799,-0.259 3.63,-0.08 1.553,0.333 3.706,-0.267 5.324,0.08 0.945,0.203 2.5,0.289 3.469,0.081 l 4.679,0 c 8.733,0 17.89,-0.047 26.7,-0.081 0.068,-0.197 0.084,-0.498 0.08,-0.806 l 0.081,0 0,-0.081 -0.081,0 0,-0.081 c -0.889,0.292 -2.418,0.081 -3.468,0.081 -2.232,0.027 -4.464,0.054 -6.695,0.081 -0.811,-0.174 -1.992,0.112 -2.904,-0.081 -0.109,-0.023 -0.412,-0.129 -0.646,-0.081 -2.051,0.427 -4.947,0.162 -7.26,0.162 l -2.258,0 c -0.867,0.186 -1.946,-0.002 -2.985,0 -1.427,0.001 -3.014,0.207 -4.356,-0.081 -1.183,0.054 -2.366,0.108 -3.549,0.161 -2.635,-0.027 -5.271,-0.054 -7.905,-0.08 l -7.099,0 c -1.139,0.244 -4.911,0.244 -6.05,0 -1.363,-0.293 -2.922,0.21 -4.275,-0.081 -1,-0.215 -2.481,-0.016 -3.307,0.161 -0.621,0.133 -1.599,-0.005 -2.098,-0.08 -1.3,-0.196 -2.853,0.172 -4.033,-0.081 -0.801,-0.172 -1.886,0.029 -2.5,0.161 -0.968,-0.027 -1.937,-0.054 -2.904,-0.08 l -5.647,0 c -1.22,-0.264 -2.909,-0.357 -4.195,-0.081 l -4.678,0 -4.114,0 c -1.153,-0.247 -3.522,-0.266 -4.759,0 -0.501,0.107 -1.214,-0.005 -1.614,0.081 C 31.944,-0.188 30.895,-0.215 29.846,-0.242 27.238,-0.269 24.63,-0.296 22.022,-0.323 14.654,-0.23 7.216,-0.192 0,0" />
        </g>
        <g
           transform="translate(479.9887,86.5339)"
           id="g4148">
          <path
             id="path4150"
             style="fill:#231f20;fill-opacity:1;fill-rule:nonzero;stroke:none"
             d="M 0,0 0.2,0 C 0.296,0 0.362,0.014 0.396,0.043 0.431,0.071 0.449,0.109 0.449,0.156 0.449,0.187 0.44,0.214 0.424,0.238 0.407,0.262 0.383,0.279 0.354,0.291 0.324,0.303 0.269,0.309 0.188,0.309 L 0,0.309 0,0 Z m -0.165,-0.576 0,1.023 0.352,0 c 0.12,0 0.207,-0.009 0.261,-0.028 C 0.501,0.4 0.544,0.367 0.576,0.32 0.608,0.273 0.624,0.223 0.624,0.17 0.624,0.095 0.597,0.03 0.544,-0.025 0.491,-0.081 0.42,-0.112 0.332,-0.118 0.368,-0.134 0.397,-0.152 0.419,-0.173 0.46,-0.213 0.51,-0.281 0.57,-0.376 l 0.125,-0.2 -0.202,0 -0.091,0.161 c -0.071,0.127 -0.129,0.207 -0.173,0.239 -0.03,0.023 -0.074,0.035 -0.132,0.035 l -0.097,0 0,-0.435 -0.165,0 z m 0.417,1.32 C 0.119,0.744 -0.011,0.709 -0.138,0.641 -0.265,0.572 -0.363,0.475 -0.435,0.347 -0.506,0.22 -0.542,0.087 -0.542,-0.05 c 0,-0.137 0.035,-0.269 0.105,-0.394 0.07,-0.126 0.169,-0.224 0.295,-0.294 0.126,-0.07 0.257,-0.105 0.394,-0.105 0.137,0 0.269,0.035 0.395,0.105 0.126,0.07 0.224,0.168 0.293,0.294 0.07,0.125 0.105,0.257 0.105,0.394 0,0.137 -0.036,0.27 -0.107,0.397 C 0.867,0.475 0.769,0.572 0.642,0.641 0.515,0.709 0.385,0.744 0.252,0.744 m 0,0.157 C 0.412,0.901 0.568,0.86 0.72,0.778 0.872,0.696 0.99,0.579 1.075,0.427 1.16,0.274 1.203,0.115 1.203,-0.05 1.203,-0.214 1.161,-0.372 1.077,-0.523 0.993,-0.674 0.876,-0.792 0.725,-0.875 0.575,-0.959 0.417,-1.001 0.252,-1.001 c -0.164,0 -0.322,0.042 -0.473,0.126 -0.151,0.083 -0.268,0.201 -0.352,0.352 -0.085,0.151 -0.126,0.309 -0.126,0.473 0,0.165 0.042,0.324 0.128,0.477 0.085,0.152 0.203,0.269 0.355,0.351 0.153,0.082 0.308,0.123 0.468,0.123" />
        </g>
      </g>
    </g>
  </g>
</svg>
