<?xml version="1.0" encoding="UTF-8" standalone="no"?>
<svg
   xmlns:dc="http://purl.org/dc/elements/1.1/"
   xmlns:cc="http://creativecommons.org/ns#"
   xmlns:rdf="http://www.w3.org/1999/02/22-rdf-syntax-ns#"
   xmlns:svg="http://www.w3.org/2000/svg"
   xmlns="http://www.w3.org/2000/svg"
   viewBox="0 0 130.01 12.697"
   height="12.697"
   width="130.00999"
   xml:space="preserve"
   version="1.1"
   id="svg3734"><metadata
     id="metadata3740"><rdf:RDF><cc:Work
         rdf:about=""><dc:format>image/svg+xml</dc:format><dc:type
           rdf:resource="http://purl.org/dc/dcmitype/StillImage" /><dc:title></dc:title></cc:Work></rdf:RDF></metadata><defs
     id="defs3738"><clipPath
       id="clipPath3960"
       clipPathUnits="userSpaceOnUse"><path
         id="path3962"
         d="m 0,400.5 754,0 0,-400 -754,0 0,400 z" /></clipPath></defs><g
     transform="matrix(1.2499508,0,0,-1.2499508,-475.61127,74.025829)"
     id="g3742"><g
       id="g3958"
       clip-path="url(#clipPath3960)"><path
         d="m 443.087,51.086 -2.657,0 -0.022,0.614 c -0.67,-0.514 -1.485,-0.771 -2.478,-0.771 -2.088,0 -3.427,1.295 -3.427,3.282 0,1.998 1.339,3.282 3.472,3.282 0.893,0 1.641,-0.212 2.321,-0.67 l 0,2.389 2.791,0 0,-8.126 z m -4.219,4.509 c -0.86,0 -1.429,-0.535 -1.429,-1.384 0,-0.848 0.569,-1.384 1.429,-1.384 0.848,0 1.428,0.536 1.428,1.384 0,0.849 -0.58,1.384 -1.428,1.384"
         style="fill:#ced4d9;fill-opacity:1;fill-rule:nonzero;stroke:none"
         id="path3964" /><path
         d="m 444.616,57.337 2.768,0 0.034,-0.48 c 0.402,0.402 0.971,0.636 1.73,0.636 1.463,0 2.088,-0.77 2.088,-2.433 l 0,-0.547 -2.467,0 c 0,0.011 0,0.033 0,0.044 0,0.625 -0.212,0.938 -0.659,0.938 -0.513,0 -0.659,-0.391 -0.659,-1.183 l 0,-3.226 -2.835,0 0,6.251"
         style="fill:#ced4d9;fill-opacity:1;fill-rule:nonzero;stroke:none"
         id="path3966" /><path
         d="m 456.271,50.874 c -2.88,0 -4.443,1.25 -4.443,3.337 0,2.088 1.563,3.338 4.443,3.338 3.025,0 4.588,-1.34 4.588,-3.874 0,-0.044 0,-0.078 0,-0.111 l -6.039,0 c 0,-0.659 0.569,-1.061 1.619,-1.061 0.692,0 1.138,0.179 1.328,0.491 l 3.036,0 c -0.413,-1.373 -1.942,-2.12 -4.532,-2.12 z m 1.719,4.029 c -0.078,0.681 -0.636,1.083 -1.563,1.083 -0.993,0 -1.607,-0.379 -1.752,-1.083 l 3.315,0"
         style="fill:#ced4d9;fill-opacity:1;fill-rule:nonzero;stroke:none"
         id="path3968" /><path
         d="m 464.462,50.885 c -2.043,0 -3.07,0.681 -3.07,2.054 0,0.457 0.123,0.848 0.335,1.116 0.58,0.726 1.529,0.793 2.88,0.882 1.953,0.134 2.858,0 2.858,0.502 0,0.324 -0.425,0.57 -1.239,0.57 -0.905,0 -1.351,-0.134 -1.429,-0.626 l -2.88,0 c 0.122,1.608 1.473,2.121 4.286,2.121 1.652,0 2.769,-0.234 3.338,-0.681 0.714,-0.558 0.859,-1.261 0.859,-2.355 l 0,-2.411 c 0,-0.413 0.056,-0.67 0.28,-0.837 l 0,-0.134 -2.903,0 c -0.111,0.256 -0.167,0.547 -0.178,0.859 -0.748,-0.792 -1.731,-1.06 -3.137,-1.06 z m 1.161,2.79 c -0.737,-0.067 -1.061,-0.178 -1.061,-0.569 0,-0.379 0.357,-0.614 1.016,-0.614 1.261,0 2.021,0.558 2.021,1.351 0,0.056 0,0.1 -0.012,0.156 -0.558,-0.279 -1.216,-0.257 -1.964,-0.324"
         style="fill:#ced4d9;fill-opacity:1;fill-rule:nonzero;stroke:none"
         id="path3970" /><path
         d="m 471.853,57.337 2.769,0 0,-0.648 c 0.737,0.525 1.496,0.771 2.4,0.771 0.993,0 1.652,-0.335 2.143,-1.128 0.815,0.77 1.686,1.128 2.791,1.128 1.808,0 2.556,-0.938 2.556,-2.914 l 0,-3.46 -2.757,0 0,2.935 c 0,0.86 -0.212,1.228 -0.96,1.228 -0.782,0 -1.25,-0.413 -1.25,-1.105 l 0,-3.058 -2.713,0 0,2.935 c 0,0.86 -0.212,1.228 -0.96,1.228 -0.781,0 -1.25,-0.413 -1.25,-1.105 l 0,-3.058 -2.769,0 0,6.251"
         style="fill:#ced4d9;fill-opacity:1;fill-rule:nonzero;stroke:none"
         id="path3972" /><path
         d="m 383.976,50.929 c -2.132,0 -3.472,1.284 -3.472,3.282 0,1.987 1.34,3.282 3.427,3.282 0.994,0 1.809,-0.245 2.479,-0.759 l 0.022,0.603 2.657,0 0,-8.272 -2.791,0 0,2.534 c -0.681,-0.458 -1.429,-0.67 -2.322,-0.67 z m 0.893,1.898 c 0.849,0 1.429,0.536 1.429,1.384 0,0.849 -0.58,1.384 -1.429,1.384 -0.859,0 -1.429,-0.535 -1.429,-1.384 0,-0.848 0.57,-1.384 1.429,-1.384"
         style="fill:#ffffff;fill-opacity:1;fill-rule:nonzero;stroke:none"
         id="path3974" /><path
         d="m 393.207,50.963 c -1.875,0 -2.645,0.938 -2.645,2.913 l 0,3.461 2.791,0 0,-2.936 c 0,-0.871 0.212,-1.228 1.004,-1.228 0.815,0 1.317,0.413 1.317,1.105 l 0,3.059 2.791,0 0,-6.251 -2.791,0 0,0.647 c -0.747,-0.525 -1.54,-0.77 -2.467,-0.77"
         style="fill:#ffffff;fill-opacity:1;fill-rule:nonzero;stroke:none"
         id="path3976" /><path
         d="m 402.494,50.885 c -2.043,0 -3.07,0.681 -3.07,2.054 0,0.457 0.123,0.848 0.335,1.116 0.581,0.726 1.53,0.793 2.88,0.882 1.954,0.134 2.858,0 2.858,0.502 0,0.324 -0.424,0.57 -1.239,0.57 -0.904,0 -1.351,-0.134 -1.429,-0.626 l -2.88,0 c 0.123,1.608 1.474,2.121 4.287,2.121 1.652,0 2.768,-0.234 3.337,-0.681 0.715,-0.558 0.86,-1.261 0.86,-2.355 l 0,-2.411 c 0,-0.413 0.056,-0.67 0.279,-0.837 l 0,-0.134 -2.902,0 c -0.112,0.256 -0.168,0.547 -0.179,0.859 -0.748,-0.792 -1.73,-1.06 -3.137,-1.06 z m 1.161,2.79 c -0.737,-0.067 -1.06,-0.178 -1.06,-0.569 0,-0.379 0.357,-0.614 1.015,-0.614 1.262,0 2.021,0.558 2.021,1.351 0,0.056 0,0.1 -0.011,0.156 -0.558,-0.279 -1.217,-0.257 -1.965,-0.324"
         style="fill:#ffffff;fill-opacity:1;fill-rule:nonzero;stroke:none"
         id="path3978" /><path
         d="m 409.886,57.337 2.79,0 0,-0.648 c 0.748,0.525 1.541,0.771 2.467,0.771 1.876,0 2.646,-0.938 2.646,-2.914 l 0,-3.46 -2.791,0 0,2.935 c 0,0.871 -0.212,1.228 -1.004,1.228 -0.815,0 -1.318,-0.413 -1.318,-1.105 l 0,-3.058 -2.79,0 0,6.251"
         style="fill:#ffffff;fill-opacity:1;fill-rule:nonzero;stroke:none"
         id="path3980" /><path
         d="m 422.086,50.974 c -0.67,0 -1.228,0.078 -1.674,0.257 -0.737,0.301 -0.849,0.848 -0.849,1.752 l 0,2.445 -0.993,0 0,1.753 0.993,0 0,2.042 2.813,0 0,-2.042 1.005,0 0,-1.753 -1.005,0 0,-1.295 c 0,-0.971 0,-1.317 0.681,-1.317 l 0.402,0 0,-1.719 c -0.469,-0.078 -0.926,-0.123 -1.373,-0.123"
         style="fill:#ffffff;fill-opacity:1;fill-rule:nonzero;stroke:none"
         id="path3982" /><path
         d="m 424.532,57.337 2.847,0 0,-6.251 -2.847,0 0,6.251 z"
         style="fill:#ffffff;fill-opacity:1;fill-rule:nonzero;stroke:none"
         id="path3984" /><path
         d="m 433.014,50.874 c -2.903,0 -4.477,1.25 -4.477,3.337 0,2.077 1.574,3.338 4.477,3.338 2.668,0 4.152,-0.927 4.409,-2.701 l -2.992,0 c -0.223,0.569 -0.669,0.859 -1.35,0.859 -0.994,0 -1.597,-0.558 -1.597,-1.485 0,-0.915 0.603,-1.473 1.53,-1.473 0.781,0 1.351,0.413 1.484,1.083 l 2.981,0 c -0.201,-1.965 -1.697,-2.958 -4.465,-2.958"
         style="fill:#ffffff;fill-opacity:1;fill-rule:nonzero;stroke:none"
         id="path3986" /></g></g></svg>