<?xml version="1.0" encoding="UTF-8" standalone="no"?>
<!-- Created with Inkscape (http://www.inkscape.org/) -->

<svg
   xmlns:dc="http://purl.org/dc/elements/1.1/"
   xmlns:cc="http://creativecommons.org/ns#"
   xmlns:rdf="http://www.w3.org/1999/02/22-rdf-syntax-ns#"
   xmlns:svg="http://www.w3.org/2000/svg"
   xmlns="http://www.w3.org/2000/svg"
   xmlns:sodipodi="http://sodipodi.sourceforge.net/DTD/sodipodi-0.dtd"
   xmlns:inkscape="http://www.inkscape.org/namespaces/inkscape"
   id="svg2830"
   version="1.1"
   inkscape:version="0.47 r22583"
   width="291.03"
   height="108.06"
   xml:space="preserve"
   sodipodi:docname="sega_jigyo_tuuki_2004.pdf"><metadata
     id="metadata2836"><rdf:RDF><cc:Work
         rdf:about=""><dc:format>image/svg+xml</dc:format><dc:type
           rdf:resource="http://purl.org/dc/dcmitype/StillImage" /><dc:title></dc:title></cc:Work></rdf:RDF></metadata><defs
     id="defs2834"><inkscape:perspective
       sodipodi:type="inkscape:persp3d"
       inkscape:vp_x="0 : 0.5 : 1"
       inkscape:vp_y="0 : 1000 : 0"
       inkscape:vp_z="1 : 0.5 : 1"
       inkscape:persp3d-origin="0.5 : 0.33333333 : 1"
       id="perspective2838" /><clipPath
       clipPathUnits="userSpaceOnUse"
       id="clipPath2846"><path
         d="m -427.5,603.5 428.03,0 0,-612.28 -428.03,0 0,612.28 z"
         clip-rule="evenodd"
         id="path2848" /></clipPath><clipPath
       clipPathUnits="userSpaceOnUse"
       id="clipPath2852"><path
         d="M 0.09,595 420,595 420,0.09 0.09,0.09 0.09,595 z"
         id="path2854" /></clipPath><clipPath
       clipPathUnits="userSpaceOnUse"
       id="clipPath2864"><path
         d="m 0.53,603.5 428.03,0 0,-612.28 -428.03,0 0,612.28 z"
         clip-rule="evenodd"
         id="path2866" /></clipPath><clipPath
       clipPathUnits="userSpaceOnUse"
       id="clipPath2870"><path
         d="M 0.09,595 420,595 420,0.09 0.09,0.09 0.09,595 z"
         id="path2872" /></clipPath><clipPath
       clipPathUnits="userSpaceOnUse"
       id="clipPath2886"><path
         d="m 210.29,410.75 209.76,0 0,-127.56 -209.76,0 0,127.56 z"
         clip-rule="evenodd"
         id="path2888" /></clipPath><clipPath
       clipPathUnits="userSpaceOnUse"
       id="clipPath2892"><path
         d="M 0.09,595 420,595 420,0.09 0.09,0.09 0.09,595 z"
         id="path2894" /></clipPath></defs><sodipodi:namedview
     pagecolor="#ffffff"
     bordercolor="#666666"
     borderopacity="1"
     objecttolerance="10"
     gridtolerance="10"
     guidetolerance="10"
     inkscape:pageopacity="0"
     inkscape:pageshadow="2"
     inkscape:window-width="1920"
     inkscape:window-height="1139"
     id="namedview2832"
     showgrid="false"
     inkscape:showpageshadow="false"
     inkscape:zoom="3.5899633"
     inkscape:cx="82.925748"
     inkscape:cy="59.677772"
     inkscape:window-x="-8"
     inkscape:window-y="-8"
     inkscape:window-maximized="1"
     inkscape:current-layer="g2840" /><g
     id="g2840"
     inkscape:groupmode="layer"
     inkscape:label="sega_jigyo_tuuki_2004"
     transform="matrix(1.25,0,0,-1.25,-240.93768,555.84749)"><g
       id="g2882"
       transform="matrix(1.5431521,0,0,1.5431521,-176.77541,-187.88804)"><g
         id="g2884"
         clip-path="url(#clipPath2886)"><g
           id="g2890"
           clip-path="url(#clipPath2892)"><path
             d="m 313.974,362.337 c 2.593,-2.533 6.137,-4.095 10.049,-4.095 l 61.75,-0.012 -13.335,39.924 c -1.825,4.232 -6.092,7.207 -11.221,7.207 -5.115,0 -9.459,-3.075 -11.209,-7.292 l -4.441,-13.007 -0.021,19.625 -21.565,0.004 c -3.897,0 -7.407,-1.524 -9.985,-4.045 l 0.005,4.034 -22.083,-0.003 c -4.112,0 -7.85,-1.755 -10.47,-4.523 l 0,4.547 -20.817,-0.024 c -8.977,0.01 -16.352,-7.035 -16.357,-16.345 -0.003,-4.323 1.877,-8.222 4.646,-11.123 l -4.693,0.005 0,-18.973 20.976,0.002 c 5.891,0.004 11.727,3.57 13.753,7.842 l 0.062,0.18 c 2.345,-4.754 7.241,-8.023 12.9,-8.023 l 22.055,0.002 10e-4,4.093"
             style="fill:#ffffff;fill-opacity:1;fill-rule:nonzero;stroke:none"
             id="path2896" /><path
             d="m 247.467,361.486 17.686,0.014 c 7.234,0 13.097,5.863 13.097,13.097 0,7.232 -5.863,13.096 -13.097,13.096 l -4.592,-0.022 c -0.366,0 -0.662,0.297 -0.662,0.662 0,0.368 0.296,0.664 0.662,0.664 l 17.644,-0.002 0.01,5.545 -17.658,0 c -3.422,0 -6.195,-2.774 -6.195,-6.195 0,-3.422 2.773,-6.195 6.195,-6.195 l 4.615,-0.051 c 4.142,0 7.499,-3.357 7.499,-7.498 0,-4.143 -3.357,-7.5 -7.499,-7.5 l -17.698,0 -0.007,-5.615"
             style="fill:#0089cf;fill-opacity:1;fill-rule:nonzero;stroke:none"
             id="path2898" /><path
             d="m 247.474,368.406 17.698,0 c 3.422,0 6.195,2.773 6.195,6.195 0,3.42 -2.773,6.194 -6.195,6.194 l -4.615,0.051 c -4.142,0 -7.499,3.356 -7.499,7.499 0,4.141 3.357,7.498 7.499,7.498 l 17.658,0.008 -0.01,5.574 -17.644,0.006 c -7.233,0 -13.096,-5.864 -13.096,-13.098 0,-7.232 5.863,-13.095 13.096,-13.095 l 4.565,-0.004 c 0.354,0 0.64,-0.286 0.64,-0.641 0,-0.353 -0.286,-0.641 -0.64,-0.641 l -17.659,-0.006 0.007,-5.54"
             style="fill:#0089cf;fill-opacity:1;fill-rule:nonzero;stroke:none"
             id="path2900" /><path
             d="m 291.957,367.066 c -3.064,0 -5.577,2.455 -5.577,5.576 l 0,17.728 c 0,3.006 2.513,5.491 5.577,5.491 l 18.878,-0.005 -10e-4,5.568 -18.877,0.004 c -6.139,0 -11.115,-4.977 -11.115,-11.114 l 0,-17.672 c 0,-6.137 4.976,-11.113 11.115,-11.113 l 18.799,-0.008 -0.006,5.553 -18.793,-0.008"
             style="fill:#0089cf;fill-opacity:1;fill-rule:nonzero;stroke:none"
             id="path2902" /><path
             d="m 287.733,390.314 c 0,2.34 1.882,4.238 4.224,4.238 l 18.878,0 -10e-4,-5.559 -16.264,0 c -1.304,-10e-4 -1.319,-1.31 -1.319,-1.31 l 13.562,0 0.004,-5.541 -19.093,0 0.009,8.172"
             style="fill:#0089cf;fill-opacity:1;fill-rule:nonzero;stroke:none"
             id="path2904" /><path
             d="m 291.957,368.414 c -2.336,0 -4.229,1.894 -4.229,4.228 l -0.004,8.177 19.093,0 -0.004,-5.558 -13.563,0 c 0.016,-1.308 1.32,-1.31 1.32,-1.31 l 16.186,0 -0.006,-5.53 -18.793,-0.007"
             style="fill:#0089cf;fill-opacity:1;fill-rule:nonzero;stroke:none"
             id="path2906" /><path
             d="m 324.062,367.081 c -3.064,0 -5.562,2.498 -5.562,5.561 l 0,17.672 c 0,3.062 2.483,5.547 5.547,5.547 l 18.277,0.004 0.002,5.562 -18.322,10e-4 c -6.139,0 -11.115,-4.977 -11.115,-11.114 l 0,-17.672 c 0,-6.137 5.019,-11.113 11.158,-11.113 l 18.279,-0.008 -0.002,26.168 -15.709,0 0,-5.547 10.157,0 0,-15.063 -12.71,0.002"
             style="fill:#0089cf;fill-opacity:1;fill-rule:nonzero;stroke:none"
             id="path2908" /><path
             d="m 319.808,372.642 c 0,-2.34 1.898,-4.267 4.239,-4.267 l 11.415,-10e-4 0,12.457 -8.832,0 0,-5.565 3.277,0 0.013,-1.31 -3.261,0.005 c -0.72,0 -1.304,0.585 -1.304,1.305 l -0.021,12.43 c 0,0 -0.003,1.296 1.311,1.323 l 15.694,0 -0.015,5.547 -18.277,-0.014 c -2.341,0 -4.239,-1.898 -4.239,-4.238 l 0,-17.672"
             style="fill:#0089cf;fill-opacity:1;fill-rule:nonzero;stroke:none"
             id="path2910" /><path
             d="m 359.5,394.644 c 0.246,0.707 0.918,1.215 1.709,1.215 0.792,0 1.466,-0.51 1.71,-1.219 l 8.866,-26.295 -12.984,0 0.014,6.184 4.343,0 -1.959,5.822 -6.363,-18.826 -6.557,0 11.221,33.119"
             style="fill:#0089cf;fill-opacity:1;fill-rule:nonzero;stroke:none"
             id="path2912" /><path
             d="m 373.578,367.079 -14.756,0 0,-5.554 22.465,0 -11.685,34.681 c -1.024,3.381 -4.395,5.863 -8.396,5.863 -3.999,0 -7.369,-2.48 -8.394,-5.857 l -11.794,-34.687 5.882,0 11.441,33.72 c 0.468,1.116 1.569,1.901 2.855,1.901 1.283,0 2.382,-0.779 2.851,-1.891 l 9.531,-28.176"
             style="fill:#0089cf;fill-opacity:1;fill-rule:nonzero;stroke:none"
             id="path2914" /><path
             d="m 377.973,396.732 c 1.164,0 2.256,0.453 3.078,1.275 0.822,0.822 1.275,1.916 1.275,3.077 0,1.163 -0.453,2.255 -1.275,3.077 -0.822,0.823 -1.914,1.276 -3.078,1.276 -2.399,0 -4.352,-1.952 -4.352,-4.353 0,-1.161 0.453,-2.255 1.276,-3.077 0.822,-0.822 1.914,-1.275 3.076,-1.275 z m -3.744,4.352 c 0,1.001 0.39,1.941 1.097,2.648 0.707,0.707 1.649,1.095 2.647,1.095 1.002,0 1.941,-0.388 2.648,-1.095 0.707,-0.707 1.096,-1.647 1.096,-2.648 0,-2.063 -1.678,-3.743 -3.744,-3.743 -0.998,0 -1.94,0.389 -2.647,1.096 -0.707,0.707 -1.097,1.647 -1.097,2.647"
             style="fill:#231f20;fill-opacity:1;fill-rule:nonzero;stroke:none"
             id="path2916" /><path
             d="m 376.856,400.72 0,-2.051 -0.629,0 0,4.826 1.791,0 c 0.67,-0.007 1.066,-0.007 1.441,-0.294 0.356,-0.266 0.506,-0.67 0.506,-1.114 0,-1.128 -0.91,-1.285 -1.141,-1.326 l 1.354,-2.092 -0.766,0 -1.312,2.051 -1.244,0 z m 0,0.533 1.277,0 c 0.205,0 0.396,0 0.588,0.047 0.445,0.111 0.601,0.432 0.601,0.78 0,0.123 -0.013,0.451 -0.287,0.677 -0.252,0.211 -0.566,0.205 -0.935,0.205 l -1.244,0 0,-1.709"
             style="fill:#231f20;fill-opacity:1;fill-rule:nonzero;stroke:none"
             id="path2918" /></g></g></g></g></svg>