<?xml version="1.0" encoding="UTF-8" standalone="no"?>
<!-- Created with Inkscape (http://www.inkscape.org/) -->
<svg xmlns:svg="http://www.w3.org/2000/svg" xmlns="http://www.w3.org/2000/svg" version="1.0" width="343" height="230" id="svg2">
  <defs id="defs4"/>
  <g transform="translate(-429.704, -414.938)" id="layer1">
    <path d="M 510.65681,416.01652 C 505.45905,416.01652 499.99146,420.00371 498.40681,424.95402 L 431.18806,634.92277 C 429.60341,639.87306 432.49029,643.86023 437.68806,643.86027 L 691.78181,643.86027 C 696.97957,643.86027 702.41593,639.87307 704.00056,634.92277 L 771.21931,424.95402 C 772.80396,420.00371 769.91707,416.01655 764.71931,416.01652 L 510.65681,416.01652 z M 596.18806,432.48527 C 603.59591,432.49194 610.36396,432.8469 615.12556,433.79777 C 631.93029,435.97629 643.89582,444.55469 646.21931,453.45402 C 647.47136,459.85334 646.21931,466.29777 646.21931,466.29777 C 634.28821,513.60499 537.99776,502.96195 535.12556,517.36027 C 535.12556,517.36024 625.84431,517.36031 625.84431,517.36031 L 615.12556,555.57902 L 666.90681,517.36031 L 724.40681,517.36031 L 662.62556,559.86027 L 694.06306,627.36031 L 636.21931,627.36031 L 619.40681,586.29777 L 601.56306,598.79777 L 592.28181,627.36031 L 547.28133,627.36031 L 574.06306,545.57902 L 478.00056,545.57902 C 478.00055,545.57904 491.82635,500.93678 533.00056,488.98527 C 569.13737,478.52076 592.62172,481.47278 598.71931,469.51652 C 598.7193,469.51653 598.71931,464.86027 598.71931,464.86027 C 598.7193,463.46314 595.22016,459.86027 580.84431,459.86027 C 555.61452,459.86025 552.62556,475.23527 552.62556,475.23527 C 552.62556,475.23527 504.06306,475.23527 504.06306,475.23527 C 515.97407,449.34557 536.56659,438.01943 560.12556,434.17277 C 569.71599,433.4427 583.84164,432.47415 596.18806,432.48527 z" id="rect2396" style="fill: rgb(255, 0, 0); fill-opacity: 1; stroke: none; stroke-width: 28.2; stroke-linecap: round; stroke-linejoin: bevel; stroke-miterlimit: 4; stroke-dashoffset: 0pt; stroke-opacity: 1;"/>
  </g>
</svg>