<svg xmlns="http://www.w3.org/2000/svg" viewBox="0 0 492 209"><path fill="#fff" d="M297.583 194.08h9.953l-20.697-39.912h-9.88l-20.4 39.912h9.83l3.48-7.6h24.11l3.58 7.6zm-24.655-14.25l8.832-19.275 9.098 19.276h-17.93z"/><path fill-rule="evenodd" clip-rule="evenodd" fill="#DC241F" d="M26.778 81.248v-25.44a570.735 570.735 0 0 1 46.13-16.96v9.848a560.585 560.585 0 0 1 37.57-10.816v-9.634a571.552 571.552 0 0 1 40.596-8.423V29.3a564.2 564.2 0 0 1 37.57-5.21v-9.376a577.9 577.9 0 0 1 40.595-2.73v9.328c6.23-.205 12.5-.31 18.78-.31s12.55.105 18.78.31v-9.33c13.65.44 27.19 1.355 40.59 2.732v9.377c12.65 1.33 25.18 3.07 37.57 5.21v-9.47c13.7 2.33 27.24 5.15 40.59 8.43v9.64a563.08 563.08 0 0 1 37.57 10.82v-9.85a572.817 572.817 0 0 1 46.13 16.96v25.44C401.51 51.62 326.672 35.17 248 35.17c-78.678 0-153.51 16.45-221.25 46.1zm221.248-34.044c-78.833 0-153.722 16.887-221.248 47.238v39.844h46.13v-23.012c0-10.374 8.41-18.785 18.785-18.785s18.785 8.41 18.785 18.78v23.01h40.596v-31.89c0-10.38 8.41-18.79 18.786-18.79 10.375 0 18.784 8.41 18.784 18.78v31.9h40.595V97.52c0-10.375 8.41-18.786 18.78-18.786 10.37 0 18.78 8.412 18.78 18.786v36.77h40.6v-31.895c0-10.374 8.41-18.786 18.78-18.786s18.78 8.41 18.78 18.78v31.89h40.593v-23.01c0-10.38 8.41-18.79 18.78-18.79s18.784 8.41 18.784 18.78v23.013h46.13V94.44C401.74 64.088 326.85 47.2 248.02 47.2z"/><path fill="#fff" d="M116.384 179.582h6.77c6.1 0 6.095-5.738 6.095-5.738v-12.32s0-5.586-6.71-5.586H90.6v38.143h8.133v-14.64h7.887l14.647 14.65h11.593l-16.476-14.5zm2.44-17.086c2.747 0 2.747 3.36 2.747 3.36v4.267c0 3.21-3.04 3.057-3.04 3.057H98.74v-10.684h20.092zm30.03 31.584h37.7v-6.82h-29.33v-9.963h17.12v-6.256h-17.12v-8.48h29.02v-6.61h-37.492m233.138 38.14h37.478v-6.46h-29.33v-10.17h17.127v-6.25h-17.127v-8.59h29.03v-6.434h-37.45m-178.068 37.9v-38.14h6.054l27.53 25.42v-25.42h6.48v38.14h-5.403l-28.23-26.032v26.034m108.47 4.77l6.91.105V163.9l34.42 35.05 6-.1v-48.177h-6.5v34.807l-33.94-34.807h-6.86"/><g fill="#fff"><path d="M429.233 156.09h41.197v6.364h-16.528v31.626h-8.593v-31.626h-16.08m50.9-2.7c.62-.26.93-.69.93-1.318 0-.434-.16-.793-.47-1.065-.31-.27-.8-.41-1.44-.41h-2.36v5.1h.98v-2.11h1.36l.84 2.11H481l-.95-2.26.06-.02zm-1.14-.52h-1.22v-1.59h1.29c.63 0 .96.262.96.78 0 .537-.35.81-1.04.81z"/><path d="M482.003 156.34c-.863-.872-1.916-1.314-3.13-1.314-1.237 0-2.305.442-3.173 1.314-.87.873-1.31 1.936-1.31 3.155 0 1.224.442 2.286 1.313 3.16.872.874 1.934 1.317 3.154 1.317 1.216 0 2.27-.443 3.137-1.318.87-.875 1.31-1.936 1.31-3.152 0-1.225-.438-2.29-1.3-3.162zm-.49 5.898c-.74.754-1.636 1.135-2.66 1.135-1.032 0-1.93-.38-2.67-1.135-.738-.752-1.113-1.676-1.113-2.743a3.79 3.79 0 0 1 1.11-2.733c.736-.756 1.64-1.14 2.687-1.14 1.025 0 1.917.385 2.652 1.144.73.758 1.1 1.676 1.1 2.73 0 1.067-.38 1.99-1.11 2.742z"/></g><path fill="#fff" d="M69.603 199.354h9.866L54.8 150.022h-8.597l-24.36 49.332 10.128-.006 4.78-10.238h27.91l4.94 10.244zM39.78 182.61l10.693-22.932 11.057 22.93H39.78z"/></svg>