<?xml version="1.0" encoding="UTF-8" standalone="no"?>
<!-- Created with Inkscape (http://www.inkscape.org/) -->

<svg
   xmlns:dc="http://purl.org/dc/elements/1.1/"
   xmlns:cc="http://creativecommons.org/ns#"
   xmlns:rdf="http://www.w3.org/1999/02/22-rdf-syntax-ns#"
   xmlns:svg="http://www.w3.org/2000/svg"
   xmlns="http://www.w3.org/2000/svg"
   xmlns:sodipodi="http://sodipodi.sourceforge.net/DTD/sodipodi-0.dtd"
   xmlns:inkscape="http://www.inkscape.org/namespaces/inkscape"
   width="172.67792mm"
   height="15.033599mm"
   viewBox="0 0 611.85089 53.268657"
   id="svg2"
   version="1.1"
   inkscape:version="0.91 r13725"
   sodipodi:docname="logo.svg">
  <defs
     id="defs4" />
  <sodipodi:namedview
     id="base"
     pagecolor="#ffffff"
     bordercolor="#666666"
     borderopacity="1.0"
     inkscape:pageopacity="0.0"
     inkscape:pageshadow="2"
     inkscape:zoom="2.8"
     inkscape:cx="655.94483"
     inkscape:cy="39.202144"
     inkscape:document-units="px"
     inkscape:current-layer="layer1"
     showgrid="false"
     fit-margin-top="0"
     fit-margin-left="0"
     fit-margin-right="0"
     fit-margin-bottom="0"
     inkscape:window-width="1858"
     inkscape:window-height="1053"
     inkscape:window-x="-8"
     inkscape:window-y="-8"
     inkscape:window-maximized="1" />
  <metadata
     id="metadata7">
    <rdf:RDF>
      <cc:Work
         rdf:about="">
        <dc:format>image/svg+xml</dc:format>
        <dc:type
           rdf:resource="http://purl.org/dc/dcmitype/StillImage" />
        <dc:title></dc:title>
      </cc:Work>
    </rdf:RDF>
  </metadata>
  <g
     inkscape:label="Calque 1"
     inkscape:groupmode="layer"
     id="layer1"
     transform="translate(-10.776388,-485.41247)">
    <path
       style="fill:#000000"
       d="m 123.26009,538.27739 c -3.07754,-0.49997 -8.57882,-2.44053 -11.089,-3.91159 -2.9783,-1.7454 -6.96349,-5.91829 -8.61629,-9.02212 -1.94266,-3.64813 -2.93008,-8.17029 -2.9217,-13.3806 0.0265,-16.4631 10.82101,-26.42871 28.69139,-26.48819 8.54412,-0.0284 16.25959,2.58854 21.08426,7.15152 5.28105,4.99459 7.61887,10.86288 7.61887,19.12449 0,3.1457 -0.28307,6.21559 -0.73337,7.95331 -2.2695,8.75829 -8.49125,14.92099 -17.83966,17.67034 -3.5095,1.03213 -12.36116,1.52562 -16.1945,0.90284 z m 10.50026,-14.98877 c 3.49531,-1.77083 5.52165,-5.12451 5.92388,-9.80425 0.3527,-4.10334 -0.72439,-7.78222 -3.02578,-10.33479 -5.17131,-5.73569 -12.57791,-4.53042 -16.33969,2.65897 -1.03712,1.9821 -1.2213,2.93058 -1.22339,6.30016 -0.003,4.16546 0.44692,5.54861 2.8439,8.7507 2.65219,3.54299 7.61121,4.56207 11.82108,2.42921 z m 107.56931,15.21036 c -0.25668,-0.10246 -1.83843,-0.31886 -3.51501,-0.48089 -1.6766,-0.16202 -3.33347,-0.47081 -3.68196,-0.68618 -0.61079,-0.37749 -2.33743,-10.52133 -2.35998,-13.86468 l -0.01,-1.47512 3.15007,1.15684 c 3.71593,1.36463 10.98398,2.02087 12.62932,1.1403 1.95293,-1.04517 1.3031,-2.53902 -2.59573,-5.9671 -8.31798,-7.31361 -10.78631,-10.38574 -12.07835,-15.03297 -0.64553,-2.32186 -0.68842,-3.24112 -0.25248,-5.41181 1.02058,-5.08188 3.1942,-8.02149 7.67964,-10.38598 2.41353,-1.27229 2.51073,-1.28314 11.30135,-1.26196 5.55641,0.0134 9.59528,0.23464 10.81784,0.5926 1.93713,0.5672 1.9532,0.59021 2.26618,3.24539 0.17336,1.47078 0.58497,4.66919 0.91466,7.10758 0.3297,2.4384 0.51535,4.57431 0.41254,4.74649 -0.10281,0.17216 -1.39234,-0.11231 -2.86563,-0.63216 -3.79408,-1.33877 -9.51098,-1.68451 -11.06094,-0.66894 -2.21681,1.45252 -1.31178,3.18906 3.6379,6.98021 4.63463,3.54984 9.00804,8.21466 10.21974,10.9007 0.65997,1.463 1.0191,3.213 1.0345,5.04102 0.052,6.17185 -2.55345,10.54063 -7.90994,13.26331 l -3.26674,1.66047 -7.00018,0.10959 c -3.85009,0.0603 -7.21018,0.0257 -7.46685,-0.0767 z m 46.20114,-0.43859 c -3.22467,-0.85162 -6.85859,-2.36939 -9.17707,-3.83299 -4.7717,-3.01224 -9.15391,-9.50433 -10.20513,-15.11853 -0.62963,-3.36264 -0.63543,-10.31242 -0.0113,-13.48729 1.11716,-5.6825 5.05544,-11.55559 10.01793,-14.93954 2.47037,-1.68456 7.502,-3.67361 10.89693,-4.30768 4.30327,-0.8037 15.17472,-0.24916 18.49893,0.94363 9.18454,3.29558 14.83274,9.35003 16.89558,18.1108 1.01184,4.2972 0.66748,12.80773 -0.67062,16.57425 -2.66763,7.50889 -7.68342,12.22793 -16.41148,15.44054 -3.28108,1.20771 -16.08827,1.606 -19.83382,0.61681 z m 12.49863,-13.98244 c 3.53779,-1.48666 6.31464,-5.83154 6.74248,-10.54984 0.84234,-9.28944 -7.53856,-16.32367 -14.81489,-12.4344 -2.31515,1.23748 -4.81963,4.46924 -5.57719,7.19681 -1.79085,6.44785 1.22129,13.7799 6.53171,15.89927 1.68548,0.67267 5.3895,0.61447 7.11789,-0.11184 z m 27.68562,13.42654 c -0.15581,-0.406 -0.28327,-11.80928 -0.28327,-25.34062 0,-18.51299 0.13861,-24.74105 0.56001,-25.16246 0.80423,-0.80421 36.81003,-0.80421 37.61426,0 0.5889,0.58893 0.82187,11.28156 0.27674,12.70216 -0.24612,0.64137 -1.5958,0.73818 -10.29128,0.73818 l -10.00805,0 0.14103,2.45006 0.14108,2.45006 8.16687,0.23334 8.16686,0.23334 0.12941,6.63934 0.12941,6.63934 -8.29628,0.12749 -8.29627,0.1275 -0.12634,9.45023 -0.12633,9.45023 -8.80729,0 c -7.60059,0 -8.84611,-0.10114 -9.09056,-0.73819 z m 55.82138,0.18809 c -0.42949,-0.42944 -0.56995,-5.08786 -0.56995,-18.8979 l 0,-18.32798 -6.88351,-0.12915 -6.8835,-0.12914 -0.12941,-6.63808 c -0.12838,-6.58647 -0.12105,-6.64016 0.94418,-6.90752 0.59049,-0.14821 11.77896,-0.20534 24.86336,-0.12699 20.74319,0.12423 24.04704,0.24097 25.79862,0.91158 5.02677,1.92453 8.08314,5.59309 8.96829,10.76469 0.9965,5.82235 1.90461,11.3941 2.37903,14.59663 0.88151,5.95092 0.90592,5.90606 2.5364,-4.66678 1.45533,-9.43676 2.02142,-13.15061 2.56085,-16.80041 0.31799,-2.15149 0.84371,-3.96576 1.24071,-4.28175 0.7955,-0.63313 16.34088,-0.85471 17.28081,-0.24633 0.31571,0.20437 0.90036,2.0418 1.29924,4.08319 0.39881,2.0414 0.92084,4.55166 1.15997,5.57834 0.23912,1.0267 1.20869,5.96182 2.15456,10.96694 0.94587,5.00512 1.8549,9.25654 2.02006,9.4476 0.16521,0.19105 0.6738,-2.22401 1.13021,-5.3668 0.4564,-3.1428 1.01375,-6.76419 1.23856,-8.04756 0.22479,-1.28337 0.87133,-5.37847 1.43672,-9.10022 0.56542,-3.72176 1.18839,-6.97684 1.38444,-7.23351 0.27296,-0.35748 11.3624,-0.5623 14.60726,-0.2698 0.22246,0.0201 0.2688,0.50897 0.10299,1.08647 -0.4664,1.6244 -3.82046,17.44001 -7.10111,33.48416 -1.80903,8.84714 -3.93737,12.58487 -8.64073,15.17448 -2.2933,1.26264 -2.95491,1.39054 -8.02575,1.55144 -3.15241,0.10001 -5.7182,-0.0166 -5.97297,-0.27128 -0.46262,-0.46262 -1.14928,-3.66219 -3.68157,-17.15465 -0.81893,-4.36344 -1.5777,-8.23116 -1.68616,-8.59492 -0.41693,-1.3981 -0.98016,0.37955 -1.76212,5.56151 -1.45992,9.67482 -3.15904,19.82698 -3.37815,20.18383 -0.33894,0.552 -18.25715,0.42774 -18.60123,-0.129 -0.16282,-0.26344 -1.31785,-5.56607 -2.56678,-11.78362 -3.3962,-16.90791 -5.02407,-24.52943 -5.35261,-25.06105 -0.17892,-0.28954 -2.94348,-0.47725 -7.02896,-0.47725 l -6.73398,0 -0.122,18.78379 -0.12194,18.7838 -8.64693,0.12658 c -6.33198,0.0927 -8.7996,-0.0259 -9.2169,-0.44334 z m 88.35114,0.11399 c -0.14826,-0.23986 0.38719,-1.86741 1.18983,-3.61675 2.72167,-5.9317 12.88485,-29.73872 16.29963,-38.18152 1.86867,-4.6201 3.72152,-8.6627 4.1174,-8.98355 0.52539,-0.42576 3.3971,-0.58335 10.63089,-0.58335 10.90029,0 10.91723,0.004 11.78983,2.93249 0.24604,0.82552 0.89303,2.65599 1.43779,4.06768 0.54475,1.41171 1.49076,3.93177 2.1022,5.60015 1.26937,3.4636 5.59957,14.64029 9.1307,23.56724 1.31986,3.33675 2.51077,6.43432 2.64643,6.8835 0.85295,2.82358 1.07122,-1.42166 1.07122,-20.83391 0,-19.31201 0.0797,-21.68121 0.73819,-21.93388 0.40601,-0.15579 7.28367,-0.27962 15.28371,-0.27516 18.43229,0.0103 21.07765,0.47431 25.50475,4.47392 2.37698,2.14744 3.60999,4.61481 4.22974,8.46424 0.97022,6.026 -0.50205,10.45458 -4.75522,14.30348 -1.50345,1.36055 -2.73356,2.78831 -2.73356,3.1728 0,0.69008 2.36946,7.74421 4.12431,12.2785 0.49669,1.28337 1.44106,3.72681 2.09861,5.42987 0.65755,1.70307 1.06645,3.22561 0.90862,3.38343 -0.15783,0.15781 -4.35155,0.28693 -9.31938,0.28693 -8.92139,0 -9.03802,-0.013 -9.48626,-1.05003 -0.67514,-1.56225 -7.45971,-26.532 -7.45971,-27.45462 0,-0.66073 0.58274,-0.82349 3.47055,-0.96932 4.37314,-0.22083 5.86302,-1.32713 5.86302,-4.35355 0,-3.51074 -2.04312,-4.63127 -7.93354,-4.35105 l -3.0334,0.1443 -0.1219,19.01713 -0.1219,19.01714 -16.76765,0 c -12.83104,0 -16.85627,-0.13591 -17.14519,-0.57888 -0.20763,-0.31838 -1.22727,-2.99595 -2.26587,-5.95015 l -1.88836,-5.37127 -7.72898,-0.12765 c -5.82196,-0.0962 -7.84841,0.019 -8.21308,0.46668 -0.26624,0.32689 -1.16076,2.58938 -1.98781,5.02777 -2.42943,7.16256 -1.26339,6.5335 -12.11082,6.5335 -5.25909,0 -9.41233,-0.18937 -9.56479,-0.43611 z m 35.68197,-25.07015 c 0,-0.44818 -3.29278,-10.55924 -3.6013,-11.05844 -0.14439,-0.23359 -1.05162,1.86027 -2.01605,4.65301 -0.96448,2.79273 -1.90265,5.4452 -2.08479,5.89438 -0.30022,0.7402 0.0448,0.81669 3.68544,0.81669 2.20921,0 4.0167,-0.13754 4.0167,-0.30564 z m 73.5796,25.19514 c -0.17113,-0.17112 -0.31113,-11.69893 -0.31113,-25.61737 0,-22.64548 0.0776,-25.33603 0.73819,-25.58952 0.40601,-0.15579 9.39424,-0.28327 19.97383,-0.28327 14.33882,0 19.37821,0.14256 19.79565,0.56001 0.6358,0.63581 0.79405,11.88271 0.18079,12.84816 -0.26815,0.42212 -3.2681,0.6078 -11.3098,0.70002 l -10.94487,0.12549 0,2.3334 0,2.33339 9.21689,0.12654 9.2169,0.12653 0,6.7471 0,6.7471 -9.2169,0.12654 -9.21689,0.12654 0,2.33339 0,2.33338 10.94487,0.12551 c 8.0417,0.0922 11.04165,0.27789 11.3098,0.70001 0.42823,0.67415 0.51087,11.58868 0.096,12.66998 -0.25219,0.65719 -2.47105,0.73819 -20.2227,0.73819 -10.9667,0 -20.07948,-0.14001 -20.25057,-0.31112 z M 11.801796,537.46488 c -0.17112,-0.17112 -0.311122,-11.72139 -0.311122,-25.6673 l 0,-25.35618 19.102354,0 c 17.787033,0 19.119445,0.0563 19.350584,0.81669 0.186035,0.61206 0.08081,8.57185 -0.163357,12.35769 -0.01207,0.1874 -4.484585,0.3974 -9.93889,0.46668 l -9.916912,0.12595 -0.14105,2.45006 -0.14106,2.45006 8.141327,0 c 6.993324,0 8.181264,0.10409 8.424594,0.73819 0.155796,0.406 0.283267,3.22607 0.283267,6.26681 0,7.46279 0.474171,7.099 -9.052454,6.94495 l -7.514624,-0.12152 -0.126334,9.41952 -0.126325,9.41952 -8.779443,0 c -4.828689,0 -8.919446,-0.14001 -9.090555,-0.31112 z m 41.223225,-25.35617 0,-25.66731 16.450411,0.005 c 19.547573,0.006 20.930297,0.25044 25.264045,4.46592 4.457468,4.33582 5.569643,13.16151 2.356774,18.70223 -0.618503,1.06664 -2.29473,2.96577 -3.724953,4.2203 l -2.600394,2.28096 1.843057,5.34659 c 2.30717,6.69294 3.686083,10.39597 4.805334,12.90453 1.59365,3.57181 1.996128,3.40903 -8.428605,3.40903 -8.453117,0 -9.324857,-0.0745 -9.551277,-0.81669 -0.137039,-0.44918 -1.287606,-4.59678 -2.556806,-9.2169 -1.26921,-4.62011 -2.955972,-10.69308 -3.748358,-13.49547 -0.792395,-2.80239 -1.357503,-5.17847 -1.255791,-5.28018 0.101712,-0.10171 1.543588,-0.234 3.204181,-0.29399 4.81168,-0.17382 7.014055,-2.25138 6.139472,-5.79154 -0.620976,-2.51361 -2.638136,-3.42882 -7.196568,-3.26516 l -3.500088,0.12565 -0.121905,19.01714 -0.121905,19.01714 -8.628307,0 -8.628317,0 0,-25.6673 z M 161.1388,537.46488 c -0.17112,-0.17112 -0.31112,-11.72139 -0.31112,-25.6673 l 0,-25.35618 11.87915,0 11.87914,0 0.29621,1.75005 c 0.16292,0.96253 0.5801,3.32508 0.9271,5.25012 0.34699,1.92506 0.96771,5.39014 1.3794,7.7002 0.65694,3.68629 1.06381,5.80027 1.90865,9.9169 0.26112,1.27233 1.13108,1.40202 1.13108,0.16862 0,-0.48478 0.52113,-3.58235 1.15806,-6.8835 0.63694,-3.30115 1.65318,-8.62715 2.2583,-11.83557 l 1.10024,-5.83347 11.85871,0 11.85871,0 0,25.43396 0,25.43395 -7.46685,0 -7.46685,0 -0.23333,-15.40038 -0.23335,-15.40037 -1.80013,8.86687 c -0.99008,4.87679 -2.3354,11.59696 -2.98961,14.9337 -0.65421,3.33676 -1.39671,6.33451 -1.64998,6.66168 -0.34604,0.44701 -2.26378,0.56301 -7.71534,0.46668 l -7.25484,-0.12818 -0.55652,-2.33339 c -0.30608,-1.28336 -1.54229,-7.47852 -2.74712,-13.76701 -3.2302,-16.85959 -3.31636,-16.86471 -3.12053,-0.18531 0.0917,7.80493 0.0351,14.71465 -0.12555,15.35492 l -0.29218,1.16413 -6.68017,0 c -3.67409,0 -6.82017,-0.14001 -6.99128,-0.31112 z"
       id="path4147"
       inkscape:connector-curvature="0" />
  </g>
</svg>
