<?xml version="1.0" encoding="utf-8"?>
<!-- Generator: Adobe Illustrator 16.0.0, SVG Export Plug-In . SVG Version: 6.00 Build 0)  -->
<!DOCTYPE svg PUBLIC "-//W3C//DTD SVG 1.1//EN" "http://www.w3.org/Graphics/SVG/1.1/DTD/svg11.dtd">
<svg version="1.1" id="Layer_1" xmlns="http://www.w3.org/2000/svg" xmlns:xlink="http://www.w3.org/1999/xlink" x="0px" y="0px"
	 width="216px" height="37.82px" viewBox="0 0 216 37.82" enable-background="new 0 0 216 37.82" xml:space="preserve">
<polygon fill="#939598" points="48.06,9.17 50.48,9.17 50.48,27.01 66.26,27.01 66.26,29.16 48.06,29.16 "/>
<rect x="67.99" y="14.78" fill="#939598" width="2.22" height="14.38"/>
<rect x="67.8" y="9.17" fill="#939598" width="2.56" height="2.55"/>
<path fill="#939598" d="M73.38,14.78h2.23v2.09c1.51-1.32,3.49-2.53,6.04-2.53c1.79,0,5.94,0.42,5.94,5.33v9.49h-2.23v-9.05
	c0.05-3.41-2.42-3.87-3.98-3.87c-2.45,0-4.48,1.51-5.77,2.88v10.04h-2.23V14.78z"/>
<path fill="#939598" d="M106.61,26.46V9.17h-2.23v7.59c-1.98-1.46-3.47-2.42-6.43-2.42c-6.16,0-8.25,4.43-8.25,7.75
	c0,3.27,2.31,7.5,7.86,7.5c3.3,0,4.75-0.93,6.93-2.69l0.28,2.25h2.01C106.74,28.72,106.61,26.85,106.61,26.46z M104.38,24.65
	c-1.38,1.49-3.85,3.05-6.24,3.05c-3.9,0-6.21-2.58-6.21-5.55c0-4.38,3.18-5.91,6.15-5.91c3.11,0,4.98,1.46,6.3,2.83V24.65z"/>
<path fill="#939598" d="M117.08,27.7c-3.74,0-5.91-2.58-6.13-5.27h14.13c0.11-5.69-3.91-8.08-8.5-8.08c-4.43,0-7.86,2.99-7.86,7.56
	c0,4.4,3.3,7.69,8.14,7.69c4.89,0,6.32-1.87,7.8-3.44l-1.73-1.26C122.02,26.03,120.79,27.7,117.08,27.7z M116.77,16.24
	c3.41,0,5.45,1.92,5.88,4.29h-11.62C111.67,17.89,113.5,16.24,116.77,16.24z"/>
<path fill="#939598" d="M127.41,14.78h2.22v2.09c1.52-1.32,3.49-2.53,6.05-2.53c1.79,0,5.93,0.42,5.93,5.33v9.49h-2.22v-9.05
	c0.06-3.41-2.41-3.87-3.99-3.87c-2.44,0-4.48,1.51-5.77,2.88v10.04h-2.22V14.78z"/>
<polygon fill="#939598" points="154.57,9.17 156.99,9.17 156.99,27.01 172.76,27.01 172.76,29.16 154.57,29.16 "/>
<path fill="#939598" d="M188.67,26.93v-7.95c0-3.69-3.74-4.65-7.01-4.65c-5.01,0-6.57,2.06-7.4,3.08l1.68,1.15
	c0.71-0.82,2.06-2.42,5.88-2.42c2.28,0,4.62,0.74,4.62,2.7v0.55c-5.61,0.66-13.06,0.85-13.06,5.83c0,3.71,3.49,4.37,5.85,4.37
	c2.75,0,5.09-0.82,7.17-2.17c0,0.58,0.17,1.29,0.28,1.74h2.23C188.78,28.38,188.67,27.78,188.67,26.93z M186.45,25.53
	c-1.43,0.77-4.21,2.25-7.31,2.25c-1.1,0-3.63-0.3-3.63-2.56c0-2.77,4.4-3.38,10.94-4.01V25.53z"/>
<path fill="#939598" d="M200.74,14.34c-2.97,0-4.51,0.96-6.43,2.42V9.17h-2.23v17.29c0,0.39-0.14,2.25-0.16,2.7h1.73l0.55-2.25
	c2.14,1.76,3.63,2.69,6.82,2.69c5.66,0,7.97-4.23,7.97-7.5C208.99,18.77,206.89,14.34,200.74,14.34z M200.55,27.7
	c-2.4,0-4.87-1.57-6.24-3.05v-5.58c1.31-1.38,3.19-2.83,6.29-2.83c2.97,0,6.16,1.54,6.16,5.91C206.76,25.12,204.45,27.7,200.55,27.7
	z"/>
<path fill="#537A72" d="M29.24,0H5.07C2.27,0,0,2.27,0,5.07v27.69c0,2.8,2.27,5.06,5.07,5.06h11.17v-6.74L5.01,24.6
	c-0.28-0.16-0.45-0.46-0.45-0.78V10.34c0-0.32,0.17-0.62,0.45-0.78l11.68-6.74c0.28-0.16,0.62-0.16,0.9,0l11.68,6.74
	c0.28,0.16,0.45,0.46,0.45,0.78v13.48c0,0.32-0.17,0.62-0.45,0.78l-11.23,6.48v6.74h11.2c2.79,0,5.06-2.27,5.06-5.06V5.07
	C34.3,2.27,32.03,0,29.24,0"/>
<path fill="#BECAC7" d="M17.91,4.94c-0.08,0.05-0.13,0.13-0.13,0.22v10.36c0,0.09,0.05,0.18,0.13,0.22c0.08,0.05,0.18,0.05,0.26,0
	l8.97-5.18c0.08-0.05,0.13-0.13,0.13-0.22c0-0.09-0.05-0.18-0.13-0.22l-8.97-5.18C18.09,4.89,17.99,4.89,17.91,4.94"/>
<path fill="#BECAC7" d="M16.1,4.94l-8.97,5.18C7.05,10.16,7,10.25,7,10.34c0,0.09,0.05,0.18,0.13,0.22l8.97,5.18
	c0.08,0.05,0.18,0.05,0.26,0c0.08-0.04,0.13-0.13,0.13-0.22V5.16c0-0.09-0.05-0.18-0.13-0.22C16.28,4.89,16.19,4.89,16.1,4.94"/>
<path fill="#95AAA6" d="M6.23,11.68C6.15,11.72,6.1,11.81,6.1,11.9v10.36c0,0.09,0.05,0.18,0.13,0.23c0.08,0.05,0.18,0.05,0.26,0
	l8.97-5.18c0.08-0.04,0.13-0.13,0.13-0.22c0-0.09-0.05-0.18-0.13-0.22l-8.97-5.18C6.41,11.63,6.31,11.63,6.23,11.68"/>
<path fill="#95AAA6" d="M16.1,18.42L7.13,23.6C7.05,23.64,7,23.73,7,23.82S7.05,24,7.13,24.04l8.97,5.18c0.08,0.05,0.18,0.05,0.26,0
	c0.08-0.04,0.13-0.13,0.13-0.23V18.64c0-0.09-0.05-0.18-0.13-0.22C16.28,18.37,16.19,18.37,16.1,18.42"/>
<path fill="#6F8E88" d="M17.91,18.42c-0.08,0.04-0.13,0.13-0.13,0.22V29c0,0.09,0.05,0.18,0.13,0.22c0.08,0.04,0.18,0.04,0.26,0
	l8.97-5.18c0.08-0.04,0.13-0.13,0.13-0.22s-0.05-0.18-0.13-0.23l-8.97-5.18C18.09,18.37,17.99,18.37,17.91,18.42"/>
<path fill="#6F8E88" d="M27.78,11.68l-8.97,5.18c-0.08,0.04-0.13,0.13-0.13,0.22c0,0.09,0.05,0.18,0.13,0.22l8.97,5.18
	c0.08,0.05,0.18,0.05,0.26,0c0.08-0.05,0.13-0.13,0.13-0.23V11.9c0-0.09-0.05-0.18-0.13-0.22C27.96,11.63,27.86,11.63,27.78,11.68"
	/>
<path fill="#929396" d="M214.42,10.53c0-0.06-0.01-0.11-0.03-0.15c-0.02-0.04-0.06-0.08-0.11-0.11c-0.05-0.03-0.1-0.04-0.16-0.05
	c-0.06-0.01-0.13-0.01-0.21-0.01h-0.35v0.74h0.3c0.1,0,0.19-0.01,0.25-0.02c0.07-0.02,0.13-0.04,0.18-0.08
	c0.05-0.04,0.08-0.08,0.1-0.13C214.42,10.66,214.42,10.6,214.42,10.53 M215.26,12.09h-0.53l-0.79-0.85h-0.39v0.85h-0.39V9.9h0.74
	c0.15,0,0.27,0.01,0.37,0.02c0.1,0.01,0.19,0.04,0.28,0.09c0.1,0.05,0.17,0.12,0.22,0.2c0.05,0.08,0.07,0.17,0.07,0.29
	c0,0.16-0.05,0.28-0.14,0.39c-0.09,0.1-0.21,0.18-0.37,0.25L215.26,12.09z M215.72,11.04c0-0.49-0.17-0.91-0.52-1.27
	c-0.35-0.35-0.77-0.53-1.26-0.53s-0.91,0.18-1.26,0.53c-0.35,0.35-0.52,0.77-0.52,1.27s0.17,0.91,0.52,1.27
	c0.35,0.35,0.77,0.53,1.26,0.53s0.91-0.18,1.26-0.53C215.55,11.95,215.72,11.53,215.72,11.04 M216,11.04c0,0.57-0.2,1.05-0.6,1.46
	c-0.4,0.4-0.89,0.61-1.46,0.61s-1.05-0.2-1.46-0.61s-0.6-0.89-0.6-1.46s0.2-1.05,0.6-1.46s0.89-0.6,1.46-0.6s1.05,0.2,1.46,0.6
	C215.8,9.98,216,10.47,216,11.04"/>
</svg>
