<?xml version="1.0" encoding="UTF-8" standalone="no"?>
<svg
   xmlns:dc="http://purl.org/dc/elements/1.1/"
   xmlns:cc="http://creativecommons.org/ns#"
   xmlns:rdf="http://www.w3.org/1999/02/22-rdf-syntax-ns#"
   xmlns:svg="http://www.w3.org/2000/svg"
   xmlns="http://www.w3.org/2000/svg"
   version="1.1"
   id="svg4165"
   viewBox="0 0 250.00033 61.455219"
   height="17.344028mm"
   width="70.555649mm">
  <defs
     id="defs4167" />
  <metadata
     id="metadata4170">
    <rdf:RDF>
      <cc:Work
         rdf:about="">
        <dc:format>image/svg+xml</dc:format>
        <dc:type
           rdf:resource="http://purl.org/dc/dcmitype/StillImage" />
        <dc:title></dc:title>
      </cc:Work>
    </rdf:RDF>
  </metadata>
  <g
     transform="translate(2025,732.65112)"
     id="layer1">
    <path
       d="m -1775.0767,-704.50981 c -0.05,-1.5613 -0.1338,-2.91636 -0.2369,-4.02767 -0.086,-0.99541 -0.2293,-1.98742 -0.4321,-2.96664 -0.1832,-0.82581 -0.4065,-1.64481 -0.6724,-2.44677 -1.3687,-4.16147 -3.6621,-7.3369 -6.8085,-9.45471 -3.1422,-2.11354 -7.031,-3.19588 -11.6118,-3.19588 -4.5841,0 -8.3987,1.0687 -11.5384,3.19588 -3.1388,2.13059 -5.433,5.29324 -6.8076,9.45471 -0.2668,0.80196 -0.4892,1.62096 -0.6691,2.44677 -0.2062,0.97922 -0.3494,1.97123 -0.4363,2.96664 -0.1031,1.11131 -0.1866,2.46637 -0.2361,4.02767 -0.05,1.55788 -0.077,3.42599 -0.077,5.61282 0,2.18428 0,4.07114 0.077,5.60942 0.077,1.5417 0.1262,2.91635 0.2361,4.02852 0.083,0.99541 0.2301,1.98742 0.4363,2.96579 0.1799,0.82581 0.4023,1.64481 0.6691,2.44677 1.3678,4.16146 3.662,7.34371 6.8076,9.4547 3.1465,2.10758 7.031,3.19589 11.5384,3.19589 4.5041,0 8.4824,-1.0687 11.6118,-3.19589 3.1328,-2.12718 5.433,-5.29324 6.8085,-9.4547 0.2659,-0.80196 0.4892,-1.62096 0.6724,-2.44677 0.2028,-0.97837 0.3494,-1.97038 0.4321,-2.96579 0.1031,-1.11217 0.1798,-2.46722 0.2369,-4.02852 0.06,-1.55789 0.077,-3.46178 0.077,-5.60942 0,-2.15019 -0.024,-4.02852 -0.077,-5.61282 z m -7.7971,10.57284 c -0.049,1.37892 -0.1398,2.59335 -0.2693,3.61604 -0.127,1.02183 -0.2565,1.88088 -0.3827,2.55671 -0.1,0.57525 -0.2403,1.14455 -0.4167,1.70106 -0.6588,2.24649 -2.0241,4.22453 -3.8981,5.62902 -1.7906,1.27835 -4.1411,1.91753 -7.031,1.91753 -2.8891,0 -5.2029,-0.63918 -6.9611,-1.91753 -1.8442,-1.42153 -3.1856,-3.39872 -3.835,-5.63584 -0.1764,-0.55651 -0.3162,-1.12239 -0.4159,-1.69424 -0.1261,-0.69628 -0.2599,-1.55874 -0.3827,-2.55671 -0.1201,-0.99542 -0.2164,-2.23712 -0.2667,-3.61604 -0.053,-1.38148 -0.077,-3.0493 -0.077,-4.96002 0,-1.91071 0,-3.58195 0.077,-4.96001 0.077,-1.38148 0.1397,-2.59677 0.2667,-3.6186 0.1296,-1.02268 0.2566,-1.91753 0.3827,-2.55671 0.1,-0.57611 0.2395,-1.1454 0.4159,-1.70106 0.6494,-2.23456 1.9942,-4.20834 3.835,-5.62987 1.765,-1.27836 4.1053,-1.91753 6.9611,-1.91753 2.8567,0 5.2165,0.63917 7.031,1.91753 1.8715,1.4113 3.2393,3.38593 3.8981,5.63584 0.1764,0.55651 0.317,1.12239 0.4167,1.69509 0.1262,0.69543 0.2557,1.56471 0.3827,2.55671 0.1295,0.99201 0.2199,2.24309 0.2693,3.6186 0.05,1.37125 0.077,3.07913 0.077,4.96001 0,1.87748 -0.02,3.55212 -0.077,4.96002 z m -40.9074,-31.78841 -5.4261,0 c -0.6725,-0.0673 -1.2417,0.496 -1.1821,1.17182 l 0,51.30718 c -0.06,0.67241 0.5096,1.23489 1.1821,1.16842 l 5.4261,0 c 0.6725,0.0665 1.2418,-0.49601 1.1821,-1.16842 l 0,-51.30121 c 0.063,-0.67838 -0.5062,-1.24512 -1.1821,-1.17779 z m -13.8386,0 -5.4262,0 c -0.6596,-0.0307 -1.2485,0.41248 -1.3985,1.05507 l -12.7401,39.89147 -13.213,-39.87869 c -0.1764,-0.65878 -0.7952,-1.09853 -1.4744,-1.05507 l -5.3503,0 c -0.3494,-0.0298 -0.6886,0.13039 -0.8889,0.41589 -0.1798,0.323 -0.196,0.71247 -0.046,1.0491 l 17.1444,51.13418 c 0.1262,0.61957 0.6758,1.06529 1.3116,1.06188 l 4.6004,0 c 0.6196,-0.0102 1.1488,-0.44231 1.2783,-1.04825 l 17.072,-51.13417 c 0.1628,-0.35027 0.1398,-0.75593 -0.057,-1.08916 -0.196,-0.25908 -0.5062,-0.40907 -0.8317,-0.40225 l 0.02,0 z m -43.77,17.1879 c -0.087,-0.99541 -0.2301,-1.98742 -0.4363,-2.96664 -0.1798,-0.82581 -0.4031,-1.64481 -0.669,-2.44677 -1.3755,-4.16147 -3.6621,-7.3369 -6.8077,-9.45471 -3.1464,-2.11354 -7.0309,-3.19588 -11.6151,-3.19588 -4.5808,0 -8.3996,1.0687 -11.5359,3.19588 -3.1388,2.13059 -5.433,5.29324 -6.8076,9.45471 -0.2659,0.80196 -0.4926,1.62096 -0.6725,2.44677 -0.2028,0.97922 -0.3494,1.97123 -0.4329,2.96664 -0.1031,1.11813 -0.1858,2.47319 -0.2361,4.02767 -0.054,1.55107 -0.077,3.42599 -0.077,5.61282 0,2.18428 0,4.07114 0.077,5.60942 0.077,1.5417 0.1262,2.91635 0.2361,4.02852 0.083,0.99541 0.2301,1.98742 0.4329,2.96579 0.1799,0.82581 0.4066,1.64481 0.6725,2.44677 1.3687,4.16146 3.662,7.34371 6.8076,9.4547 3.1431,2.10758 7.031,3.19589 11.5359,3.19589 4.5075,0 8.4823,-1.0687 11.6151,-3.19589 3.132,-2.12718 5.4322,-5.29324 6.8077,-9.4547 0.2659,-0.80196 0.4892,-1.62096 0.669,-2.44677 0.2062,-0.97837 0.3494,-1.97038 0.4363,-2.96579 0.1032,-1.11898 0.1858,-2.47404 0.2361,-4.02852 0.05,-1.55107 0.077,-3.46178 0.077,-5.60942 0,-2.15019 0,-4.03448 -0.077,-5.61282 -0.077,-1.57749 -0.1534,-2.88994 -0.2633,-4.02767 l 0.027,0 z m -7.5874,14.60051 c -0.049,1.37892 -0.1398,2.59335 -0.2693,3.61604 -0.127,1.02183 -0.2566,1.88685 -0.3827,2.55671 -0.1,0.57525 -0.2403,1.14455 -0.4167,1.70106 -0.6588,2.24649 -2.0241,4.22453 -3.8982,5.62902 -1.7905,1.27835 -4.1478,1.91753 -7.0309,1.91753 -2.8831,0 -5.2029,-0.63918 -6.9611,-1.91753 -1.8442,-1.42153 -3.1856,-3.39531 -3.835,-5.63584 -0.1764,-0.55651 -0.3162,-1.12239 -0.4159,-1.69424 -0.1262,-0.69628 -0.26,-1.56471 -0.3827,-2.55671 -0.1201,-0.98945 -0.2164,-2.24394 -0.2667,-3.61604 -0.053,-1.37466 -0.077,-3.04249 -0.077,-4.96002 0,-1.91753 0,-3.58876 0.077,-4.96001 0.077,-1.37551 0.1397,-2.59677 0.2667,-3.6186 0.1296,-1.02268 0.2565,-1.91753 0.3827,-2.55671 0.1,-0.57611 0.2395,-1.1454 0.4159,-1.70106 0.6494,-2.23456 1.9942,-4.20834 3.835,-5.62987 1.765,-1.27836 4.1053,-1.91753 6.9611,-1.91753 2.8567,0 5.2165,0.63917 7.0309,1.91753 1.8716,1.4113 3.2394,3.38593 3.8982,5.63584 0.1764,0.55651 0.317,1.12239 0.4167,1.69509 0.1261,0.68861 0.2557,1.55789 0.3827,2.55671 0.1295,0.99542 0.2198,2.24309 0.2693,3.6186 0.05,1.37125 0.077,3.07913 0.077,4.96001 0,1.87748 -0.02,3.54531 -0.077,4.96002 z m -48.384,-1.54766 c 2.9359,-0.97581 5.5097,-2.81664 7.3803,-5.27961 1.9644,-2.7067 2.976,-5.98951 2.8831,-9.33198 0.02,-2.19366 -0.3996,-4.36771 -1.2382,-6.39177 -0.7824,-1.89026 -1.9645,-3.58536 -3.4661,-4.97366 -1.5613,-1.39084 -3.3817,-2.46296 -5.3563,-3.15242 -2.2235,-0.7619 -4.5637,-1.13858 -6.9142,-1.11131 l -19.1753,0 c -0.6724,-0.0605 -1.2349,0.49941 -1.1787,1.17182 l 0,51.30718 c -0.06,0.67241 0.5097,1.23489 1.1821,1.16842 l 5.4296,0 c 0.6724,0.0665 1.2417,-0.49601 1.1821,-1.16842 l 0,-21.14654 c 0,-0.0299 0,-0.0562 0,-0.0631 l 11.408,0 10.4237,21.36215 c 0.1866,0.60935 0.7491,1.02609 1.3883,1.02268 l 6.2886,0 c 0.3622,0.023 0.7091,-0.16022 0.8889,-0.47299 0.1764,-0.32981 0.1492,-0.73207 -0.07,-1.03546 l -11.056,-21.90499 z m -19.229,-6.21877 -0.063,0 c 0,-0.023 0,-0.0468 0,-0.0699 l 0,-16.61861 c 0,-0.0333 0,-0.0597 0,-0.0665 l 12.394,0 c 2.9829,0 5.3231,0.73547 6.9475,2.19365 1.6252,1.45818 2.4271,3.52911 2.4271,6.19235 0,2.66665 -0.8156,4.75718 -2.4271,6.1949 -1.6108,1.43858 -3.9578,2.1911 -6.9475,2.1911 l -12.3241,0 -0.01,-0.017 z m -25.4572,3.19589 c 3.8649,-3.25896 5.9128,-7.39742 6.0023,-13.33239 0.1134,-7.40423 -4.8066,-14.78459 -13.4892,-17.84753 -5.0333,-1.67464 -10.2797,-2.63341 -15.5797,-2.84988 -4.6174,-0.24288 -9.2417,-0.0963 -13.8327,0.43294 -1.2979,0.12357 -2.5831,0.36305 -3.835,0.71588 -0.3256,0.12954 -0.5122,0.29658 -0.4423,0.37924 0.1994,0.0869 0.4227,0.12017 0.6391,0.0937 0.3461,0 1.8673,-0.1338 4.4743,-0.12017 3.8913,0.0434 7.7732,0.39629 11.6083,1.06189 10.6666,1.77435 17.1478,6.53154 16.6186,14.42495 -0.4159,6.252 -11.1421,9.1283 -20.913,13.00001 -8.8087,3.49247 -12.7333,7.78688 -13.8455,12.24749 -1.2783,5.02393 1.0619,10.22683 3.9544,14.76414 0.6392,1.02865 1.3253,2.03429 2.0411,2.95982 0.1296,0.24288 0.3665,0.40907 0.6392,0.44912 0.033,-0.17982 0.017,-0.36305 -0.047,-0.53264 -0.2761,-1.07808 -0.4559,-2.18002 -0.536,-3.29219 -0.049,-3.12941 1.6311,-5.78243 5.7525,-8.40902 3.3195,-2.11099 8.213,-4.20152 15.0539,-6.50171 6.8384,-2.30018 12.0916,-4.57736 15.7366,-7.6437 z m 5.5532,25.66339 c -2.1741,-0.77895 -4.228,-1.86385 -6.0892,-3.22913 -2.3471,-1.72066 -4.5271,-4.02767 -4.8399,-6.64744 -0.5497,-4.60804 0.6954,-6.78806 1.0355,-7.37099 0.1159,-0.15681 0.1696,-0.35283 0.1457,-0.54884 -0.1824,-0.0733 -0.3861,-0.0733 -0.5693,0 -0.8548,0.173 -5.6154,1.86725 -8.3954,4.42396 -1.7982,1.65419 -3.1959,3.73194 -2.7433,6.55795 0.4397,2.67688 2.5865,4.62765 4.8373,5.7526 2.4502,1.24512 5.5924,1.75134 8.6357,1.91753 2.5567,0.1338 5.1202,0.0937 7.6701,-0.12272 0.4457,0 0.8855,-0.10994 1.2784,-0.31959 -0.2932,-0.19005 -0.6196,-0.33322 -0.9588,-0.4193 l -0.01,0.006 z"
       style="fill:#ee2437;fill-opacity:1;fill-rule:evenodd;stroke:none"
       id="path4148" />
  </g>
</svg>
